<svg width="55" height="74" viewBox="0 0 55 74" fill="none" xmlns="http://www.w3.org/2000/svg">
<g filter="url(#filter0_d_7678_14025)">
<rect x="15.2812" y="15.0547" width="24.8906" height="43.8906" rx="4.57031" fill="white" stroke="#AC1001" stroke-width="2.10938"/>
<rect x="18.4219" y="42.9531" width="18.6102" height="2.93617" rx="1.40625" fill="url(#paint0_linear_7678_14025)"/>
<rect x="18.4219" y="48.8203" width="18.6102" height="2.93617" rx="1.40625" fill="url(#paint1_linear_7678_14025)"/>
<path d="M20.9766 14H34.4766V15.8055C34.4766 16.9705 33.5322 17.9149 32.3672 17.9149H23.0859C21.921 17.9149 20.9766 16.9705 20.9766 15.8055V14Z" fill="#AC1001"/>
</g>
<rect x="18.4219" y="22.5234" width="18.6114" height="16.1247" rx="3" fill="url(#paint2_linear_7678_14025)"/>
<path d="M21.1675 35.6719H19.7009L22.3713 28.0866H24.0676L26.7416 35.6719H25.275L23.249 29.6422H23.1898L21.1675 35.6719ZM21.2157 32.6978H25.2157V33.8015H21.2157V32.6978ZM27.3931 35.6719V28.0866H28.7338V30.9237H28.7894C28.8585 30.7854 28.956 30.6385 29.082 30.483C29.2079 30.3249 29.3783 30.1904 29.5931 30.0793C29.8079 29.9657 30.082 29.9089 30.4153 29.9089C30.8548 29.9089 31.2511 30.0212 31.6042 30.2459C31.9598 30.4681 32.2412 30.7978 32.4487 31.2348C32.6585 31.6694 32.7635 32.2027 32.7635 32.8348C32.7635 33.4595 32.661 33.9904 32.4561 34.4274C32.2511 34.8645 31.9721 35.1978 31.619 35.4274C31.2659 35.6571 30.8659 35.7719 30.419 35.7719C30.0931 35.7719 29.8227 35.7176 29.6079 35.6089C29.3931 35.5003 29.2202 35.3694 29.0894 35.2163C28.961 35.0608 28.861 34.9138 28.7894 34.7756H28.7116V35.6719H27.3931ZM28.7079 32.8274C28.7079 33.1953 28.7597 33.5175 28.8635 33.7941C28.9696 34.0706 29.1215 34.2867 29.319 34.4422C29.519 34.5953 29.761 34.6719 30.0449 34.6719C30.3412 34.6719 30.5894 34.5929 30.7894 34.4348C30.9894 34.2743 31.14 34.0558 31.2412 33.7793C31.3449 33.5003 31.3968 33.183 31.3968 32.8274C31.3968 32.4743 31.3462 32.1607 31.2449 31.8867C31.1437 31.6126 30.9931 31.3978 30.7931 31.2422C30.5931 31.0867 30.3437 31.0089 30.0449 31.0089C29.7585 31.0089 29.5153 31.0842 29.3153 31.2348C29.1153 31.3854 28.9635 31.5965 28.8597 31.8682C28.7585 32.1398 28.7079 32.4595 28.7079 32.8274Z" fill="white"/>
<defs>
<filter id="filter0_d_7678_14025" x="0.867188" y="0.640625" width="53.7188" height="72.7188" filterUnits="userSpaceOnUse" color-interpolation-filters="sRGB">
<feFlood flood-opacity="0" result="BackgroundImageFix"/>
<feColorMatrix in="SourceAlpha" type="matrix" values="0 0 0 0 0 0 0 0 0 0 0 0 0 0 0 0 0 0 127 0" result="hardAlpha"/>
<feOffset/>
<feGaussianBlur stdDeviation="6.67969"/>
<feColorMatrix type="matrix" values="0 0 0 0 0.0941176 0 0 0 0 0.356863 0 0 0 0 0.741176 0 0 0 0.15 0"/>
<feBlend mode="normal" in2="BackgroundImageFix" result="effect1_dropShadow_7678_14025"/>
<feBlend mode="normal" in="SourceGraphic" in2="effect1_dropShadow_7678_14025" result="shape"/>
</filter>
<linearGradient id="paint0_linear_7678_14025" x1="20.1269" y1="43.0606" x2="24.5315" y2="51.0022" gradientUnits="userSpaceOnUse">
<stop stop-color="#A30101"/>
<stop offset="1" stop-color="#F88C04"/>
</linearGradient>
<linearGradient id="paint1_linear_7678_14025" x1="20.1269" y1="48.9278" x2="24.5314" y2="56.8694" gradientUnits="userSpaceOnUse">
<stop stop-color="#A30101"/>
<stop offset="1" stop-color="#F88C04"/>
</linearGradient>
<linearGradient id="paint2_linear_7678_14025" x1="23.6855" y1="22.5234" x2="27.6276" y2="38.6726" gradientUnits="userSpaceOnUse">
<stop stop-color="#A20000"/>
<stop offset="1" stop-color="#FF9904"/>
</linearGradient>
</defs>
</svg>
