<svg width="21" height="21" viewBox="0 0 21 21" fill="none" xmlns="http://www.w3.org/2000/svg">
<g clip-path="url(#clip0_7917_58694)">
<path d="M9.8763 10.1537H10.3763V9.65367L10.3763 7.77865C10.3763 7.70961 10.4323 7.65365 10.5013 7.65365C10.5703 7.65365 10.6263 7.70961 10.6263 7.77865V9.65367V10.1537H11.1263H13.0013C13.0703 10.1537 13.1263 10.2096 13.1263 10.2787C13.1263 10.3477 13.0703 10.4037 13.0013 10.4037H11.1263H10.6263V10.9037L10.6263 12.7786C10.6263 12.8477 10.5703 12.9036 10.5013 12.9036C10.4323 12.9036 10.3763 12.8477 10.3763 12.7786V10.9037V10.4037H9.8763H8.0013C7.93227 10.4037 7.8763 10.3477 7.8763 10.2787C7.8763 10.2096 7.93227 10.1537 8.0013 10.1537H9.8763ZM10.5013 19.112C15.3798 19.112 19.3346 15.1572 19.3346 10.2786C19.3346 5.40013 15.3798 1.44531 10.5013 1.44531C5.62279 1.44531 1.66797 5.40013 1.66797 10.2786C1.66797 15.1572 5.62279 19.112 10.5013 19.112Z" fill="#1B3A6D" stroke="white" stroke-linecap="round"/>
</g>
<defs>
<clipPath id="clip0_7917_58694">
<rect width="20" height="20" fill="white" transform="translate(0.5 0.28125)"/>
</clipPath>
</defs>
</svg>
