<svg xmlns="http://www.w3.org/2000/svg" width="25" height="24" viewBox="0 0 25 24" fill="none">
  <path d="M9.66406 2C8.83564 2 8.16406 2.67157 8.16406 3.5V4.5C8.16406 5.32843 8.83564 6 9.66406 6H14.6641C15.4925 6 16.1641 5.32843 16.1641 4.5V3.5C16.1641 2.67157 15.4925 2 14.6641 2H9.66406Z" fill="#1B3A6D"/>
  <path fill-rule="evenodd" clip-rule="evenodd" d="M6.66406 4.03662C5.40616 4.10719 4.61205 4.30764 4.04274 4.87694C3.16406 5.75562 3.16406 7.16983 3.16406 9.99826V15.9983C3.16406 18.8267 3.16406 20.2409 4.04274 21.1196C4.92142 21.9983 6.33564 21.9983 9.16406 21.9983H15.1641C17.9925 21.9983 19.4067 21.9983 20.2854 21.1196C21.1641 20.2409 21.1641 18.8267 21.1641 15.9983V9.99826C21.1641 7.16983 21.1641 5.75562 20.2854 4.87694C19.7161 4.30764 18.922 4.10719 17.6641 4.03662V4.5C17.6641 6.15685 16.3209 7.5 14.6641 7.5H9.66406C8.00721 7.5 6.66406 6.15685 6.66406 4.5V4.03662ZM7.16406 9.75C6.74985 9.75 6.41406 10.0858 6.41406 10.5C6.41406 10.9142 6.74985 11.25 7.16406 11.25H7.66406C8.07828 11.25 8.41406 10.9142 8.41406 10.5C8.41406 10.0858 8.07828 9.75 7.66406 9.75H7.16406ZM10.6641 9.75C10.2498 9.75 9.91406 10.0858 9.91406 10.5C9.91406 10.9142 10.2498 11.25 10.6641 11.25H17.1641C17.5783 11.25 17.9141 10.9142 17.9141 10.5C17.9141 10.0858 17.5783 9.75 17.1641 9.75H10.6641ZM7.16406 13.25C6.74985 13.25 6.41406 13.5858 6.41406 14C6.41406 14.4142 6.74985 14.75 7.16406 14.75H7.66406C8.07828 14.75 8.41406 14.4142 8.41406 14C8.41406 13.5858 8.07828 13.25 7.66406 13.25H7.16406ZM10.6641 13.25C10.2498 13.25 9.91406 13.5858 9.91406 14C9.91406 14.4142 10.2498 14.75 10.6641 14.75H17.1641C17.5783 14.75 17.9141 14.4142 17.9141 14C17.9141 13.5858 17.5783 13.25 17.1641 13.25H10.6641ZM7.16406 16.75C6.74985 16.75 6.41406 17.0858 6.41406 17.5C6.41406 17.9142 6.74985 18.25 7.16406 18.25H7.66406C8.07828 18.25 8.41406 17.9142 8.41406 17.5C8.41406 17.0858 8.07828 16.75 7.66406 16.75H7.16406ZM10.6641 16.75C10.2498 16.75 9.91406 17.0858 9.91406 17.5C9.91406 17.9142 10.2498 18.25 10.6641 18.25H17.1641C17.5783 18.25 17.9141 17.9142 17.9141 17.5C17.9141 17.0858 17.5783 16.75 17.1641 16.75H10.6641Z" fill="#1B3A6D"/>
</svg>