<svg width="24" height="24" viewBox="0 0 24 24" fill="none" xmlns="http://www.w3.org/2000/svg">
<g id="Bold / Essentional, UI / Close Circle">
<path id="Vector" d="M11.6464 11.2929L12 11.6464L12.3535 11.2929L14.3232 9.32322C14.4208 9.22559 14.5791 9.22559 14.6767 9.32322C14.7744 9.42085 14.7744 9.57915 14.6767 9.67678L12.7071 11.6464L12.3535 12L12.7071 12.3535L14.6767 14.3232C14.7743 14.4208 14.7743 14.5791 14.6767 14.6767C14.5791 14.7744 14.4208 14.7744 14.3232 14.6767L12.3535 12.7071L12 12.3535L11.6464 12.7071L9.67676 14.6768C9.57913 14.7744 9.42083 14.7744 9.3232 14.6768C9.22557 14.5791 9.22557 14.4208 9.3232 14.3232L11.2929 12.3535L11.6464 12L11.2929 11.6464L9.32318 9.67676C9.22555 9.57912 9.22555 9.42083 9.32318 9.3232C9.42081 9.22557 9.5791 9.22557 9.67673 9.3232L11.6464 11.2929ZM12 22.5C17.799 22.5 22.5 17.799 22.5 12C22.5 6.20101 17.799 1.5 12 1.5C6.20101 1.5 1.5 6.20101 1.5 12C1.5 17.799 6.20101 22.5 12 22.5Z" fill="#98A2B3" stroke="white" stroke-linecap="round"/>
</g>
</svg>
