<svg width="105" height="105" viewBox="0 0 105 105" fill="none" xmlns="http://www.w3.org/2000/svg">
<g clip-path="url(#clip0_9258_68610)">
<path d="M3.70804 52.4329C3.70804 25.413 25.6149 3.625 52.5159 3.625C79.4169 3.625 101.324 25.3969 101.324 52.4329C101.324 63.9022 97.3656 74.4496 90.7381 82.7781C81.5934 94.3119 67.6331 101.242 52.5149 101.242C37.3967 101.242 23.4182 94.2686 14.2846 82.7781C7.65713 74.4506 3.70703 63.9033 3.70703 52.4329H3.70804Z" fill="#D6DCE8"/>
<path d="M9.37187 91.0307C9.90392 89.8568 9.36683 88.4672 8.19289 87.9351C7.01894 87.4031 5.63641 87.9241 5.10435 89.098C4.5723 90.2719 5.08622 91.6706 6.26016 92.2017C7.43411 92.7337 8.83982 92.2037 9.37187 91.0297V91.0307Z" fill="#D6DCE8"/>
<path d="M12.8257 95.6262C13.1643 94.8795 12.8227 93.9947 12.076 93.6562C11.3293 93.3176 10.4486 93.6491 10.11 94.3968C9.77143 95.1435 10.0989 96.0343 10.8456 96.3729C11.5923 96.7114 12.4871 96.3739 12.8257 95.6272V95.6262Z" fill="#D6DCE8"/>
<path d="M95.6756 9.84964C96.515 8.87219 96.3901 7.38688 95.4126 6.54748C94.4352 5.70809 92.9619 5.81994 92.1225 6.79739C91.2831 7.77483 91.3839 9.26116 92.3614 10.1016C93.3388 10.941 94.8372 10.8271 95.6766 9.84964H95.6756Z" fill="#D6DCE8"/>
<path d="M97.6969 15.2258C98.231 14.603 98.1514 13.6588 97.5297 13.1238C96.9069 12.5897 95.9698 12.6612 95.4357 13.283C94.9016 13.9057 94.9651 14.8509 95.5879 15.386C96.2106 15.9201 97.1639 15.8475 97.6979 15.2258H97.6969Z" fill="#D6DCE8"/>
<path d="M12.3162 14.4746C13.1556 13.4972 13.0307 12.0119 12.0532 11.1725C11.0758 10.3331 9.60256 10.4449 8.76316 11.4224C7.92377 12.3998 8.02454 13.8862 9.00198 14.7266C9.97943 15.566 11.4778 15.4521 12.3172 14.4746H12.3162Z" fill="#D6DCE8"/>
<path d="M90.4947 27.8002V93.9421C90.4947 97.9769 87.2308 101.241 83.196 101.241H23.1697C19.135 101.241 15.8711 97.9769 15.8711 93.9421V10.9236C15.8711 6.88887 19.135 3.625 23.1697 3.625H64.81C65.1909 3.625 65.5647 3.65523 65.9305 3.70864C67.3413 3.92932 68.6684 4.56315 69.7355 5.54664L88.1296 22.4232C89.228 23.4299 89.9828 24.7419 90.3032 26.1678C90.4332 26.7018 90.4936 27.2429 90.4936 27.8002H90.4947Z" fill="white"/>
<path d="M90.3024 26.1701H69.4626C67.5117 26.1701 65.9297 24.588 65.9297 22.6371V3.71094C67.3404 3.93162 68.6675 4.56545 69.7347 5.54894L88.1288 22.4255C89.2272 23.4322 89.9819 24.7442 90.3024 26.1701Z" fill="url(#paint0_linear_9258_68610)"/>
<path d="M55.0566 11.5859H29.3688C29.2169 11.5859 29.0938 11.7091 29.0938 11.861V14.5243C29.0938 14.6763 29.2169 14.7994 29.3688 14.7994H55.0566C55.2085 14.7994 55.3317 14.6763 55.3317 14.5243V11.861C55.3317 11.7091 55.2085 11.5859 55.0566 11.5859Z" fill="#E0E4ED"/>
<path d="M44.5495 19.2031H29.3688C29.2169 19.2031 29.0938 19.3263 29.0938 19.4782V22.1415C29.0938 22.2934 29.2169 22.4166 29.3688 22.4166H44.5495C44.7014 22.4166 44.8246 22.2934 44.8246 22.1415V19.4782C44.8246 19.3263 44.7014 19.2031 44.5495 19.2031Z" fill="#E0E4ED"/>
<path d="M60.7066 86.8203H29.647C29.3414 86.8203 29.0938 87.068 29.0938 87.3735V89.5209C29.0938 89.8264 29.3414 90.0741 29.647 90.0741H60.7066C61.0121 90.0741 61.2598 89.8264 61.2598 89.5209V87.3735C61.2598 87.068 61.0121 86.8203 60.7066 86.8203Z" fill="#E0E4ED"/>
<path d="M67.5406 66.3485C60.3226 73.5605 48.6254 73.5605 41.4135 66.3485C34.1955 59.1305 34.1955 47.4395 41.4135 40.2215C48.6254 33.0095 60.3226 33.0095 67.5406 40.2215C74.7525 47.4395 74.7525 59.1305 67.5406 66.3485Z" fill="url(#paint1_linear_9258_68610)"/>
<path d="M37.5977 36.4063C28.2747 45.7294 28.2747 60.8425 37.5977 70.1656C46.9208 79.4886 62.0339 79.4886 71.357 70.1656C80.68 60.8425 80.68 45.7294 71.357 36.4063C62.0339 27.0833 46.9208 27.0833 37.5977 36.4063ZM66.6702 65.4788C59.9349 72.2142 49.0188 72.2142 42.2845 65.4788C35.5491 58.7435 35.5491 47.8284 42.2845 41.093C49.0198 34.3577 59.9349 34.3577 66.6702 41.093C73.4056 47.8284 73.4056 58.7445 66.6702 65.4788Z" fill="url(#paint2_linear_9258_68610)"/>
<path d="M78.6835 72.9746L74.1691 77.4889L68.9453 72.2722C70.6836 70.9602 72.2475 69.3741 73.4678 67.7578L78.6845 72.9746H78.6835Z" fill="url(#paint3_linear_9258_68610)"/>
<path d="M82.0639 72.2044L92.1679 82.3084C94.5611 84.7016 94.5611 88.5832 92.1679 90.9765C89.7746 93.3697 85.8931 93.3697 83.4998 90.9765L73.3958 80.8725C72.6753 80.152 72.6753 78.9831 73.3958 78.2626L79.454 72.2044C80.1745 71.4839 81.3434 71.4839 82.0639 72.2044Z" fill="url(#paint4_linear_9258_68610)"/>
<path d="M52.5652 53.8935C52.9864 53.8935 53.3281 54.2351 53.3281 54.6563C53.3281 56.3472 55.8845 56.3472 55.8845 54.6563C55.8845 54.2351 56.2261 53.8935 56.6473 53.8935C57.0686 53.8935 57.4102 54.2351 57.4102 54.6563C57.4102 58.3666 51.8024 58.3625 51.8024 54.6563C51.8024 54.2351 52.144 53.8935 52.5652 53.8935Z" fill="#AAB2C5"/>
<path d="M63.1389 50.9553H59.9738C59.5525 50.9553 59.2109 50.6137 59.2109 50.1925C59.2109 49.7713 59.5515 49.4297 59.9738 49.4297H63.1389C63.5601 49.4297 63.9017 49.7713 63.9017 50.1925C63.9017 50.6137 63.5611 50.9553 63.1389 50.9553Z" fill="#AAB2C5"/>
<path d="M49.2277 50.9553H46.0636C45.6424 50.9553 45.3008 50.6137 45.3008 50.1925C45.3008 49.7713 45.6424 49.4297 46.0636 49.4297H49.2277C49.6489 49.4297 49.9905 49.7713 49.9905 50.1925C49.9905 50.6137 49.6489 50.9553 49.2277 50.9553Z" fill="#AAB2C5"/>
<path d="M74.5804 32.2662C74.5804 32.8869 74.0766 33.3918 73.4548 33.3918C72.8331 33.3918 72.3242 32.8869 72.3242 32.2662C72.3242 31.6455 72.8281 31.1406 73.4548 31.1406C74.0816 31.1406 74.5804 31.6455 74.5804 32.2662Z" fill="#989FB0"/>
<path d="M78.4906 32.2662C78.4906 32.8869 77.9867 33.3918 77.365 33.3918C76.7432 33.3918 76.2344 32.8869 76.2344 32.2662C76.2344 31.6455 76.7382 31.1406 77.365 31.1406C77.9918 31.1406 78.4906 31.6455 78.4906 32.2662Z" fill="#989FB0"/>
<path d="M82.3968 32.2662C82.3968 32.8869 81.893 33.3918 81.2712 33.3918C80.6495 33.3918 80.1406 32.8869 80.1406 32.2662C80.1406 31.6455 80.6445 31.1406 81.2712 31.1406C81.898 31.1406 82.3968 31.6455 82.3968 32.2662Z" fill="#989FB0"/>
</g>
<defs>
<linearGradient id="paint0_linear_9258_68610" x1="65.9297" y1="14.9405" x2="90.3024" y2="14.9405" gradientUnits="userSpaceOnUse">
<stop stop-color="#D6DCE8"/>
<stop offset="1" stop-color="white"/>
</linearGradient>
<linearGradient id="paint1_linear_9258_68610" x1="36.0003" y1="53.285" x2="72.9498" y2="53.285" gradientUnits="userSpaceOnUse">
<stop stop-color="#D6DCE8"/>
<stop offset="1" stop-color="white"/>
</linearGradient>
<linearGradient id="paint2_linear_9258_68610" x1="30.6045" y1="53.2859" x2="78.3492" y2="53.2859" gradientUnits="userSpaceOnUse">
<stop stop-color="#989FB0"/>
<stop offset="1" stop-color="#AAB2C5"/>
</linearGradient>
<linearGradient id="paint3_linear_9258_68610" x1="68.9453" y1="72.6239" x2="78.6835" y2="72.6239" gradientUnits="userSpaceOnUse">
<stop stop-color="#989FB0"/>
<stop offset="1" stop-color="#AAB2C5"/>
</linearGradient>
<linearGradient id="paint4_linear_9258_68610" x1="72.8557" y1="82.2177" x2="93.9635" y2="82.2177" gradientUnits="userSpaceOnUse">
<stop stop-color="#989FB0"/>
<stop offset="1" stop-color="#AAB2C5"/>
</linearGradient>
<clipPath id="clip0_9258_68610">
<rect width="105" height="104.899" fill="white"/>
</clipPath>
</defs>
</svg>
