<svg width="27" height="27" viewBox="0 0 27 27" fill="none" xmlns="http://www.w3.org/2000/svg">
<path d="M9.38923 22.7769C10.3148 23.9534 11.7688 24.7116 13.4038 24.7116C15.0388 24.7116 16.4928 23.9534 17.4184 22.7769C14.7534 23.138 12.0542 23.138 9.38923 22.7769Z" fill="#FCFCFD"/>
<path d="M20.8307 10.4061V11.1809C20.8307 12.1107 21.0961 13.0198 21.5934 13.7935L22.812 15.6894C23.9251 17.4211 23.0754 19.775 21.1394 20.3226C16.0748 21.7552 10.7328 21.7552 5.66823 20.3226C3.73224 19.775 2.88247 17.4211 3.99559 15.6894L5.21424 13.7935C5.71154 13.0198 5.97691 12.1107 5.97691 11.1809V10.4061C5.97691 6.15186 9.30205 2.70312 13.4038 2.70312C17.5056 2.70312 20.8307 6.15186 20.8307 10.4061Z" fill="#FCFCFD"/>
</svg>
