<svg width="46" height="34" viewBox="0 0 46 34" fill="none" xmlns="http://www.w3.org/2000/svg">
<path d="M43 0H3C1.343 0 0 1.343 0 3V31C0 32.657 1.343 34 3 34H43C44.657 34 46 32.657 46 31V3C46 1.343 44.657 0 43 0Z" fill="#E6E6E6"/>
<path d="M29.2915 12.2031H26.4915C26.3005 12.2031 26.1375 12.3421 26.1075 12.5311L24.9755 19.7111C24.9535 19.8531 25.0625 19.9811 25.2065 19.9811H26.6435C26.7775 19.9811 26.8915 19.8831 26.9125 19.7511L27.2335 17.7151C27.2635 17.5261 27.4265 17.3871 27.6175 17.3871H28.5035C30.3475 17.3871 31.4125 16.4941 31.6905 14.7251C31.8155 13.9511 31.6955 13.3431 31.3335 12.9181C30.9345 12.4511 30.2285 12.2031 29.2915 12.2031ZM29.6145 14.8261C29.4615 15.8311 28.6935 15.8311 27.9515 15.8311H27.5295L27.8255 13.9541C27.8435 13.8411 27.9415 13.7571 28.0565 13.7571C28.6715 13.7571 29.2115 13.7321 29.4795 14.0451C29.6265 14.2181 29.6705 14.4731 29.6145 14.8261Z" fill="#009EE3"/>
<path d="M9.32078 12.2031H6.52078C6.32978 12.2031 6.16678 12.3421 6.13678 12.5311L5.00478 19.7111C4.98278 19.8531 5.09178 19.9811 5.23578 19.9811H6.57278C6.76378 19.9811 6.92678 19.8421 6.95678 19.6531L7.26278 17.7161C7.29278 17.5271 7.45578 17.3881 7.64678 17.3881H8.53278C10.3768 17.3881 11.4418 16.4951 11.7198 14.7261C11.8448 13.9521 11.7248 13.3441 11.3628 12.9191C10.9628 12.4511 10.2578 12.2031 9.32078 12.2031ZM9.64378 14.8261C9.49078 15.8311 8.72278 15.8311 7.98078 15.8311H7.55778L7.85378 13.9541C7.87178 13.8411 7.96978 13.7571 8.08478 13.7571H8.27878C8.78378 13.7571 9.26178 13.7571 9.50778 14.0451C9.65478 14.2181 9.69978 14.4731 9.64378 14.8261Z" fill="#113984"/>
<path d="M17.6897 14.7979H16.3487C16.2337 14.7979 16.1357 14.8819 16.1177 14.9949L16.0587 15.3699C15.9287 15.1809 15.6697 14.6719 14.3807 14.6719C12.8997 14.6719 11.6337 15.7949 11.3877 17.3689C11.2597 18.1539 11.4417 18.9049 11.8867 19.4289C12.2957 19.9099 12.8797 20.1109 13.5757 20.1109C14.7697 20.1109 15.4317 19.3439 15.4317 19.3439L15.3717 19.7169C15.3497 19.8589 15.4587 19.9869 15.6027 19.9869H16.8107C17.0017 19.9869 17.1647 19.8479 17.1947 19.6589L17.9197 15.0689C17.9417 14.9259 17.8327 14.7979 17.6897 14.7979ZM15.8207 17.4079C15.6917 18.1739 15.0827 18.6879 14.3077 18.6879C13.9187 18.6879 13.6077 18.5629 13.4077 18.3259C13.2097 18.0909 13.1347 17.7569 13.1977 17.3839C13.3187 16.6249 13.9367 16.0939 14.7007 16.0939C15.0817 16.0939 15.3907 16.2199 15.5947 16.4589C15.7987 16.6999 15.8797 17.0369 15.8207 17.4079Z" fill="#113984"/>
<path d="M37.6624 14.7979H36.3214C36.2064 14.7979 36.1084 14.8819 36.0904 14.9949L36.0314 15.3699C35.9014 15.1809 35.6424 14.6719 34.3534 14.6719C32.8724 14.6719 31.6064 15.7949 31.3604 17.3689C31.2324 18.1539 31.4144 18.9049 31.8594 19.4289C32.2684 19.9099 32.8524 20.1109 33.5484 20.1109C34.7424 20.1109 35.4044 19.3439 35.4044 19.3439L35.3444 19.7169C35.3224 19.8589 35.4314 19.9869 35.5754 19.9869H36.7834C36.9744 19.9869 37.1374 19.8479 37.1674 19.6589L37.8924 15.0689C37.9154 14.9259 37.8054 14.7979 37.6624 14.7979ZM35.7934 17.4079C35.6634 18.1739 35.0554 18.6879 34.2804 18.6879C33.8914 18.6879 33.5804 18.5629 33.3804 18.3259C33.1824 18.0909 33.1074 17.7569 33.1704 17.3839C33.2914 16.6249 33.9094 16.0939 34.6734 16.0939C35.0544 16.0939 35.3634 16.2199 35.5674 16.4589C35.7714 16.6999 35.8524 17.0369 35.7934 17.4079Z" fill="#009EE3"/>
<path d="M24.8308 14.7969H23.4828C23.3538 14.7969 23.2338 14.8609 23.1608 14.9679L21.3018 17.7059L20.5138 15.0749C20.4648 14.9099 20.3128 14.7969 20.1408 14.7969H18.8158C18.6558 14.7969 18.5428 14.9539 18.5948 15.1059L20.0788 19.4619L18.6828 21.4319C18.5728 21.5869 18.6838 21.7999 18.8728 21.7999H20.2188C20.3468 21.7999 20.4658 21.7369 20.5388 21.6329L25.0208 15.1639C25.1298 15.0079 25.0188 14.7969 24.8308 14.7969Z" fill="#113984"/>
<path d="M39.2417 12.3992L38.0927 19.7112C38.0707 19.8532 38.1797 19.9812 38.3237 19.9812H39.4797C39.6707 19.9812 39.8337 19.8422 39.8637 19.6532L40.9967 12.4732C41.0187 12.3312 40.9097 12.2032 40.7657 12.2032H39.4717C39.3577 12.2012 39.2597 12.2852 39.2417 12.3992Z" fill="#009EE3"/>
</svg>
