<svg width="69" height="69" viewBox="0 0 69 69" fill="none" xmlns="http://www.w3.org/2000/svg">
<rect x="5.37891" y="5" width="58.2422" height="58.2422" rx="29.1211" fill="#D1FADF"/>
<rect x="5.37891" y="5" width="58.2422" height="58.2422" rx="29.1211" stroke="#ECFDF3" stroke-width="9.70703"/>
<path d="M46.6348 33.001V34.1173C46.6333 36.7339 45.786 39.2798 44.2193 41.3755C42.6527 43.4712 40.4505 45.0043 37.9413 45.7462C35.4322 46.4881 32.7504 46.399 30.296 45.4922C27.8416 44.5854 25.746 42.9096 24.3219 40.7145C22.8978 38.5195 22.2213 35.9229 22.3935 33.312C22.5657 30.7011 23.5772 28.2158 25.2772 26.2268C26.9772 24.2377 29.2747 22.8515 31.8269 22.2749C34.3791 21.6983 37.0494 21.9621 39.4394 23.027M46.6348 24.4103L34.501 36.5562L30.8608 32.9161" stroke="#039855" stroke-width="2.42676" stroke-linecap="round" stroke-linejoin="round"/>
</svg>
