<svg width="46" height="34" viewBox="0 0 46 34" fill="none" xmlns="http://www.w3.org/2000/svg">
<path d="M43 0H3C2.20435 0 1.44129 0.316071 0.87868 0.87868C0.31607 1.44129 0 2.20435 0 3V31C0 31.7956 0.31607 32.5587 0.87868 33.1213C1.44129 33.6839 2.20435 34 3 34H43C43.7957 34 44.5587 33.6839 45.1213 33.1213C45.6839 32.5587 46 31.7956 46 31V3C46 2.20435 45.6839 1.44129 45.1213 0.87868C44.5587 0.316071 43.7957 0 43 0Z" fill="#009BF1"/>
<path fill-rule="evenodd" clip-rule="evenodd" d="M39.8759 17.2326C39.8759 14.8326 38.7139 12.9396 36.4919 12.9396C34.2699 12.9396 32.9099 14.8326 32.9099 17.2146C32.9099 20.0366 34.5039 21.4606 36.7919 21.4606C37.6967 21.4861 38.5926 21.2763 39.3919 20.8516V18.9766C38.6777 19.3305 37.8889 19.5075 37.0919 19.4926C36.1819 19.4926 35.3759 19.1736 35.2729 18.0676H39.8569C39.8569 17.9456 39.8759 17.4576 39.8759 17.2326ZM35.2449 16.3426C35.2449 15.2826 35.8919 14.8426 36.4819 14.8426C37.0539 14.8426 37.6639 15.2826 37.6639 16.3426H35.2449ZM29.2919 12.9396C28.6079 12.9368 27.9492 13.1987 27.4539 13.6706L27.3319 13.0896H25.2699V24.0206L27.6139 23.5206L27.6229 20.8676C28.0919 21.2486 28.6776 21.4569 29.2819 21.4576C30.9599 21.4576 32.4889 20.1086 32.4889 17.1366C32.4789 14.4206 30.9319 12.9396 29.2919 12.9396ZM28.7289 19.3986C28.5235 19.4109 28.3179 19.3777 28.1267 19.3015C27.9355 19.2253 27.7635 19.1078 27.6229 18.9576L27.6139 15.4796C27.7535 15.3244 27.9262 15.2026 28.1192 15.1232C28.3122 15.0437 28.5206 15.0087 28.7289 15.0206C29.5819 15.0206 30.1729 15.9766 30.1729 17.2046C30.1729 18.4606 29.5919 19.3986 28.7289 19.3986ZM22.0449 12.3856L24.3979 11.8796V9.97656L22.0449 10.4736V12.3856Z" fill="white"/>
<path d="M22.0449 13.1016H24.3979V21.3046H22.0449V13.1016Z" fill="white"/>
<path fill-rule="evenodd" clip-rule="evenodd" d="M19.5219 13.7905L19.3719 13.0965H17.3469V21.2965H19.6909V15.7405C19.9055 15.4912 20.1896 15.3115 20.5069 15.2246C20.8241 15.1377 21.1601 15.1474 21.4719 15.2525V13.0965C21.1175 12.9603 20.7261 12.9555 20.3685 13.0828C20.0108 13.21 19.7105 13.4611 19.5219 13.7905ZM14.8339 11.0625L12.5469 11.5495L12.5369 19.0585C12.5294 19.3786 12.5872 19.697 12.7069 19.994C12.8265 20.291 13.0055 20.5606 13.2328 20.7861C13.4602 21.0117 13.7311 21.1885 14.029 21.3058C14.327 21.4232 14.6458 21.4785 14.9659 21.4685C15.5292 21.4945 16.0909 21.3884 16.6059 21.1585V19.2585C16.3059 19.3805 14.8249 19.8115 14.8249 18.4245V15.0965H16.6059V13.0965H14.8249L14.8339 11.0625ZM8.49986 15.4775C8.49986 15.1125 8.79986 14.9715 9.29986 14.9715C10.1109 14.9887 10.9068 15.1941 11.6249 15.5715V13.3715C10.8849 13.0793 10.0954 12.9329 9.29986 12.9405C7.39986 12.9405 6.13086 13.9335 6.13086 15.5935C6.13086 18.1805 9.69286 17.7685 9.69286 18.8835C9.69286 19.3155 9.31786 19.4555 8.79286 19.4555C7.89301 19.4068 7.01672 19.1501 6.23286 18.7055V20.9375C7.0412 21.2871 7.91216 21.4688 8.79286 21.4715C10.7419 21.4715 12.0829 20.5055 12.0829 18.8275C12.0689 16.0305 8.49986 16.5275 8.49986 15.4775Z" fill="white"/>
</svg>
