<svg width="25" height="25" viewBox="0 0 25 25" fill="none" xmlns="http://www.w3.org/2000/svg">
<path d="M9.26195 21.0231C10.103 22.0923 11.4243 22.7812 12.9102 22.7812C14.396 22.7812 15.7173 22.0923 16.5584 21.0231C14.1366 21.3512 11.6837 21.3512 9.26195 21.0231Z" fill="#98A2B3"/>
<path d="M19.6593 9.78125V10.4854C19.6593 11.3303 19.9004 12.1564 20.3524 12.8595L21.4598 14.5824C22.4713 16.1561 21.6991 18.2952 19.9398 18.7928C15.3374 20.0947 10.4829 20.0947 5.88052 18.7928C4.1212 18.2952 3.34898 16.1561 4.36052 14.5824L5.46795 12.8595C5.91987 12.1564 6.16103 11.3303 6.16103 10.4854V9.78125C6.16103 5.91526 9.18271 2.78125 12.9102 2.78125C16.6376 2.78125 19.6593 5.91526 19.6593 9.78125Z" fill="#98A2B3"/>
</svg>
