<svg width="23" height="32" viewBox="0 0 23 32" fill="none" xmlns="http://www.w3.org/2000/svg">
<g id="Group">
<g id="Group_2">
<path id="Vector" d="M21.0859 9.29688V6.71875H22.6797L20.0234 2.59375L17.3672 6.71875H18.9609V9.29688" fill="#78B75B"/>
<path id="Vector_2" d="M18.9609 22.7031V25.2812H17.3672L20.0234 29.4062L22.6797 25.2812H21.0859V22.7031" fill="#78B75B"/>
<path id="Vector_3" d="M8.86719 19.6094H9.92969C10.5167 19.6094 10.9922 19.1479 10.9922 18.5781V10.8438C10.9922 9.70473 10.0407 8.78125 8.86719 8.78125H2.49219C1.31866 8.78125 0.367188 9.70473 0.367188 10.8438V18.5781C0.367188 19.1479 0.842656 19.6094 1.42969 19.6094H2.49219" fill="#78B75B"/>
</g>
<path id="Vector_4" d="M4.08594 8.78125V9.29688C4.08594 10.1513 4.79941 10.8438 5.67969 10.8438C6.55997 10.8438 7.27344 10.1513 7.27344 9.29688V8.78125" fill="#EFBE9A"/>
<path id="Vector_5" d="M2.49219 19.6094H1.42969C0.842656 19.6094 0.367188 19.1479 0.367188 18.5781V17.5469H2.49219V19.6094Z" fill="#EFBE9A"/>
<path id="Vector_6" d="M9.92969 19.6094H8.86719V17.5469H10.9922V18.5781C10.9922 19.1479 10.5167 19.6094 9.92969 19.6094Z" fill="#EFBE9A"/>
<path id="Vector_7" d="M2.49219 17.5469H8.86719V29.4062H2.49219V17.5469Z" fill="#4D5D7A"/>
<path id="Vector_8" d="M5.67969 29.4062H2.49219C1.90516 29.4062 1.42969 29.8677 1.42969 30.4375V31.4688H5.67969V29.4062Z" fill="#78B75B"/>
<path id="Vector_9" d="M5.67969 29.4062H8.86719C9.45422 29.4062 9.92969 29.8677 9.92969 30.4375V31.4688H5.67969V29.4062Z" fill="#78B75B"/>
<path id="Vector_10" d="M3.55469 4.65625H1.96094C1.37391 4.65625 0.898438 5.11773 0.898438 5.6875C0.898438 6.25727 1.37391 6.71875 1.96094 6.71875H3.55469" fill="#DB9B7C"/>
<path id="Vector_11" d="M7.80469 4.65625H9.39844C9.98547 4.65625 10.4609 5.11773 10.4609 5.6875C10.4609 6.25727 9.98547 6.71875 9.39844 6.71875H7.80469" fill="#DB9B7C"/>
<path id="Vector_12" d="M8.33594 2.59375V6.20312C8.33594 7.62677 7.14647 8.78125 5.67969 8.78125C4.21291 8.78125 3.02344 7.62677 3.02344 6.20312V2.59375" fill="#EFBE9A"/>
<path id="Vector_13" d="M7.27344 2.59375C7.27344 3.73277 5.25947 4.65625 4.08594 4.65625H1.96094V2.59375C1.96094 1.45473 2.91241 0.53125 4.08594 0.53125H7.27344C8.44697 0.53125 9.39844 1.45473 9.39844 2.59375V4.65625C8.22491 4.65625 7.27344 3.73277 7.27344 2.59375Z" fill="#976947"/>
<g id="Group_3">
<path id="Vector_14" d="M5.14844 20.125H6.21094V29.4062H5.14844V20.125Z" fill="#8892A0"/>
</g>
<path id="Vector_15" d="M16.8359 1.04688V0.015625H11.5234V1.04688H12.5859V30.9531H11.5234V31.9844H16.8359V30.9531H13.6484V29.9219H15.7734V28.8906H13.6484V27.8594H15.7734V26.8281H13.6484V25.7969H15.7734V24.7656H13.6484V23.7344H15.7734V22.7031H13.6484V21.6719H15.7734V20.6406H13.6484V19.6094H15.7734V18.5781H13.6484V17.5469H15.7734V16.5156H13.6484V15.4844H15.7734V14.4531H13.6484V13.4219H15.7734V12.3906H13.6484V11.3594H15.7734V10.3281H13.6484V9.29688H15.7734V8.26562H13.6484V7.23438H15.7734V6.20312H13.6484V5.17188H15.7734V4.14062H13.6484V3.10938H15.7734V2.07812H13.6484V1.04688H16.8359Z" fill="#4472B2"/>
<g id="Group_4">
<path id="Vector_16" d="M18.4297 10.3281H19.4922V11.3594H18.4297V10.3281Z" fill="#96CC7F"/>
</g>
<g id="Group_5">
<path id="Vector_17" d="M18.4297 12.3906H19.4922V13.4219H18.4297V12.3906Z" fill="#96CC7F"/>
</g>
<g id="Group_6">
<path id="Vector_18" d="M18.4297 14.4531H19.4922V15.4844H18.4297V14.4531Z" fill="#96CC7F"/>
</g>
<g id="Group_7">
<path id="Vector_19" d="M20.5547 10.3281H21.6172V11.3594H20.5547V10.3281Z" fill="#96CC7F"/>
</g>
<g id="Group_8">
<path id="Vector_20" d="M20.5547 12.3906H21.6172V13.4219H20.5547V12.3906Z" fill="#96CC7F"/>
</g>
<g id="Group_9">
<path id="Vector_21" d="M20.5547 14.4531H21.6172V15.4844H20.5547V14.4531Z" fill="#96CC7F"/>
</g>
<g id="Group_10">
<path id="Vector_22" d="M20.5547 20.6406H21.6172V21.6719H20.5547V20.6406Z" fill="#96CC7F"/>
</g>
<g id="Group_11">
<path id="Vector_23" d="M20.5547 18.5781H21.6172V19.6094H20.5547V18.5781Z" fill="#96CC7F"/>
</g>
<g id="Group_12">
<path id="Vector_24" d="M20.5547 16.5156H21.6172V17.5469H20.5547V16.5156Z" fill="#96CC7F"/>
</g>
<g id="Group_13">
<path id="Vector_25" d="M18.4297 20.6406H19.4922V21.6719H18.4297V20.6406Z" fill="#96CC7F"/>
</g>
<g id="Group_14">
<path id="Vector_26" d="M18.4297 18.5781H19.4922V19.6094H18.4297V18.5781Z" fill="#96CC7F"/>
</g>
<g id="Group_15">
<path id="Vector_27" d="M18.4297 16.5156H19.4922V17.5469H18.4297V16.5156Z" fill="#96CC7F"/>
</g>
</g>
</svg>
