<svg width="29" height="28" viewBox="0 0 29 28" fill="none" xmlns="http://www.w3.org/2000/svg">
<g id="fi_6848957">
<path id="Vector" d="M25.0234 22.75H2.27344C2.04137 22.75 1.81881 22.6578 1.65472 22.4937C1.49062 22.3296 1.39844 22.1071 1.39844 21.875V1.75C1.39844 1.51794 1.49062 1.29538 1.65472 1.13128C1.81881 0.967187 2.04137 0.875 2.27344 0.875H24.1484C24.3805 0.875 24.6031 0.967187 24.7672 1.13128C24.9313 1.29538 25.0234 1.51794 25.0234 1.75V22.75Z" fill="#78A0D4"/>
<path id="Vector_2" d="M24.1484 0.875H4.46094V2.48544C4.46094 7.85993 6.59595 13.0143 10.3963 16.8146C14.1966 20.615 19.351 22.75 24.7255 22.75H25.0234V1.75C25.0234 1.51794 24.9313 1.29538 24.7672 1.13128C24.6031 0.967187 24.3805 0.875 24.1484 0.875Z" fill="#93BEE5"/>
<path id="Vector_3" d="M25.0234 1.75L23.2734 4.8125V18.8125L25.0234 21.875" fill="#686868"/>
<path id="Vector_4" d="M1.39844 1.75L3.14844 4.8125V18.8125L1.39844 21.875" fill="#474747"/>
<path id="Vector_5" d="M21.9609 27.125C25.1021 27.125 27.6484 24.5786 27.6484 21.4375C27.6484 18.2964 25.1021 15.75 21.9609 15.75C18.8198 15.75 16.2734 18.2964 16.2734 21.4375C16.2734 24.5786 18.8198 27.125 21.9609 27.125Z" fill="#E2E7F6"/>
<path id="Vector_6" d="M21.9605 15.75C21.158 15.7501 20.3648 15.9206 19.6332 16.2503C18.9016 16.58 18.2484 17.0613 17.7167 17.6623C17.1236 18.8967 16.9963 20.3037 17.3584 21.6245C17.7204 22.9452 18.5474 24.0907 19.6871 24.85C20.8268 25.6094 22.2024 25.9314 23.5607 25.7569C24.919 25.5823 26.1686 24.923 27.0792 23.9002C27.4984 23.0341 27.6906 22.0756 27.6377 21.1148C27.5848 20.1541 27.2885 19.2225 26.7768 18.4076C26.265 17.5928 25.5545 16.9214 24.712 16.4565C23.8695 15.9916 22.9227 15.7485 21.9605 15.75Z" fill="#F2F2F2"/>
<path id="Vector_7" d="M19.7734 10.0625C19.7734 8.32202 19.082 6.65282 17.8513 5.42211C16.6206 4.1914 14.9514 3.5 13.2109 3.5C11.4705 3.5 9.80126 4.1914 8.57055 5.42211C7.33984 6.65282 6.64844 8.32202 6.64844 10.0625L13.2109 12.25L19.7734 10.0625Z" fill="#F2F2F2"/>
<g id="Group">
<path id="Vector_8" d="M13.6484 3.52188C13.5032 3.51269 13.3588 3.5 13.2109 3.5C13.0631 3.5 12.9187 3.51269 12.7734 3.52188V5.25H13.6484V3.52188Z" fill="#939393"/>
<path id="Vector_9" d="M7.54492 6.76106L8.52755 7.74369L9.14617 7.12506L8.04455 6.02344C7.86137 6.25762 7.69444 6.50407 7.54492 6.76106Z" fill="#939393"/>
<path id="Vector_10" d="M18.379 6.02344L17.2773 7.12506L17.896 7.74369L18.8786 6.76106C18.7291 6.50407 18.5621 6.25762 18.379 6.02344Z" fill="#939393"/>
</g>
<path id="Vector_11" d="M25.0234 20.5625H22.8359V18.375C22.8359 18.1429 22.7438 17.9204 22.5797 17.7563C22.4156 17.5922 22.193 17.5 21.9609 17.5C21.7289 17.5 21.5063 17.5922 21.3422 17.7563C21.1781 17.9204 21.0859 18.1429 21.0859 18.375V20.5625H18.8984C18.6664 20.5625 18.4438 20.6547 18.2797 20.8188C18.1156 20.9829 18.0234 21.2054 18.0234 21.4375C18.0234 21.6696 18.1156 21.8921 18.2797 22.0562C18.4438 22.2203 18.6664 22.3125 18.8984 22.3125H21.0859V24.5C21.0859 24.7321 21.1781 24.9546 21.3422 25.1187C21.5063 25.2828 21.7289 25.375 21.9609 25.375C22.193 25.375 22.4156 25.2828 22.5797 25.1187C22.7438 24.9546 22.8359 24.7321 22.8359 24.5V22.3125H25.0234C25.2555 22.3125 25.4781 22.2203 25.6422 22.0562C25.8063 21.8921 25.8984 21.6696 25.8984 21.4375C25.8984 21.2054 25.8063 20.9829 25.6422 20.8188C25.4781 20.6547 25.2555 20.5625 25.0234 20.5625Z" fill="#78A0D4"/>
<path id="Vector_12" d="M16.725 9.73131L17.5737 9.51869L17.1362 7.76869C17.1125 7.67408 17.0579 7.5901 16.981 7.5301C16.9041 7.47009 16.8094 7.4375 16.7118 7.4375H14.9618V8.3125H15.8014L12.7695 12.1026L13.2118 12.25L13.9762 11.9954L16.5014 8.8375L16.725 9.73131Z" fill="#686868"/>
</g>
</svg>
