<svg width="18" height="18" viewBox="0 0 18 18" fill="none" xmlns="http://www.w3.org/2000/svg">
<g id="Bold / Call / Phone Calling ">
<path id="Vector" d="M11.5189 10.8046L11.1963 11.1443C11.1963 11.1443 10.4295 11.9516 8.33638 9.74793C6.24325 7.54426 7.01008 6.73693 7.01008 6.73693L7.21324 6.52304C7.71372 5.99613 7.7609 5.15018 7.32425 4.53261L6.43106 3.26931C5.89062 2.50494 4.8463 2.40396 4.22686 3.05612L3.11506 4.22664C2.80791 4.55001 2.60209 4.96919 2.62705 5.4342C2.6909 6.62386 3.19926 9.18349 6.03588 12.1699C9.04402 15.3369 11.8665 15.4628 13.0207 15.3489C13.3858 15.3128 13.7033 15.1159 13.9591 14.8466L14.9654 13.7872C15.6446 13.0721 15.4531 11.8462 14.584 11.346L13.2307 10.5671C12.6601 10.2386 11.9649 10.3351 11.5189 10.8046Z" fill="white"/>
<g id="Vector_2">
<path d="M9.89149 1.82894C9.93838 1.53931 10.2122 1.34284 10.5018 1.38973C10.5197 1.39316 10.5774 1.40394 10.6076 1.41067C10.6681 1.42413 10.7524 1.44486 10.8575 1.47548C11.0677 1.53671 11.3614 1.63758 11.7139 1.79917C12.4196 2.12271 13.3587 2.68867 14.3332 3.66319C15.3078 4.63772 15.8737 5.57684 16.1972 6.28253C16.3588 6.63501 16.4597 6.92869 16.5209 7.13891C16.5516 7.24403 16.5723 7.32834 16.5857 7.38878C16.5925 7.419 16.5974 7.44327 16.6008 7.4612L16.6049 7.4833C16.6518 7.77293 16.4571 8.05804 16.1675 8.10493C15.8787 8.15169 15.6066 7.95616 15.5586 7.66789C15.5571 7.66016 15.553 7.63936 15.5487 7.61975C15.5399 7.58052 15.5248 7.51831 15.5008 7.43603C15.4529 7.27146 15.3696 7.02685 15.2314 6.72533C14.9553 6.12303 14.4587 5.29131 13.5819 4.4145C12.7051 3.53768 11.8734 3.04114 11.2711 2.76501C10.9696 2.62677 10.725 2.54352 10.5604 2.49558C10.4781 2.47162 10.3747 2.44788 10.3355 2.43915C10.0472 2.39111 9.84473 2.11775 9.89149 1.82894Z" fill="white"/>
<path fill-rule="evenodd" clip-rule="evenodd" d="M10.0517 4.27231C10.1323 3.9902 10.4264 3.82685 10.7085 3.90745L10.5626 4.41826C10.7085 3.90745 10.7085 3.90745 10.7085 3.90745L10.7095 3.90774L10.7106 3.90806L10.713 3.90875L10.7185 3.91038L10.7325 3.91475C10.7432 3.91817 10.7565 3.92262 10.7724 3.92826C10.8042 3.93955 10.8463 3.9556 10.8978 3.9777C11.001 4.02193 11.142 4.09023 11.3152 4.19273C11.6619 4.39792 12.1352 4.73876 12.6912 5.29478C13.2473 5.8508 13.5881 6.3241 13.7933 6.6708C13.8958 6.844 13.9641 6.985 14.0083 7.08819C14.0304 7.13977 14.0465 7.18181 14.0578 7.21362C14.0634 7.22953 14.0679 7.24286 14.0713 7.25354L14.0756 7.26756L14.0773 7.27305L14.078 7.27541L14.0783 7.2765C14.0783 7.2765 14.0786 7.27752 13.5678 7.42346L14.0786 7.27752C14.1592 7.55963 13.9958 7.85367 13.7137 7.93427C13.434 8.01419 13.1425 7.85428 13.059 7.57657L13.0564 7.56893C13.0527 7.55829 13.0448 7.53734 13.0317 7.50673C13.0055 7.44558 12.958 7.34554 12.8789 7.21196C12.721 6.9451 12.4357 6.54188 11.9399 6.04608C11.4441 5.55028 11.0409 5.26503 10.7741 5.10709C10.6405 5.02803 10.5404 4.9805 10.4793 4.95429C10.4487 4.94118 10.4277 4.93336 10.4171 4.92959L10.4094 4.92697C10.1317 4.84347 9.97183 4.55203 10.0517 4.27231Z" fill="white"/>
</g>
</g>
</svg>
