<svg width="14" height="14" viewBox="0 0 14 14" fill="none" xmlns="http://www.w3.org/2000/svg">
<g id="Bold / Essentional, UI / Pin">
<path id="Vector" d="M9.45504 2.82556L11.1712 4.5417C12.354 5.72447 12.9453 6.31585 12.8149 6.96173C12.6845 7.6076 11.9099 7.92315 10.3609 8.55425L8.9081 9.14612C8.48086 9.32019 8.26723 9.40722 8.10418 9.55723C8.04866 9.60831 7.99797 9.66439 7.95275 9.72476C7.81991 9.90208 7.75482 10.1234 7.62464 10.566C7.31693 11.6122 7.16307 12.1353 6.8032 12.3145C6.68607 12.3728 6.55787 12.4055 6.42712 12.4104C6.0254 12.4254 5.63984 12.0399 4.86871 11.2687L4.124 10.524L1.95242 12.6958C1.77252 12.8757 1.48084 12.8757 1.30094 12.6958C1.12104 12.5159 1.12104 12.2242 1.30094 12.0443L3.47252 9.87254L2.72802 9.12803C1.95689 8.35691 1.57133 7.97134 1.58638 7.56963C1.59128 7.43888 1.62397 7.31067 1.68228 7.19354C1.86143 6.83367 2.38454 6.67981 3.43076 6.3721C3.87336 6.24192 4.09466 6.17684 4.27199 6.044C4.33236 5.99877 4.38844 5.94808 4.43951 5.89257C4.58952 5.72951 4.67655 5.51589 4.85062 5.08864L5.44249 3.63586C6.07359 2.0868 6.38914 1.31226 7.03502 1.18184C7.68089 1.05141 8.27227 1.64279 9.45504 2.82556Z" fill="#98A2B3"/>
</g>
</svg>
