<svg width="32" height="32" viewBox="0 0 32 32" fill="none" xmlns="http://www.w3.org/2000/svg">
<g id="Outline / Arrows / Restart">
<path id="Vector (Stroke)" fill-rule="evenodd" clip-rule="evenodd" d="M24.58 4.84375C25.116 4.84375 25.5504 5.27824 25.5504 5.8142V11.3039C25.5504 11.8399 25.116 12.2744 24.58 12.2744H19.0903C18.5543 12.2744 18.1198 11.8399 18.1198 11.3039C18.1198 10.768 18.5543 10.3335 19.0903 10.3335H22.1445C18.4627 7.43106 13.1089 7.6783 9.712 11.0752C6.04846 14.7387 6.04846 20.6785 9.712 24.342C13.3755 28.0055 19.3153 28.0055 22.9788 24.342C25.4333 21.8876 26.2446 18.4109 25.408 15.2784C25.2697 14.7606 25.5774 14.2287 26.0952 14.0904C26.6131 13.9521 27.1449 14.2598 27.2832 14.7776C28.2912 18.552 27.3154 22.7503 24.3513 25.7144C19.9297 30.136 12.7611 30.136 8.33957 25.7144C3.91806 21.2929 3.91806 14.1243 8.33957 9.70276C12.5216 5.52072 19.1613 5.29422 23.6095 9.02325V5.8142C23.6095 5.27824 24.044 4.84375 24.58 4.84375Z" fill="white"/>
</g>
</svg>
