<svg width="19" height="22" viewBox="0 0 19 22" fill="none" xmlns="http://www.w3.org/2000/svg">
<rect x="0.5" y="0.6875" width="18.2046" height="21.2493" rx="4" fill="#98A2B3"/>
<path d="M10.1866 8.92337C9.64145 7.47497 9.09493 6.02657 8.5511 4.57772C8.52052 4.49585 8.47553 4.46796 8.39007 4.47021C8.1935 4.47561 7.99648 4.47921 7.80036 4.46931C7.68566 4.46347 7.63213 4.5026 7.59165 4.60966C7.05412 6.03107 6.51165 7.45113 5.97232 8.87164C5.95793 8.90942 5.92239 8.94811 5.95433 9.00208C6.2602 9.00208 6.56923 8.99669 6.8778 9.00478C6.9835 9.00748 7.02489 8.967 7.05457 8.87434C7.10315 8.725 7.16883 8.58151 7.21876 8.43307C7.24664 8.3503 7.29208 8.32466 7.37844 8.32556C7.84445 8.32961 8.3109 8.32961 8.77691 8.32601C8.85743 8.32511 8.89701 8.3521 8.92265 8.42722C8.97708 8.58646 9.04005 8.74299 9.09853 8.90043C9.11832 8.95305 9.13091 9.00388 9.20828 9.00298C9.53799 8.99983 9.86726 9.00163 10.2078 9.00163C10.1979 8.96475 10.1943 8.94361 10.1866 8.92337ZM7.65328 7.30404C7.79002 6.94329 7.92586 6.58524 8.0752 6.19255C8.22184 6.57984 8.35588 6.93429 8.49623 7.30404H7.65328Z" fill="#FEFEFE"/>
<path d="M10.4811 6.52532C10.4811 6.40162 10.4883 6.27747 10.4788 6.15467C10.4707 6.04582 10.5148 6.02153 10.6138 6.02513C10.8045 6.03187 10.9961 6.02018 11.1864 6.02962C11.3078 6.03547 11.3407 5.99049 11.3357 5.87579C11.3276 5.68507 11.3375 5.4939 11.3321 5.30317C11.3294 5.20422 11.3573 5.16148 11.4639 5.16418C11.7167 5.17003 11.9695 5.16958 12.2223 5.16418C12.3195 5.16238 12.3491 5.19927 12.3469 5.29193C12.3419 5.47725 12.3568 5.66348 12.3419 5.84745C12.3298 6.00398 12.3901 6.03907 12.5327 6.02962C12.7117 6.01793 12.8921 6.03142 13.0715 6.02513C13.17 6.02198 13.2119 6.04762 13.2087 6.15557C13.2015 6.40792 13.2033 6.66116 13.2083 6.91351C13.2101 7.00707 13.1808 7.04305 13.0841 7.04035C12.8763 7.03451 12.6685 7.0417 12.4607 7.03721C12.3734 7.03541 12.3419 7.06599 12.3437 7.15371C12.3482 7.35567 12.3397 7.55809 12.3469 7.76006C12.3509 7.86531 12.3141 7.89455 12.2119 7.89185C11.965 7.8851 11.7176 7.88375 11.4707 7.8923C11.3537 7.89635 11.3276 7.85137 11.3312 7.74611C11.3375 7.56664 11.3227 7.38581 11.3362 7.20723C11.347 7.05925 11.2894 7.02686 11.1549 7.03541C10.9813 7.04665 10.8063 7.02911 10.6331 7.04125C10.5 7.0507 10.468 6.99987 10.4784 6.87842C10.4883 6.76147 10.4806 6.64272 10.4806 6.52487L10.4811 6.52532Z" fill="#FEFEFE"/>
<path d="M14.4732 4.22251C14.4732 4.22251 14.5144 4.30482 14.5555 4.42828C14.5967 4.49001 14.6173 4.5929 14.6378 4.69578C14.679 4.79867 14.679 4.92213 14.6996 5.06617C14.7201 5.35425 14.679 5.70406 14.5555 6.07445C14.4321 6.44484 14.2263 6.85638 13.9382 7.24735C13.3621 8.02928 12.4978 8.81121 11.4278 9.38738C11.1603 9.53142 10.8722 9.65488 10.6047 9.79892C10.3166 9.92238 10.008 10.0253 9.69932 10.1282C9.082 10.3133 8.44411 10.4162 7.78564 10.4368C7.12717 10.4368 6.4687 10.3545 5.85139 10.0664C5.25465 9.79892 4.7608 9.24333 4.5756 8.6466C4.41099 7.98813 4.53445 7.39139 4.7608 6.85638C4.98715 6.34195 5.31638 5.90983 5.64562 5.53944C5.97485 5.16906 6.30409 4.88098 6.63332 4.65463C6.79794 4.53116 6.94198 4.42828 7.08602 4.34597C7.23006 4.24308 7.35352 4.16077 7.47699 4.09904C7.72391 3.955 7.90911 3.85212 8.05315 3.79039C8.19719 3.72865 8.25892 3.6875 8.25892 3.6875C8.25892 3.6875 8.19719 3.72865 8.05315 3.81096C7.92968 3.89327 7.72391 3.99616 7.49756 4.1402C7.3741 4.22251 7.25064 4.30481 7.12717 4.4077C6.98313 4.51059 6.83909 4.61347 6.69505 4.73694C6.3864 4.98386 6.07774 5.29252 5.76908 5.64233C5.46042 5.99214 5.17234 6.42426 4.96657 6.91812C4.7608 7.41197 4.67849 7.98813 4.82253 8.52313C4.98715 9.07872 5.39869 9.53141 5.95427 9.77834C6.50986 10.0458 7.12717 10.1282 7.74449 10.1282C8.3618 10.1282 8.9997 10.0253 9.59643 9.84007C9.90509 9.75776 10.1932 9.65488 10.4607 9.55199C10.7488 9.42853 11.0163 9.30507 11.2838 9.16103C11.7982 8.87294 12.292 8.58486 12.7036 8.23505C13.1151 7.88524 13.4855 7.51485 13.7736 7.14446C14.0617 6.77408 14.288 6.38311 14.4321 6.0333C14.5761 5.68349 14.6378 5.33367 14.6378 5.06617C14.6378 4.92213 14.6378 4.79867 14.6173 4.69578C14.5967 4.5929 14.5967 4.49001 14.5555 4.42828C14.4938 4.28424 14.4732 4.22251 14.4732 4.22251Z" fill="#FEFEFE"/>
<rect x="4.5" y="12.4375" width="10" height="1.5" rx="0.75" fill="#FEFEFE"/>
<rect x="4.5" y="14.9375" width="10" height="1.5" rx="0.75" fill="#FEFEFE"/>
<rect x="4.5" y="17.4375" width="10" height="1.5" rx="0.75" fill="#FEFEFE"/>
</svg>
