<svg width="19" height="22" viewBox="0 0 19 22" fill="none" xmlns="http://www.w3.org/2000/svg">
<rect width="18.2046" height="21.2493" rx="4" fill="#9C292E"/>
<path d="M9.68662 8.23587C9.14145 6.78747 8.59493 5.33907 8.0511 3.89022C8.02052 3.80835 7.97553 3.78046 7.89007 3.78271C7.6935 3.78811 7.49648 3.79171 7.30036 3.78181C7.18566 3.77597 7.13213 3.8151 7.09165 3.92216C6.55412 5.34357 6.01165 6.76363 5.47232 8.18414C5.45793 8.22192 5.42239 8.26061 5.45433 8.31458C5.7602 8.31458 6.06923 8.30919 6.3778 8.31728C6.4835 8.31998 6.52489 8.2795 6.55457 8.18684C6.60315 8.0375 6.66883 7.89401 6.71876 7.74557C6.74664 7.6628 6.79208 7.63716 6.87844 7.63806C7.34445 7.64211 7.8109 7.64211 8.27691 7.63851C8.35743 7.63761 8.39701 7.6646 8.42265 7.73972C8.47708 7.89896 8.54005 8.05549 8.59853 8.21293C8.61832 8.26555 8.63091 8.31638 8.70828 8.31548C9.03799 8.31233 9.36726 8.31413 9.70777 8.31413C9.69787 8.27725 9.69427 8.25611 9.68662 8.23587ZM7.15328 6.61654C7.29002 6.25579 7.42586 5.89774 7.5752 5.50505C7.72184 5.89234 7.85588 6.24679 7.99623 6.61654H7.15328Z" fill="#FEFEFE"/>
<path d="M9.98106 5.83782C9.98106 5.71412 9.98826 5.58997 9.97882 5.46717C9.97072 5.35832 10.0148 5.33403 10.1138 5.33763C10.3045 5.34437 10.4961 5.33268 10.6864 5.34212C10.8078 5.34797 10.8407 5.30299 10.8357 5.18829C10.8276 4.99757 10.8375 4.8064 10.8321 4.61567C10.8294 4.51672 10.8573 4.47398 10.9639 4.47668C11.2167 4.48253 11.4695 4.48208 11.7223 4.47668C11.8195 4.47488 11.8491 4.51177 11.8469 4.60443C11.8419 4.78975 11.8568 4.97598 11.8419 5.15995C11.8298 5.31648 11.8901 5.35157 12.0327 5.34212C12.2117 5.33043 12.3921 5.34392 12.5715 5.33763C12.67 5.33448 12.7119 5.36012 12.7087 5.46807C12.7015 5.72042 12.7033 5.97366 12.7083 6.22601C12.7101 6.31957 12.6808 6.35555 12.5841 6.35285C12.3763 6.34701 12.1685 6.3542 11.9607 6.34971C11.8734 6.34791 11.8419 6.37849 11.8437 6.46621C11.8482 6.66817 11.8397 6.87059 11.8469 7.07256C11.8509 7.17781 11.8141 7.20705 11.7119 7.20435C11.465 7.1976 11.2176 7.19625 10.9707 7.2048C10.8537 7.20885 10.8276 7.16387 10.8312 7.05861C10.8375 6.87914 10.8227 6.69831 10.8362 6.51973C10.847 6.37175 10.7894 6.33936 10.6549 6.34791C10.4813 6.35915 10.3063 6.34161 10.1331 6.35375C9.99996 6.3632 9.96802 6.31237 9.97836 6.19092C9.98826 6.07397 9.98061 5.95522 9.98061 5.83737L9.98106 5.83782Z" fill="#FEFEFE"/>
<path d="M13.9732 3.53501C13.9732 3.53501 14.0144 3.61732 14.0555 3.74078C14.0967 3.80251 14.1173 3.9054 14.1378 4.00828C14.179 4.11117 14.179 4.23463 14.1996 4.37867C14.2201 4.66675 14.179 5.01656 14.0555 5.38695C13.9321 5.75734 13.7263 6.16888 13.4382 6.55985C12.8621 7.34178 11.9978 8.12371 10.9278 8.69988C10.6603 8.84392 10.3722 8.96738 10.1047 9.11142C9.81663 9.23488 9.50798 9.33777 9.19932 9.44065C8.582 9.62585 7.94411 9.72873 7.28564 9.74931C6.62717 9.74931 5.9687 9.667 5.35139 9.37892C4.75465 9.11142 4.2608 8.55583 4.0756 7.9591C3.91099 7.30063 4.03445 6.70389 4.2608 6.16888C4.48715 5.65445 4.81638 5.22233 5.14562 4.85194C5.47485 4.48156 5.80409 4.19348 6.13332 3.96713C6.29794 3.84366 6.44198 3.74078 6.58602 3.65847C6.73006 3.55558 6.85352 3.47327 6.97699 3.41154C7.22391 3.2675 7.40911 3.16462 7.55315 3.10289C7.69719 3.04115 7.75892 3 7.75892 3C7.75892 3 7.69719 3.04115 7.55315 3.12346C7.42968 3.20577 7.22391 3.30866 6.99756 3.4527C6.8741 3.53501 6.75064 3.61731 6.62717 3.7202C6.48313 3.82309 6.33909 3.92597 6.19505 4.04944C5.8864 4.29636 5.57774 4.60502 5.26908 4.95483C4.96042 5.30464 4.67234 5.73676 4.46657 6.23062C4.2608 6.72447 4.17849 7.30063 4.32253 7.83563C4.48715 8.39122 4.89869 8.84391 5.45427 9.09084C6.00986 9.35834 6.62717 9.44065 7.24449 9.44065C7.8618 9.44065 8.4997 9.33777 9.09643 9.15257C9.40509 9.07026 9.69317 8.96738 9.96067 8.86449C10.2488 8.74103 10.5163 8.61757 10.7838 8.47353C11.2982 8.18545 11.792 7.89736 12.2036 7.54755C12.6151 7.19774 12.9855 6.82735 13.2736 6.45696C13.5617 6.08658 13.788 5.69561 13.9321 5.3458C14.0761 4.99599 14.1378 4.64617 14.1378 4.37867C14.1378 4.23463 14.1378 4.11117 14.1173 4.00828C14.0967 3.9054 14.0967 3.80251 14.0555 3.74078C13.9938 3.59674 13.9732 3.53501 13.9732 3.53501Z" fill="#FEFEFE"/>
<rect x="4" y="11.75" width="10" height="1.5" rx="0.75" fill="#FEFEFE"/>
<rect x="4" y="14.25" width="10" height="1.5" rx="0.75" fill="#FEFEFE"/>
<rect x="4" y="16.75" width="10" height="1.5" rx="0.75" fill="#FEFEFE"/>
</svg>
