<svg width="28" height="46" viewBox="0 0 28 46" fill="none" xmlns="http://www.w3.org/2000/svg">
<rect x="1.28125" y="1.05469" width="24.8906" height="43.8906" rx="4.57031" fill="white" stroke="#313E8B" stroke-width="2.10938"/>
<rect x="4.42188" y="28.9531" width="18.6102" height="2.93617" rx="1.40625" fill="url(#paint0_linear_7675_119676)"/>
<rect x="4.42188" y="34.8203" width="18.6102" height="2.93617" rx="1.40625" fill="url(#paint1_linear_7675_119676)"/>
<path d="M6.97656 0H20.4766V1.80552C20.4766 2.97049 19.5322 3.91489 18.3672 3.91489H9.08594C7.92096 3.91489 6.97656 2.97049 6.97656 1.80552V0Z" fill="#313E8B"/>
<rect x="4.42188" y="8.52344" width="18.6114" height="16.1247" rx="3" fill="url(#paint2_linear_7675_119676)"/>
<path d="M7.16754 21.6719H5.70087L8.37125 14.0866H10.0676L12.7416 21.6719H11.275L9.24904 15.6422H9.18978L7.16754 21.6719ZM7.21569 18.6978H11.2157V19.8015H7.21569V18.6978ZM13.3931 21.6719V14.0866H14.7338V16.9237H14.7894C14.8585 16.7854 14.956 16.6385 15.082 16.483C15.2079 16.3249 15.3783 16.1904 15.5931 16.0793C15.8079 15.9657 16.082 15.9089 16.4153 15.9089C16.8548 15.9089 17.2511 16.0212 17.6042 16.2459C17.9598 16.4681 18.2412 16.7978 18.4487 17.2348C18.6585 17.6694 18.7635 18.2027 18.7635 18.8348C18.7635 19.4595 18.661 19.9904 18.4561 20.4274C18.2511 20.8645 17.9721 21.1978 17.619 21.4274C17.2659 21.6571 16.8659 21.7719 16.419 21.7719C16.0931 21.7719 15.8227 21.7176 15.6079 21.6089C15.3931 21.5003 15.2202 21.3694 15.0894 21.2163C14.961 21.0608 14.861 20.9138 14.7894 20.7756H14.7116V21.6719H13.3931ZM14.7079 18.8274C14.7079 19.1953 14.7597 19.5175 14.8635 19.7941C14.9696 20.0706 15.1215 20.2867 15.319 20.4422C15.519 20.5953 15.761 20.6719 16.0449 20.6719C16.3412 20.6719 16.5894 20.5929 16.7894 20.4348C16.9894 20.2743 17.14 20.0558 17.2412 19.7793C17.3449 19.5003 17.3968 19.183 17.3968 18.8274C17.3968 18.4743 17.3462 18.1607 17.2449 17.8867C17.1437 17.6126 16.9931 17.3978 16.7931 17.2422C16.5931 17.0867 16.3437 17.0089 16.0449 17.0089C15.7585 17.0089 15.5153 17.0842 15.3153 17.2348C15.1153 17.3854 14.9635 17.5965 14.8597 17.8682C14.7585 18.1398 14.7079 18.4595 14.7079 18.8274Z" fill="white"/>
<defs>
<linearGradient id="paint0_linear_7675_119676" x1="6.12686" y1="29.0606" x2="10.5315" y2="37.0022" gradientUnits="userSpaceOnUse">
<stop stop-color="#313E8B"/>
<stop offset="1" stop-color="#AF2127"/>
</linearGradient>
<linearGradient id="paint1_linear_7675_119676" x1="6.12686" y1="34.9278" x2="10.5314" y2="42.8694" gradientUnits="userSpaceOnUse">
<stop stop-color="#313E8B"/>
<stop offset="1" stop-color="#AF2127"/>
</linearGradient>
<linearGradient id="paint2_linear_7675_119676" x1="9.68553" y1="8.52344" x2="13.6276" y2="24.6726" gradientUnits="userSpaceOnUse">
<stop stop-color="#313E8B"/>
<stop offset="1" stop-color="#8D2145"/>
</linearGradient>
</defs>
</svg>
