<svg width="24" height="25" viewBox="0 0 24 25" fill="none" xmlns="http://www.w3.org/2000/svg">
<path d="M16.5189 17.2826C16.6939 17.1461 16.8526 16.9873 17.1701 16.6699L21.1275 12.7125C21.2231 12.6168 21.1793 12.452 21.0515 12.4077C20.5844 12.2456 19.9767 11.9413 19.4083 11.3729C18.8399 10.8045 18.5356 10.1969 18.3736 9.72974C18.3292 9.60191 18.1644 9.55812 18.0688 9.65379L14.1114 13.6112C13.7939 13.9286 13.6352 14.0874 13.4987 14.2624C13.3377 14.4688 13.1996 14.6922 13.087 14.9285C12.9915 15.1289 12.9205 15.3418 12.7786 15.7677L12.5951 16.318L12.3034 17.1931L12.0299 18.0135C11.9601 18.2231 12.0146 18.4542 12.1708 18.6104C12.3271 18.7666 12.5581 18.8212 12.7677 18.7513L13.5882 18.4778L14.4632 18.1861L15.0135 18.0027L15.0136 18.0027C15.4394 17.8607 15.6524 17.7897 15.8527 17.6943C16.0891 17.5816 16.3124 17.4436 16.5189 17.2826Z" fill="white"/>
<path d="M22.3665 11.4734C23.2112 10.6288 23.2112 9.25937 22.3665 8.41473C21.5219 7.57009 20.1525 7.57009 19.3078 8.41473L19.1806 8.54196C19.0578 8.66473 19.0022 8.83621 19.0329 9.00711C19.0522 9.11461 19.0879 9.27178 19.153 9.45932C19.2831 9.83439 19.5288 10.3267 19.9917 10.7896C20.4545 11.2524 20.9469 11.4981 21.3219 11.6283C21.5095 11.6933 21.6666 11.7291 21.7741 11.7484C21.945 11.7791 22.1165 11.7234 22.2393 11.6007L22.3665 11.4734Z" fill="white"/>
<path fill-rule="evenodd" clip-rule="evenodd" d="M4.17157 3.95282C3 5.1244 3 7.01001 3 10.7812V14.7812C3 18.5525 3 20.4381 4.17157 21.6097C5.34315 22.7812 7.22876 22.7812 11 22.7812H13C16.7712 22.7812 18.6569 22.7812 19.8284 21.6097C20.9812 20.4569 20.9997 18.6128 21 14.9613L18.1817 17.7796C17.9119 18.0496 17.691 18.2707 17.4415 18.4653C17.1491 18.6933 16.8328 18.8888 16.4981 19.0483C16.2124 19.1845 15.9159 19.2832 15.5538 19.4038L13.2421 20.1743C12.4935 20.4239 11.6682 20.229 11.1102 19.6711C10.5523 19.1131 10.3574 18.2878 10.607 17.5392L10.8805 16.7187L11.3556 15.2934L11.3775 15.2276C11.4981 14.8654 11.5968 14.5689 11.7329 14.2832C11.8924 13.9485 12.0879 13.6322 12.316 13.3398C12.5106 13.0903 12.7317 12.8693 13.0017 12.5996L17.0081 8.59313L18.12 7.48129L18.2472 7.35407C18.9626 6.63866 19.9003 6.28106 20.838 6.28125C20.6867 5.2507 20.3941 4.51852 19.8284 3.95282C18.6569 2.78125 16.7712 2.78125 13 2.78125H11C7.22876 2.78125 5.34315 2.78125 4.17157 3.95282ZM7.25 9.78125C7.25 9.36704 7.58579 9.03125 8 9.03125H14.5C14.9142 9.03125 15.25 9.36704 15.25 9.78125C15.25 10.1955 14.9142 10.5312 14.5 10.5312H8C7.58579 10.5312 7.25 10.1955 7.25 9.78125ZM7.25 13.7812C7.25 13.367 7.58579 13.0312 8 13.0312H10.5C10.9142 13.0312 11.25 13.367 11.25 13.7812C11.25 14.1955 10.9142 14.5312 10.5 14.5312H8C7.58579 14.5312 7.25 14.1955 7.25 13.7812ZM7.25 17.7812C7.25 17.367 7.58579 17.0312 8 17.0312H9.5C9.91421 17.0312 10.25 17.367 10.25 17.7812C10.25 18.1955 9.91421 18.5312 9.5 18.5312H8C7.58579 18.5312 7.25 18.1955 7.25 17.7812Z" fill="white"/>
</svg>
