<svg width="25" height="25" viewBox="0 0 25 25" fill="none" xmlns="http://www.w3.org/2000/svg">
<g id="Bold / Medicine / Heart Pulse">
<path id="Vector" fill-rule="evenodd" clip-rule="evenodd" d="M9.46173 19.652C6.51943 17.2526 2.5 13.2892 2.5 9.54169C2.5 3.63075 8.00016 0.943887 12.5 5.78002C16.9998 0.943887 22.5 3.63056 22.5 9.54165C22.5 13.2892 18.4806 17.2527 15.5383 19.652C14.2063 20.7382 13.5403 21.2813 12.5 21.2812C11.4597 21.2812 10.7937 20.7382 9.46173 19.652ZM10.5932 11.0275C10.6827 10.8996 10.7571 10.7935 10.8233 10.7026C10.8793 10.8001 10.9418 10.9136 11.017 11.0504L12.7273 14.16C12.8933 14.4621 13.0562 14.7583 13.2197 14.9733C13.3947 15.2034 13.7023 15.5186 14.1954 15.5279C14.6884 15.5372 15.0077 15.2337 15.1912 15.0104C15.3627 14.8017 15.5365 14.5117 15.7138 14.2161L15.7692 14.1238C15.99 13.7558 16.129 13.5257 16.252 13.3595C16.3654 13.2063 16.4309 13.1564 16.4798 13.1287C16.5286 13.101 16.6052 13.0706 16.7948 13.0522C17.0006 13.0322 17.2694 13.0314 17.6986 13.0314H18.5C18.9142 13.0314 19.25 12.6956 19.25 12.2814C19.25 11.8671 18.9142 11.5314 18.5 11.5314L17.6662 11.5314C17.2791 11.5313 16.9367 11.5313 16.6497 11.5592C16.3385 11.5895 16.0357 11.6564 15.7407 11.8234C15.4457 11.9904 15.2325 12.2157 15.0465 12.4669C14.8749 12.6987 14.6988 12.9923 14.4996 13.3243L14.4521 13.4035C14.3654 13.548 14.293 13.6685 14.2284 13.7718C14.1676 13.6661 14.0999 13.5431 14.0186 13.3954L12.3092 10.2872C12.1551 10.0069 12.0015 9.72751 11.8458 9.52272C11.6756 9.299 11.3839 9.00319 10.9164 8.97795C10.4489 8.95271 10.127 9.21539 9.93373 9.41948C9.75683 9.60631 9.5741 9.8675 9.39069 10.1297L9.08131 10.5717C8.85416 10.8961 8.71175 11.0983 8.58848 11.2442C8.475 11.3784 8.41193 11.4224 8.36538 11.4466C8.31882 11.4708 8.24663 11.4973 8.07159 11.5133C7.88144 11.5306 7.63413 11.5314 7.23803 11.5314H6.5C6.08579 11.5314 5.75 11.8671 5.75 12.2814C5.75 12.6956 6.08579 13.0314 6.5 13.0314L7.26812 13.0314C7.62509 13.0314 7.94153 13.0314 8.20801 13.0071C8.49707 12.9807 8.77904 12.9224 9.05809 12.7771C9.33714 12.6318 9.54661 12.4342 9.734 12.2125C9.90676 12.0082 10.0882 11.7489 10.2929 11.4565L10.5932 11.0275Z" fill="white"/>
</g>
</svg>
