<svg width="25" height="25" viewBox="0 0 25 25" fill="none" xmlns="http://www.w3.org/2000/svg">
<g id="Bold / Video, Audio, Sound / Gallery">
<g id="Vector">
<path d="M18.5 8.78125C18.5 9.88582 17.6046 10.7813 16.5 10.7813C15.3954 10.7813 14.5 9.88582 14.5 8.78125C14.5 7.67668 15.3954 6.78125 16.5 6.78125C17.6046 6.78125 18.5 7.67668 18.5 8.78125Z" fill="white"/>
<path fill-rule="evenodd" clip-rule="evenodd" d="M12.4426 2.03125H12.5574C14.8658 2.03124 16.6748 2.03123 18.0863 2.221C19.531 2.41524 20.6711 2.82058 21.5659 3.71539C22.4607 4.6102 22.866 5.75022 23.0603 7.19496C23.25 8.60644 23.25 10.4155 23.25 12.7239V12.8122C23.25 14.7209 23.25 16.2835 23.1463 17.5558C23.0422 18.8343 22.8287 19.9027 22.3509 20.79C22.1401 21.1813 21.8812 21.5318 21.5659 21.8471C20.6711 22.7419 19.531 23.1473 18.0863 23.3415C16.6748 23.5313 14.8658 23.5313 12.5574 23.5313L12.4426 23.5312C10.1342 23.5313 8.32519 23.5313 6.91371 23.3415C5.46897 23.1473 4.32895 22.7419 3.43414 21.8471C2.64086 21.0538 2.2312 20.0665 2.01335 18.8417C1.79935 17.6385 1.7602 16.1416 1.75207 14.2827C1.75 13.8099 1.75 13.3098 1.75 12.7823V12.7239C1.74999 10.4155 1.74998 8.60644 1.93975 7.19496C2.13399 5.75022 2.53933 4.6102 3.43414 3.71539C4.32895 2.82058 5.46897 2.41524 6.91371 2.221C8.32519 2.03123 10.1342 2.03124 12.4426 2.03125ZM7.11358 3.70762C5.83517 3.8795 5.06445 4.20639 4.4948 4.77605C3.92514 5.3457 3.59825 6.11642 3.42637 7.39483C3.25159 8.69481 3.25 10.403 3.25 12.7812C3.25 13.0718 3.25 13.3527 3.25034 13.6247L4.25148 12.7488C5.16275 11.9514 6.53617 11.9971 7.39238 12.8533L11.6821 17.1431C12.3693 17.8303 13.4511 17.924 14.2463 17.3652L14.5445 17.1556C15.6887 16.3515 17.2368 16.4446 18.2764 17.3802L21.1068 19.9276C21.3917 19.3292 21.5609 18.5431 21.6513 17.434C21.7494 16.2295 21.75 14.7271 21.75 12.7813C21.75 10.403 21.7484 8.69481 21.5736 7.39483C21.4018 6.11642 21.0749 5.3457 20.5052 4.77605C19.9355 4.20639 19.1648 3.8795 17.8864 3.70762C16.5864 3.53284 14.8782 3.53125 12.5 3.53125C10.1218 3.53125 8.41356 3.53284 7.11358 3.70762Z" fill="white"/>
</g>
</g>
</svg>
