<svg width="54" height="53" viewBox="0 0 54 53" fill="none" xmlns="http://www.w3.org/2000/svg">
<g clip-path="url(#clip0_8379_47196)">
<path d="M43.9023 3.70312V5.07818V14.8408V16.2158H49.927V3.70312H43.9023Z" fill="#DB4C4A"/>
<path d="M43.9023 16.2188V17.5937V27.3564V28.7314H49.927V16.2188H43.9023Z" fill="#759AE9"/>
<path d="M4.07422 0.859375H45.4555V52.8594H4.07422V0.859375Z" fill="#D8E15A"/>
<path d="M29.2461 0.859375H45.4552V52.8594H29.2461V0.859375Z" fill="#B3C43C"/>
<path d="M4.07422 0.859375H13.0372V52.8594H4.07422V0.859375Z" fill="#514D7C"/>
<path d="M19.5234 42.2969H38.9657V45.3438H19.5234V42.2969Z" fill="#514D7C"/>
<path d="M29.2478 17.2256V28.2675H35.3946V37.1806H29.0149C28.2034 37.1806 27.4094 37.0252 26.6724 36.7297C25.9353 36.4341 25.2573 35.9995 24.6776 35.4429C23.4872 34.2993 22.8164 32.7332 22.8164 31.0991V14.3941C22.8164 13.5765 22.9841 12.7772 23.3009 12.0378C23.6176 11.2995 24.0824 10.621 24.6776 10.0492C25.836 8.93609 27.3928 8.3125 29.0149 8.3125H35.3946V17.2256H29.2478Z" fill="#A3B431"/>
<path d="M29.2461 42.2969H38.9672V45.3438H29.2461V42.2969Z" fill="#31335B"/>
<path d="M29.2461 8.3125H35.3929V17.2256H29.2461V8.3125Z" fill="#829427"/>
<path d="M29.2461 28.2656H35.3929V37.1788H29.2461V28.2656Z" fill="#829427"/>
</g>
<defs>
<clipPath id="clip0_8379_47196">
<rect width="53" height="52" fill="white" transform="translate(0.5 0.859375)"/>
</clipPath>
</defs>
</svg>
