<svg width="52" height="52" viewBox="0 0 52 52" fill="none" xmlns="http://www.w3.org/2000/svg">
<g clip-path="url(#clip0_8863_75343)">
<path d="M26 52C40.3594 52 52 40.3594 52 26C52 11.6406 40.3594 0 26 0C11.6406 0 0 11.6406 0 26C0 40.3594 11.6406 52 26 52Z" fill="#FD853A"/>
<path d="M52.0023 25.9987C52.0023 25.5414 51.9902 25.0871 51.9669 24.6357L37.008 9.67686C36.1406 8.67423 34.8599 8.03906 33.4301 8.03906H32.4937C30.1719 8.03906 28.2421 9.7122 27.8407 11.9183H27.6362L24.2419 8.03906H22.1448V10.4636H22.1335L20.1938 8.03906H17.8918V10.4636H17.8806L15.9409 8.03906H13.8438V18.9054C13.8438 19.9993 14.3479 20.981 15.1352 21.6301L17.3958 23.9098V25.9797H17.3906C16.5138 25.9797 15.7964 26.697 15.7964 27.5739V42.9735C15.7964 43.4246 15.9868 43.8327 16.2908 44.1232L24.1346 51.9313C24.7515 51.9751 25.3741 51.9987 26.0023 51.9987C40.3617 51.9987 52.0023 40.3581 52.0023 25.9987Z" fill="#EC4A0A"/>
<path d="M22.1446 8.03906V16.5839C22.1446 17.1204 21.7056 17.5593 21.1691 17.5593C20.6327 17.5593 20.1937 17.1204 20.1937 16.5839V8.03906H17.8917V16.5839C17.8917 17.1204 17.4528 17.5593 16.9163 17.5593C16.3799 17.5593 15.9409 17.1204 15.9409 16.5839V8.03906H13.8438V18.9054C13.8438 20.8475 15.4327 22.4366 17.3749 22.4366H17.3957V26.2665H20.69V22.4366H20.7108C22.6529 22.4366 24.2419 20.8476 24.2419 18.9054V8.03906H22.1446Z" fill="white"/>
<path d="M24.238 8.03906V18.9052C24.238 20.8471 22.6486 22.4366 20.7067 22.4366H20.6854V26.2665H19.0391V8.03906H20.1898V16.5835C20.1898 17.1198 20.6285 17.5585 21.1648 17.5585C21.702 17.5585 22.1408 17.1198 22.1408 16.5835V8.03906H24.238Z" fill="#FEC84B"/>
<path d="M33.4251 8.03906H32.4887C29.8759 8.03906 27.7578 10.1571 27.7578 12.7699V17.9008C27.7578 20.0578 29.2842 21.8744 31.3098 22.3271V26.2665H34.604V22.3271C36.6297 21.8744 38.156 20.0578 38.156 17.9008V12.7699C38.156 10.1571 36.0379 8.03906 33.4251 8.03906Z" fill="white"/>
<path d="M38.1609 12.7698V17.9008C38.1609 20.057 36.6345 21.8739 34.6083 22.3269V26.2665H32.9609V8.03906H33.4291C36.0423 8.03906 38.1609 10.1566 38.1609 12.7698Z" fill="#FEC84B"/>
<path d="M20.6957 44.5724H17.3911C16.5143 44.5724 15.7969 43.855 15.7969 42.9782V27.5786C15.7969 26.7018 16.5143 25.9844 17.3911 25.9844H20.6957C21.5725 25.9844 22.29 26.7018 22.29 27.5786V42.9782C22.2899 43.8551 21.5725 44.5724 20.6957 44.5724Z" fill="#12B76A"/>
<path d="M22.285 27.5789V42.9788C22.285 43.8553 21.568 44.5723 20.6905 44.5723H19.0391V25.9844H20.6905C21.568 25.9844 22.285 26.7024 22.285 27.5789Z" fill="#039855"/>
<path d="M34.6098 44.5724H31.3052C30.4284 44.5724 29.7109 43.855 29.7109 42.9782V27.5786C29.7109 26.7018 30.4284 25.9844 31.3052 25.9844H34.6098C35.4866 25.9844 36.204 26.7018 36.204 27.5786V42.9782C36.2039 43.8551 35.4866 44.5724 34.6098 44.5724Z" fill="#12B76A"/>
<path d="M36.2079 27.5789V42.9788C36.2079 43.8553 35.4909 44.5723 34.6134 44.5723H32.9609V25.9844H34.6134C35.4909 25.9844 36.2079 26.7024 36.2079 27.5789Z" fill="#039855"/>
</g>
<defs>
<clipPath id="clip0_8863_75343">
<rect width="52" height="52" fill="white"/>
</clipPath>
</defs>
</svg>
