<svg width="25" height="25" viewBox="0 0 25 25" fill="none" xmlns="http://www.w3.org/2000/svg">
<g id="Bold / Essentional, UI / Menu Dots ">
<g id="Vector">
<path d="M7.5 12.3594C7.5 13.4639 6.60457 14.3594 5.5 14.3594C4.39543 14.3594 3.5 13.4639 3.5 12.3594C3.5 11.2548 4.39543 10.3594 5.5 10.3594C6.60457 10.3594 7.5 11.2548 7.5 12.3594Z" fill="white"/>
<path d="M14.5 12.3594C14.5 13.4639 13.6046 14.3594 12.5 14.3594C11.3954 14.3594 10.5 13.4639 10.5 12.3594C10.5 11.2548 11.3954 10.3594 12.5 10.3594C13.6046 10.3594 14.5 11.2548 14.5 12.3594Z" fill="white"/>
<path d="M21.5 12.3594C21.5 13.4639 20.6046 14.3594 19.5 14.3594C18.3954 14.3594 17.5 13.4639 17.5 12.3594C17.5 11.2548 18.3954 10.3594 19.5 10.3594C20.6046 10.3594 21.5 11.2548 21.5 12.3594Z" fill="white"/>
</g>
</g>
</svg>
