<svg width="25" height="25" viewBox="0 0 25 25" fill="none" xmlns="http://www.w3.org/2000/svg">
<path fill-rule="evenodd" clip-rule="evenodd" d="M3.96447 3.74572C2.5 5.21018 2.5 7.5672 2.5 12.2812C2.5 16.9953 2.5 19.3523 3.96447 20.8168C5.42893 22.2812 7.78595 22.2812 12.5 22.2812C17.214 22.2813 19.5711 22.2813 21.0355 20.8168C22.5 19.3523 22.5 16.9953 22.5 12.2813C22.5 7.5672 22.5 5.21018 21.0355 3.74572C19.5711 2.28125 17.214 2.28125 12.5 2.28125C7.78595 2.28125 5.42893 2.28125 3.96447 3.74572ZM11.0431 7.79849C11.3288 7.49855 11.3172 7.02381 11.0172 6.73815C10.7173 6.45248 10.2426 6.46406 9.9569 6.76401L7.64286 9.19375L7.0431 8.56401C6.75744 8.26406 6.28271 8.25248 5.98276 8.53815C5.68281 8.82381 5.67123 9.29854 5.9569 9.59849L7.09976 10.7985C7.24131 10.9471 7.4376 11.0313 7.64286 11.0313C7.84812 11.0313 8.0444 10.9471 8.18596 10.7985L11.0431 7.79849ZM13.5 8.53125C13.0858 8.53125 12.75 8.86704 12.75 9.28125C12.75 9.69547 13.0858 10.0313 13.5 10.0313L18.5 10.0313C18.9142 10.0313 19.25 9.69547 19.25 9.28125C19.25 8.86704 18.9142 8.53125 18.5 8.53125L13.5 8.53125ZM11.0431 14.7985C11.3288 14.4985 11.3172 14.0238 11.0172 13.7381C10.7173 13.4525 10.2426 13.4641 9.9569 13.764L7.64286 16.1938L7.0431 15.564C6.75744 15.2641 6.28271 15.2525 5.98276 15.5381C5.68281 15.8238 5.67123 16.2985 5.9569 16.5985L7.09976 17.7985C7.24131 17.9471 7.4376 18.0313 7.64286 18.0313C7.84812 18.0313 8.0444 17.9471 8.18596 17.7985L11.0431 14.7985ZM13.5 15.5313C13.0858 15.5313 12.75 15.867 12.75 16.2813C12.75 16.6955 13.0858 17.0313 13.5 17.0313H18.5C18.9142 17.0313 19.25 16.6955 19.25 16.2813C19.25 15.867 18.9142 15.5313 18.5 15.5313H13.5Z" fill="white"/>
</svg>

