<svg width="24" height="25" viewBox="0 0 24 25" fill="none" xmlns="http://www.w3.org/2000/svg">
<path fill-rule="evenodd" clip-rule="evenodd" d="M4.17157 3.40595C3 4.57752 3 6.46314 3 10.2344L3 14.2344C3 18.0056 3 19.8912 4.17157 21.0628C5.34315 22.2344 7.22876 22.2344 11 22.2344H13C16.7712 22.2344 18.6569 22.2344 19.8284 21.0628C21 19.8912 21 18.0056 21 14.2344L21 10.2344C21 6.46314 21 4.57752 19.8284 3.40595C18.6569 2.23438 16.7712 2.23438 13 2.23438L11 2.23438C7.22876 2.23438 5.34315 2.23438 4.17157 3.40595ZM12.75 6.23438C12.75 5.82016 12.4142 5.48438 12 5.48438C11.5858 5.48438 11.25 5.82016 11.25 6.23438V7.48438L9.99997 7.48438C9.58575 7.48438 9.24997 7.82016 9.24997 8.23438C9.24997 8.64859 9.58575 8.98438 9.99997 8.98438L11.25 8.98438L11.25 10.2344C11.25 10.6486 11.5858 10.9844 12 10.9844C12.4142 10.9844 12.75 10.6486 12.75 10.2344L12.75 8.98438L14 8.98438C14.4142 8.98438 14.75 8.64859 14.75 8.23438C14.75 7.82016 14.4142 7.48438 14 7.48438H12.75V6.23438ZM8 13.4844C7.58579 13.4844 7.25 13.8202 7.25 14.2344C7.25 14.6486 7.58579 14.9844 8 14.9844L16 14.9844C16.4142 14.9844 16.75 14.6486 16.75 14.2344C16.75 13.8202 16.4142 13.4844 16 13.4844L8 13.4844ZM9 17.4844C8.58579 17.4844 8.25 17.8202 8.25 18.2344C8.25 18.6486 8.58579 18.9844 9 18.9844L15 18.9844C15.4142 18.9844 15.75 18.6486 15.75 18.2344C15.75 17.8202 15.4142 17.4844 15 17.4844H9Z" fill="white"/>
</svg>
