<svg width="25" height="25" viewBox="0 0 25 25" fill="none" xmlns="http://www.w3.org/2000/svg">
<path fill-rule="evenodd" clip-rule="evenodd" d="M12.5 2.28125C8.72876 2.28125 6.84315 2.28125 5.67157 3.45282C4.60848 4.51592 4.51004 6.16695 4.50093 9.28125H3.5C2.94772 9.28125 2.5 9.72897 2.5 10.2812V11.2812C2.5 11.596 2.64819 11.8924 2.9 12.0813L4.5 13.2812C4.50911 16.3956 4.60848 18.0466 5.67157 19.1097C5.91375 19.3519 6.18645 19.544 6.5 19.6964V21.2812C6.5 21.8334 6.94772 22.2812 7.5 22.2812H9C9.55228 22.2812 10 21.8334 10 21.2812V20.2628C10.7271 20.2812 11.5542 20.2812 12.5 20.2812C13.4458 20.2813 14.2729 20.2813 15 20.2628V21.2812C15 21.8334 15.4477 22.2812 16 22.2812H17.5C18.0523 22.2812 18.5 21.8334 18.5 21.2812V19.6964C18.8136 19.544 19.0862 19.3519 19.3284 19.1097C20.3915 18.0466 20.4909 16.3956 20.5 13.2813L22.1 12.0813C22.3518 11.8924 22.5 11.596 22.5 11.2813V10.2813C22.5 9.72897 22.0523 9.28125 21.5 9.28125H20.4991C20.49 6.16695 20.3915 4.51592 19.3284 3.45282C18.1569 2.28125 16.2712 2.28125 12.5 2.28125ZM6 9.78125C6 11.1955 6 11.9026 6.43934 12.3419C6.87868 12.7812 7.58579 12.7812 9 12.7813H12.5H16C17.4142 12.7813 18.1213 12.7813 18.5607 12.3419C19 11.9026 19 11.1955 19 9.78125V7.28125C19 5.86704 19 5.15993 18.5607 4.72059C18.1213 4.28125 17.4142 4.28125 16 4.28125H12.5L9 4.28125C7.58579 4.28125 6.87868 4.28125 6.43934 4.72059C6 5.15993 6 5.86704 6 7.28125L6 9.78125ZM6.75 16.2812C6.75 15.867 7.08579 15.5312 7.5 15.5312L9 15.5313C9.41421 15.5313 9.75 15.867 9.75 16.2812C9.75 16.6955 9.41421 17.0312 9 17.0312H7.5C7.08579 17.0312 6.75 16.6955 6.75 16.2812ZM18.25 16.2812C18.25 15.867 17.9142 15.5313 17.5 15.5313H16C15.5858 15.5313 15.25 15.867 15.25 16.2812C15.25 16.6955 15.5858 17.0312 16 17.0312H17.5C17.9142 17.0312 18.25 16.6955 18.25 16.2812Z" fill="white"/>
</svg>
