<svg width="25" height="25" viewBox="0 0 25 25" fill="none" xmlns="http://www.w3.org/2000/svg">
<g id="Bold / Money / Money Bag">
<path id="Union" fill-rule="evenodd" clip-rule="evenodd" d="M12.552 1.53125H12.448C11.5495 1.53122 10.8003 1.5312 10.2055 1.61116C9.57773 1.69557 9.01093 1.88124 8.55546 2.33671C8.09999 2.79218 7.91432 3.35898 7.82991 3.98677C7.77259 4.41314 7.75637 5.43272 7.75179 6.30691C5.72954 6.37296 4.51536 6.60903 3.67157 7.45282C2.5 8.6244 2.5 10.51 2.5 14.2813C2.5 18.0525 2.5 19.9381 3.67157 21.1097C4.84314 22.2813 6.72876 22.2813 10.5 22.2813L14.5 22.2813C18.2712 22.2813 20.1569 22.2813 21.3284 21.1097C22.5 19.9381 22.5 18.0525 22.5 14.2813C22.5 10.51 22.5 8.6244 21.3284 7.45282C20.4846 6.60903 19.2705 6.37296 17.2482 6.30691C17.2436 5.43272 17.2274 4.41314 17.1701 3.98677C17.0857 3.35898 16.9 2.79218 16.4445 2.33671C15.9891 1.88124 15.4223 1.69557 14.7945 1.61116C14.1997 1.5312 13.4505 1.53122 12.552 1.53125ZM15.7479 6.28313C15.7434 5.43648 15.729 4.52532 15.6835 4.18665C15.6214 3.72518 15.5142 3.52769 15.3839 3.39737C15.2536 3.26705 15.0561 3.15983 14.5946 3.09779C14.1116 3.03285 13.464 3.03125 12.5 3.03125C11.536 3.03125 10.8884 3.03285 10.4054 3.09779C9.94393 3.15983 9.74644 3.26705 9.61612 3.39737C9.4858 3.52769 9.37858 3.72518 9.31654 4.18665C9.271 4.52532 9.25661 5.43648 9.25208 6.28313C9.6435 6.28125 10.0588 6.28125 10.5 6.28125L14.5 6.28125C14.9412 6.28125 15.3565 6.28125 15.7479 6.28313ZM12.5 9.53125C12.9142 9.53125 13.25 9.86704 13.25 10.2813V10.2915C14.3388 10.5658 15.25 11.4243 15.25 12.6146C15.25 13.0288 14.9142 13.3646 14.5 13.3646C14.0858 13.3646 13.75 13.0288 13.75 12.6146C13.75 12.2306 13.3242 11.6979 12.5 11.6979C11.6758 11.6979 11.25 12.2306 11.25 12.6146C11.25 12.9986 11.6758 13.5313 12.5 13.5313C13.8849 13.5313 15.25 14.491 15.25 15.9479C15.25 17.1383 14.3388 17.9967 13.25 18.271V18.2813C13.25 18.6955 12.9142 19.0313 12.5 19.0313C12.0858 19.0313 11.75 18.6955 11.75 18.2813V18.271C10.6612 17.9967 9.75 17.1383 9.75 15.9479C9.75 15.5337 10.0858 15.1979 10.5 15.1979C10.9142 15.1979 11.25 15.5337 11.25 15.9479C11.25 16.332 11.6758 16.8646 12.5 16.8646C13.3242 16.8646 13.75 16.332 13.75 15.9479C13.75 15.5639 13.3242 15.0313 12.5 15.0313C11.1151 15.0313 9.75 14.0715 9.75 12.6146C9.75 11.4243 10.6612 10.5658 11.75 10.2915V10.2813C11.75 9.86704 12.0858 9.53125 12.5 9.53125Z" fill="white"/>
</g>
</svg>
