<svg width="25" height="25" viewBox="0 0 25 25" fill="none" xmlns="http://www.w3.org/2000/svg">
<path d="M17.0189 16.8607C17.1939 16.7242 17.3526 16.5655 17.6701 16.248L21.6275 12.2906C21.7231 12.1949 21.6793 12.0302 21.5515 11.9858C21.0844 11.8237 20.4767 11.5195 19.9083 10.9511C19.3399 10.3826 19.0356 9.77499 18.8736 9.30786C18.8292 9.18003 18.6644 9.13624 18.5688 9.23192L14.6114 13.1893C14.2939 13.5068 14.1352 13.6655 13.9987 13.8405C13.8377 14.0469 13.6996 14.2703 13.587 14.5066C13.4915 14.707 13.4205 14.9199 13.2786 15.3458L13.0951 15.8961L12.8034 16.7712L12.5299 17.5917C12.4601 17.8012 12.5146 18.0323 12.6708 18.1885C12.8271 18.3447 13.0581 18.3993 13.2677 18.3294L14.0882 18.0559L14.9632 17.7643L15.5135 17.5808L15.5136 17.5808C15.9394 17.4388 16.1524 17.3679 16.3527 17.2724C16.5891 17.1597 16.8124 17.0217 17.0189 16.8607Z" fill="white"/>
<path d="M22.8665 11.0516C23.7112 10.2069 23.7112 8.83749 22.8665 7.99285C22.0219 7.14822 20.6525 7.14822 19.8078 7.99285L19.6806 8.12008C19.5578 8.24285 19.5022 8.41434 19.5329 8.58523C19.5522 8.69274 19.5879 8.84991 19.653 9.03745C19.7831 9.41251 20.0288 9.90486 20.4917 10.3677C20.9545 10.8305 21.4469 11.0763 21.8219 11.2064C22.0095 11.2714 22.1666 11.3072 22.2741 11.3265C22.445 11.3572 22.6165 11.3016 22.7393 11.1788L22.8665 11.0516Z" fill="white"/>
<path fill-rule="evenodd" clip-rule="evenodd" d="M4.67157 3.53095C3.5 4.70252 3.5 6.58814 3.5 10.3594V14.3594C3.5 18.1306 3.5 20.0162 4.67157 21.1878C5.84315 22.3594 7.72876 22.3594 11.5 22.3594H13.5C17.2712 22.3594 19.1569 22.3594 20.3284 21.1878C21.4812 20.035 21.4997 18.1909 21.5 14.5394L18.6817 17.3578C18.4119 17.6277 18.191 17.8488 17.9415 18.0434C17.6491 18.2715 17.3328 18.467 16.9981 18.6265C16.7124 18.7626 16.4159 18.8614 16.0538 18.9819L13.7421 19.7525C12.9935 20.002 12.1682 19.8072 11.6102 19.2492C11.0523 18.6912 10.8574 17.8659 11.107 17.1173L11.3805 16.2968L11.8556 14.8715L11.8775 14.8057C11.9981 14.4436 12.0968 14.147 12.2329 13.8613C12.3924 13.5266 12.5879 13.2103 12.816 12.918C13.0106 12.6684 13.2317 12.4475 13.5017 12.1777L17.5081 8.17126L18.62 7.05942L18.7472 6.93219C19.4626 6.21679 20.4003 5.85918 21.338 5.85938C21.1867 4.82883 20.8941 4.09665 20.3284 3.53095C19.1569 2.35938 17.2712 2.35938 13.5 2.35938H11.5C7.72876 2.35938 5.84315 2.35938 4.67157 3.53095ZM7.75 9.35938C7.75 8.94516 8.08579 8.60938 8.5 8.60938H15C15.4142 8.60938 15.75 8.94516 15.75 9.35938C15.75 9.77359 15.4142 10.1094 15 10.1094H8.5C8.08579 10.1094 7.75 9.77359 7.75 9.35938ZM7.75 13.3594C7.75 12.9452 8.08579 12.6094 8.5 12.6094H11C11.4142 12.6094 11.75 12.9452 11.75 13.3594C11.75 13.7736 11.4142 14.1094 11 14.1094H8.5C8.08579 14.1094 7.75 13.7736 7.75 13.3594ZM7.75 17.3594C7.75 16.9452 8.08579 16.6094 8.5 16.6094H10C10.4142 16.6094 10.75 16.9452 10.75 17.3594C10.75 17.7736 10.4142 18.1094 10 18.1094H8.5C8.08579 18.1094 7.75 17.7736 7.75 17.3594Z" fill="white"/>
</svg>
