<svg width="24" height="25" viewBox="0 0 24 25" fill="none" xmlns="http://www.w3.org/2000/svg">
<g id="Bold / School / Document">
<g id="Vector">
<path fill-rule="evenodd" clip-rule="evenodd" d="M4 5.3584V19.3584C4 21.0153 5.34315 22.3584 7 22.3584H17C18.6569 22.3584 20 21.0153 20 19.3584V9.3584C20 7.70154 18.6569 6.3584 17 6.3584H5C4.44772 6.3584 4 5.91068 4 5.3584ZM7.25 12.3584C7.25 11.9442 7.58579 11.6084 8 11.6084H16C16.4142 11.6084 16.75 11.9442 16.75 12.3584C16.75 12.7726 16.4142 13.1084 16 13.1084H8C7.58579 13.1084 7.25 12.7726 7.25 12.3584ZM7.25 15.8584C7.25 15.4442 7.58579 15.1084 8 15.1084H13.5C13.9142 15.1084 14.25 15.4442 14.25 15.8584C14.25 16.2726 13.9142 16.6084 13.5 16.6084H8C7.58579 16.6084 7.25 16.2726 7.25 15.8584Z" fill="white"/>
<path d="M4.40879 4.4455C4.75727 4.60178 5 4.95174 5 5.3584H17C17.3453 5.3584 17.6804 5.40215 18 5.48442V4.66444C18 3.44734 16.922 2.51242 15.7172 2.68454L4.91959 4.22705C4.72712 4.25454 4.55271 4.33214 4.40879 4.4455Z" fill="white"/>
</g>
</g>
</svg>
