<svg width="25" height="25" viewBox="0 0 25 25" fill="none" xmlns="http://www.w3.org/2000/svg">
<path fill-rule="evenodd" clip-rule="evenodd" d="M18.5 16.5312C17.2574 16.5312 16.25 17.5386 16.25 18.7813C16.25 20.0239 17.2574 21.0313 18.5 21.0313C19.7426 21.0313 20.75 20.0239 20.75 18.7813C20.75 17.5386 19.7426 16.5313 18.5 16.5312ZM14.75 18.7813C14.75 16.7102 16.4289 15.0313 18.5 15.0313C20.5711 15.0313 22.25 16.7102 22.25 18.7813C22.25 19.5456 22.0213 20.2565 21.6287 20.8493L23.0303 22.2509C23.3232 22.5438 23.3232 23.0187 23.0303 23.3116C22.7374 23.6045 22.2626 23.6045 21.9697 23.3116L20.568 21.91C19.9752 22.3026 19.2643 22.5313 18.5 22.5313C16.4289 22.5313 14.75 20.8523 14.75 18.7813Z" fill="white"/>
<path d="M8.25 3.28125C8.25 2.86704 7.91421 2.53125 7.5 2.53125C7.08579 2.53125 6.75 2.86704 6.75 3.28125V4.86051C5.31067 4.97576 4.36577 5.25862 3.67157 5.95282C2.97737 6.64702 2.69451 7.59192 2.57926 9.03125L22.4207 9.03125C22.3055 7.59192 22.0226 6.64702 21.3284 5.95282C20.6342 5.25862 19.6893 4.97576 18.25 4.86051V3.28125C18.25 2.86704 17.9142 2.53125 17.5 2.53125C17.0858 2.53125 16.75 2.86704 16.75 3.28125V4.79415C16.0847 4.78125 15.339 4.78125 14.5 4.78125H10.5C9.66097 4.78125 8.91527 4.78125 8.25 4.79415V3.28125Z" fill="white"/>
<path d="M22.5 12.7813L22.5 14.7813C22.5 14.9865 22.5 15.1862 22.4998 15.3805C21.5368 14.249 20.1022 13.5313 18.5 13.5313C15.6005 13.5313 13.25 15.8818 13.25 18.7812C13.25 20.3835 13.9677 21.8181 15.0992 22.7811C14.905 22.7813 14.7053 22.7813 14.5 22.7813L10.5 22.7812C6.72876 22.7812 4.84315 22.7812 3.67157 21.6097C2.5 20.4381 2.5 18.5525 2.5 14.7812L2.5 12.7812C2.5 11.9422 2.5 11.1965 2.5129 10.5312L22.4871 10.5313C22.5 11.1965 22.5 11.9422 22.5 12.7813Z" fill="white"/>
</svg>
