<svg width="25" height="25" viewBox="0 0 25 25" fill="none" xmlns="http://www.w3.org/2000/svg">
<g id="Bold / Users / Users Group Two Rounded">
<path id="Vector" d="M16 8.28125C16 10.2142 14.433 11.7812 12.5 11.7812C10.567 11.7812 9 10.2142 9 8.28125C9 6.34825 10.567 4.78125 12.5 4.78125C14.433 4.78125 16 6.34825 16 8.28125Z" fill="white"/>
<path id="Vector_2" d="M18.5 17.2812C18.5 19.2142 15.8137 20.7812 12.5 20.7812C9.18629 20.7812 6.5 19.2142 6.5 17.2812C6.5 15.3483 9.18629 13.7812 12.5 13.7813C15.8137 13.7813 18.5 15.3483 18.5 17.2812Z" fill="white"/>
<g id="Vector_3">
<path d="M7.62205 5.78125C7.79951 5.78125 7.97276 5.79866 8.14005 5.83181C7.73249 6.55571 7.5 7.39133 7.5 8.28125C7.5 9.1495 7.72131 9.96607 8.11059 10.6776C7.95245 10.7071 7.78912 10.7225 7.62205 10.7225C6.20763 10.7225 5.06102 9.61637 5.06102 8.25188C5.06102 6.88739 6.20763 5.78125 7.62205 5.78125Z" fill="white"/>
<path d="M5.94734 19.7672C5.37942 19.0883 5 18.2553 5 17.2812C5 16.337 5.35657 15.5252 5.89578 14.858C3.9911 15.0057 2.5 16.0475 2.5 17.3106C2.5 18.5857 4.0173 19.6351 5.94734 19.7672Z" fill="white"/>
</g>
<g id="Vector_4">
<path d="M17.4994 8.28125C17.4994 9.1495 17.2781 9.96607 16.8888 10.6776C17.047 10.7071 17.2103 10.7225 17.3774 10.7225C18.7918 10.7225 19.9384 9.61637 19.9384 8.25188C19.9384 6.88739 18.7918 5.78125 17.3774 5.78125C17.1999 5.78125 17.0267 5.79866 16.8594 5.83181C17.2669 6.55571 17.4994 7.39133 17.4994 8.28125Z" fill="white"/>
<path d="M19.0521 19.7672C20.9821 19.6351 22.4994 18.5857 22.4994 17.3106C22.4994 16.0475 21.0083 15.0057 19.1036 14.858C19.6429 15.5252 19.9994 16.337 19.9994 17.2812C19.9994 18.2553 19.62 19.0883 19.0521 19.7672Z" fill="white"/>
</g>
</g>
</svg>
