<svg width="25" height="25" viewBox="0 0 25 25" fill="none" xmlns="http://www.w3.org/2000/svg">
<path d="M7.5 5.78125C4.73858 5.78125 2.5 8.01983 2.5 10.7812C2.5 12.8316 3.7341 14.5936 5.5 15.3652L5.5 18.0312L19.5 18.0313L19.5 15.3652C21.2659 14.5936 22.5 12.8316 22.5 10.7813C22.5 8.01983 20.2614 5.78125 17.5 5.78125C17.2495 5.78125 17.0033 5.79967 16.7626 5.83524C16.1604 4.05931 14.4794 2.78125 12.5 2.78125C10.5206 2.78125 8.83961 4.05931 8.23736 5.83524C7.99673 5.79967 7.75052 5.78125 7.5 5.78125Z" fill="white"/>
<path d="M19.4983 19.5313L5.50169 19.5312C5.51188 20.9282 5.58343 21.6931 6.08579 22.1955C6.67157 22.7812 7.61438 22.7812 9.5 22.7812L15.5 22.7813C17.3856 22.7813 18.3284 22.7813 18.9142 22.1955C19.4166 21.6931 19.4881 20.9282 19.4983 19.5313Z" fill="white"/>
</svg>
