<svg width="52" height="53" viewBox="0 0 52 53" fill="none" xmlns="http://www.w3.org/2000/svg">
<g clip-path="url(#clip0_8974_66133)">
<path d="M0 45.4201V35.3664C0.0172428 34.9461 0.0216266 34.7155 0.0508517 34.3914C-0.0113978 31.414 0.705203 28.6078 1.87625 25.8913C2.9155 23.4805 4.30574 21.2954 5.98297 19.2844C6.33981 19.0173 6.55023 18.6175 6.85914 18.3109C8.44081 16.7403 9.89768 15.0391 11.6743 13.672C12.9651 12.6786 14.4428 12.1993 16.061 12.19C19.1042 12.1724 22.1477 12.1809 25.1912 12.1891C25.5185 12.19 25.8818 12.1178 26.1185 12.4571C26.2079 12.6269 26.2261 12.811 26.2272 12.9972C26.2389 14.6487 26.2413 16.3002 26.2255 17.9517C26.224 18.1022 26.2199 18.2559 26.1489 18.3948C26.0498 18.663 25.8181 18.7092 25.5752 18.7268C23.6522 18.8667 21.8052 19.2864 20.0604 20.1383C19.0183 20.6474 18.055 21.2772 17.1905 22.033C14.8318 24.0951 13.3424 26.6891 12.7565 29.7633C12.222 32.5669 12.6007 35.272 13.7978 37.8727C15.0606 40.6164 17.0456 42.6809 19.677 44.1035C21.247 44.9525 22.942 45.4908 24.7458 45.6089C25.0658 45.63 25.3803 45.7036 25.7015 45.7252C25.8929 45.7381 26.0601 45.824 26.1422 46.0204C26.2395 46.227 26.2296 46.4488 26.2307 46.6663C26.2386 48.2658 26.2386 49.8653 26.2307 51.4648C26.2296 51.714 26.2553 51.9747 26.0814 52.1907C25.9209 52.331 25.726 52.272 25.5466 52.272C19.4458 52.2752 13.3448 52.2281 7.24491 52.293C3.89191 52.3287 1.37007 50.0473 0.364145 47.5994C0.128006 47.0249 0.112517 46.4167 0.0514362 45.8141C0.0379927 45.6823 0.0853374 45.5426 0.000584503 45.4201H0Z" fill="#10BA67"/>
<path d="M29.7537 0.231123C30.7619 0.347439 31.6644 0.8694 32.3602 1.65263C33.5482 2.9891 33.9127 4.51465 33.3752 6.2363C33.3171 6.4853 33.1201 6.53674 32.9103 6.53966C30.7198 6.5721 28.5294 6.57795 26.3387 6.53703C26.2364 6.53499 26.1411 6.49699 26.0485 6.4552C25.9868 6.42656 25.9366 6.38448 25.8968 6.32982C25.789 6.14863 25.7679 5.94698 25.7662 5.74269C25.7557 4.47374 25.7539 3.20478 25.7676 1.93553C25.7697 1.74966 25.7764 1.56204 25.879 1.39662C26.1934 0.804227 26.7405 0.544416 27.3513 0.383093C27.6719 0.29834 28.9505 0.138479 29.7534 0.231123H29.7537Z" fill="#FD9823"/>
<path d="M26.097 1.34399C25.983 1.5623 25.9959 1.79931 25.9959 2.03458C25.9965 3.46281 25.9965 4.89133 25.9968 6.31957C25.8629 6.54928 25.6306 6.54548 25.414 6.54752C23.3496 6.56623 21.2848 6.56798 19.2203 6.54635C19.0052 6.54402 18.7688 6.55366 18.6472 6.30817C17.8015 3.39881 19.3568 0.844237 22.3074 0.293927C22.3547 0.28516 23.1193 0.214143 23.4574 0.228463C23.8788 0.245998 24.1538 0.307371 24.501 0.367575C25.1688 0.483599 25.7019 0.794846 26.0973 1.34428L26.097 1.34399Z" fill="#FDA732"/>
<path d="M45.8854 19.4366C47.221 21.1185 48.4458 22.8708 49.3836 24.8134C50.6383 27.4121 51.4484 30.1336 51.8102 33.0017C52.0466 34.8745 51.9814 36.7481 51.9934 38.6229C52.0069 40.6868 52.0007 42.751 51.9952 44.8148C51.9855 48.3899 49.1343 51.6263 45.5808 52.1331C45.1422 52.1956 44.7091 52.2225 44.2704 52.2225C38.366 52.2234 32.4617 52.2234 26.5573 52.2225C26.3717 52.2225 26.1859 52.212 26.0003 52.2065C26.0003 50.1189 26.0003 48.0311 26.0003 45.9435C26.0105 45.919 26.0205 45.8944 26.0304 45.8699C26.358 45.594 26.7762 45.6589 27.1456 45.6282C30.024 45.3885 32.5581 44.3034 34.7421 42.4578C36.8338 40.6903 38.2369 38.4417 38.9742 35.7939C39.3252 34.5337 39.5187 33.2458 39.4737 31.9388C39.4114 30.133 39.0242 28.3979 38.286 26.7353C37.4893 24.9414 36.3603 23.3937 34.8941 22.1116C32.943 20.4057 30.6743 19.3302 28.1007 18.9266C27.5501 18.8404 26.9945 18.798 26.4419 18.7288C26.2885 18.7095 26.1385 18.6934 26.0301 18.5654C26.0202 18.5408 26.0102 18.516 26.0006 18.4915C26.0006 16.4714 26.0003 14.4514 26 12.4313C26.012 12.405 26.024 12.379 26.0359 12.3524C26.2049 12.1633 26.4355 12.1896 26.6508 12.1891C29.8934 12.1817 33.1365 12.1484 36.3784 12.2007C38.238 12.2308 39.7607 13.1281 41.155 14.2889C42.6922 15.5686 43.9141 17.1591 45.3716 18.5163C45.641 18.7673 45.7506 19.1099 45.886 19.4369L45.8854 19.4366Z" fill="#0CA556"/>
<path d="M25.9986 45.9442C23.826 45.8747 21.7359 45.4541 19.8029 44.4245C15.7365 42.2584 13.2553 38.9179 12.4835 34.3626C11.4524 28.2771 14.7695 22.1719 20.5762 19.634C22.3025 18.8794 24.123 18.5501 25.9983 18.4922L25.9954 18.5261C26.1868 18.6556 26.221 18.8546 26.2222 19.0618C26.2374 21.9676 26.252 24.8735 26.2146 27.7791C26.2137 27.8466 26.1965 27.9129 26.1816 27.9769C26.1602 28.0289 26.1386 28.0827 26.1187 28.1356C26.0147 28.3142 25.8218 28.3338 25.65 28.3922C25.1032 28.5775 24.7314 29.0451 24.7098 29.5723C24.6879 30.1086 24.9722 30.5306 25.5155 30.7922C25.7219 30.8915 25.9791 30.9032 26.1182 31.1274C26.1372 31.1829 26.1518 31.2381 26.1643 31.2951C26.2906 32.1655 26.2348 33.0372 26.1991 33.9087C26.195 34.011 26.1509 34.1034 26.0822 34.1808C25.7236 34.4664 25.3051 34.4132 24.9185 34.3144C21.604 33.4695 20.1913 29.7877 21.9217 27.0592C22.3657 26.359 22.9692 25.8181 23.7015 25.4451C24.1063 25.2391 24.2665 24.9685 24.2507 24.5245C24.2276 23.8828 24.2524 23.2392 24.2422 22.5969C24.2343 22.1024 24.1282 22.0039 23.6697 22.1126C21.9276 22.5253 20.3775 23.3073 19.0439 24.5164C17.58 25.8438 16.5411 27.4345 15.9908 29.335C15.2315 31.9556 15.4939 34.4813 16.7208 36.9113C17.7633 38.9758 19.3707 40.4748 21.4041 41.5298C22.1108 41.8963 22.8759 42.1274 23.6478 42.3186C24.1177 42.4349 24.2244 42.3399 24.2434 41.8629C24.248 41.7446 24.2311 41.6242 24.2478 41.5082C24.3685 40.6603 24.0981 40.1267 23.3076 39.6246C21.967 38.7736 21.1765 37.4786 21.2025 35.8046C21.2168 34.8784 21.7993 34.1183 22.5547 34.0382C23.6858 33.9184 24.4512 34.3606 24.6262 35.4141C24.7639 36.2421 25.0839 36.8055 25.9007 37.0469C26.02 37.0823 26.0989 37.1723 26.1439 37.291C26.2441 37.5154 26.2304 37.7545 26.231 37.9892C26.2371 40.35 26.2389 42.7108 26.2289 45.0716C26.2278 45.3656 26.2894 45.6914 25.9951 45.9098L25.998 45.9437L25.9986 45.9442Z" fill="#FDDA41"/>
<path d="M18.648 6.30746C21.0979 6.31126 23.5476 6.31506 25.9975 6.31886L25.9943 6.32471C26.2144 6.48486 26.2243 6.7248 26.2263 6.96152C26.2404 8.5616 26.2404 10.1617 26.2263 11.7615C26.2243 11.9967 26.2234 12.2402 25.9958 12.3971C25.9958 12.3971 25.9981 12.4304 25.9978 12.4304C22.5662 12.4298 19.1337 12.3869 15.7032 12.4445C13.5511 12.4804 11.8672 13.6161 10.3752 15.0621C8.90636 16.4854 7.50355 17.9733 6.1098 19.4699C6.12558 17.2383 5.93357 14.9981 6.20537 12.7773C6.63001 9.30509 9.75535 6.47142 13.2676 6.344C15.0594 6.27912 16.8547 6.31623 18.6486 6.30746H18.648Z" fill="#FDDA41"/>
<path d="M25.9973 12.3991C25.997 10.375 25.9967 8.35086 25.9961 6.32643C28.2248 6.32527 30.4535 6.32439 32.6825 6.32176C32.9175 6.32176 33.1574 6.35011 33.3781 6.23438C33.5341 6.38751 33.7305 6.31854 33.9079 6.31913C35.4615 6.32527 37.0154 6.31591 38.569 6.32468C42.0632 6.34397 45.3823 9.24836 45.7929 12.7115C46.0577 14.9452 45.8683 17.1953 45.8853 19.438C44.4877 17.9928 43.1121 16.5257 41.6853 15.1101C40.6133 14.0468 39.4227 13.1359 37.9293 12.7124C37.2937 12.5321 36.6527 12.4152 35.9896 12.4146C32.6588 12.4123 29.3281 12.4047 25.9976 12.3991H25.9973Z" fill="#FBBE29"/>
<path d="M25.9959 45.9146C25.9944 43.0155 25.993 40.1164 25.9912 37.2172C25.9985 37.1947 26.0058 37.1722 26.0131 37.1497C26.1116 37.0214 26.2645 36.9881 26.4015 36.9258C26.9586 36.6725 27.2558 36.2244 27.2277 35.6648C27.1982 35.0765 26.8928 34.6939 26.3384 34.5042C26.211 34.4607 26.0833 34.4175 25.9629 34.3549C25.9047 34.3023 25.8679 34.2424 25.8968 34.1606C26.0979 33.7429 25.974 33.2993 25.9924 32.8685C26.0157 32.3138 26.0017 31.758 26.0038 31.2024C26.2709 30.8873 26.6283 30.9546 26.9469 31.0326C28.8529 31.4984 30.1388 32.6753 30.6126 34.575C31.1404 36.6909 30.2551 38.8418 28.2114 39.9281C27.8733 40.1079 27.7397 40.3218 27.7482 40.6807C27.7573 41.0694 27.7424 41.459 27.752 41.8479C27.7646 42.3562 27.8642 42.4406 28.3774 42.3191C29.2691 42.1078 30.1362 41.8126 30.934 41.3599C33.4389 39.9387 35.1848 37.8859 36.0034 35.1022C36.7732 32.4848 36.5032 29.9536 35.2711 27.525C34.2254 25.464 32.6312 23.9484 30.5842 22.9089C29.8764 22.5494 29.1218 22.2852 28.3412 22.1183C27.8657 22.0166 27.7605 22.1026 27.7529 22.5857C27.7421 23.2792 27.7552 23.973 27.7482 24.6665C27.7447 25.011 27.8821 25.2253 28.1878 25.3919C29.808 26.2733 30.6251 27.6735 30.7686 29.4872C30.8361 30.3408 30.1792 31.2065 29.4064 31.312C28.3812 31.4523 27.4639 30.9049 27.3291 29.986C27.2119 29.187 26.9588 28.5496 26.1166 28.3C26.0508 28.2805 26.0131 28.2168 25.9909 28.1498C25.9924 24.9435 25.9941 21.7375 25.9956 18.5312C30.3533 18.5874 33.9363 20.3017 36.6762 23.6714C38.9245 26.4364 39.9214 29.6508 39.6516 33.211C39.2007 39.1616 35.1296 43.998 29.3568 45.502C28.2564 45.7887 27.1351 45.9333 25.9956 45.9155L25.9959 45.9146Z" fill="#FBBE29"/>
<path d="M25.9915 28.1439C26.8554 28.2041 27.2789 28.5683 27.4513 29.405C27.4852 29.5701 27.5013 29.7388 27.5331 29.9045C27.686 30.7044 28.4534 31.2111 29.3302 31.0933C30.0363 30.9986 30.6123 30.2031 30.5375 29.4544C30.3583 27.6538 29.5362 26.289 27.873 25.4906C27.6316 25.3746 27.5165 25.2112 27.5191 24.9376C27.5276 24.0241 27.5288 23.1105 27.5191 22.1969C27.515 21.8258 27.6629 21.7369 28.0209 21.7997C32.4497 22.5798 36.0236 26.4436 36.5751 30.9422C37.1368 35.523 34.6322 39.8249 30.5942 41.7909C29.7735 42.1904 28.9047 42.4774 27.9987 42.6405C27.6699 42.6995 27.5162 42.6148 27.5203 42.2661C27.5279 41.6232 27.5308 40.9802 27.5182 40.3375C27.5127 40.0538 27.6518 39.9123 27.8917 39.8033C29.6116 39.0236 30.4799 37.6108 30.5229 35.7965C30.5819 33.3068 28.6305 31.1705 26.0041 31.1971C25.9982 31.1687 25.9936 31.1401 25.9906 31.1115C25.6578 30.6228 25.6598 28.6235 25.9941 28.1512L25.9915 28.1442V28.1439Z" fill="#FD9823"/>
<path d="M25.8964 34.1539L25.9987 34.2483C26.3389 34.7173 26.3386 36.7219 25.9984 37.1877C25.9984 37.1877 25.9908 37.2105 25.9908 37.2108C25.0404 37.1249 24.588 36.6792 24.4661 35.7084C24.3577 34.8456 23.8404 34.2892 23.1075 34.2468C22.288 34.1997 21.6076 34.6332 21.4624 35.355C21.3221 36.0535 21.4589 36.7385 21.7345 37.3867C22.1877 38.4526 22.9295 39.2689 23.9737 39.775C24.3472 39.9559 24.5062 40.178 24.4813 40.5948C24.4495 41.1343 24.4647 41.6773 24.4761 42.2185C24.4834 42.5675 24.3744 42.7136 23.995 42.6388C21.3992 42.1262 19.2912 40.8152 17.6371 38.7656C15.9721 36.7026 15.2158 34.3166 15.3514 31.6922C15.4809 29.1865 16.388 26.9677 18.1199 25.1025C19.7141 23.3856 21.6333 22.2791 23.9293 21.8083C24.3457 21.723 24.4857 21.8317 24.4781 22.2481C24.462 23.1278 24.4635 24.0078 24.4781 24.8875C24.4834 25.2043 24.3574 25.3819 24.0766 25.5129C21.5571 26.6874 20.6631 29.5623 22.0589 31.9228C22.9002 33.3458 24.1826 34.1577 25.8961 34.1542L25.8964 34.1539Z" fill="#FDA732"/>
<path d="M25.9923 28.1562C25.9911 29.1429 25.9903 30.1295 25.9891 31.1165C25.0489 31.0533 24.4524 30.4457 24.4732 29.5734C24.4925 28.7709 25.1293 28.1767 25.9923 28.1562Z" fill="#FDA732"/>
<path d="M26 37.1895C26 36.2095 26 35.2296 26.0003 34.25C26.8946 34.2807 27.5156 34.9026 27.4917 35.7431C27.4674 36.5959 26.8759 37.1693 26 37.1895Z" fill="#FD9923"/>
</g>
<defs>
<clipPath id="clip0_8974_66133">
<rect width="52" height="52.0926" fill="white" transform="translate(0 0.203125)"/>
</clipPath>
</defs>
</svg>
