<svg width="52" height="52" viewBox="0 0 52 52" fill="none" xmlns="http://www.w3.org/2000/svg">
<g clip-path="url(#clip0_8471_62032)">
<path d="M14.625 0.984375H7.875V11.4844L10.725 12.4844L14.625 11.4844L15.625 6.53438L14.625 0.984375Z" fill="#F4D844"/>
<path d="M14.625 0.984375V11.4844L20.225 12.4844L27.375 11.4844H33.375V0.984375H14.625Z" fill="#ECBD2C"/>
<path d="M14.625 11.4844C13.1732 11.4844 3.3363 11.4844 1.875 11.4844V20.4844L8.375 21.4844L14.625 20.4844L15.625 15.9844L14.625 11.4844Z" fill="#ECBD2C"/>
<path d="M14.625 20.4844L20.625 21.4844L27.375 20.4844V11.4844H14.625V20.4844Z" fill="#E58F22"/>
<path d="M14.625 20.4844H1.875V29.4844L8.375 30.4844L14.625 29.4844L15.625 24.9844L14.625 20.4844Z" fill="#E58F22"/>
<path d="M14.625 29.4844L17.8916 30.4844L21.9083 29.4844L27.375 23.9914C27.375 23.021 27.375 21.6875 27.375 20.4844H14.625V29.4844Z" fill="#DF6B46"/>
<path d="M1.875 29.4844V39.9844H14.625L15.625 34.7344L14.625 29.4844H1.875Z" fill="#F4D844"/>
<path d="M14.625 39.9844H20.1752L21.9083 29.4844H14.625V39.9844Z" fill="#ECBD2C"/>
<path d="M19.875 36.9844C19.875 45.2687 26.5907 51.9844 34.875 51.9844L35.875 37.2844L34.875 21.9844C26.5907 21.9844 19.875 28.7001 19.875 36.9844Z" fill="#F4D844"/>
<path d="M34.875 21.9844V51.9844C43.1593 51.9844 49.875 45.2687 49.875 36.9844C49.875 28.7001 43.1593 21.9844 34.875 21.9844Z" fill="#ECBD2C"/>
<path d="M30.375 41.4844V44.4844H33.375V47.4844H34.875L35.875 44.4844L34.875 41.4844H30.375Z" fill="#E58F22"/>
<path d="M33.375 33.9844C33.375 33.1572 34.0478 32.4844 34.875 32.4844L35.875 29.9344L34.875 26.4844H33.375V29.7424C31.6291 30.3616 30.375 32.0289 30.375 33.9844C30.375 36.4658 32.3936 38.4844 34.875 38.4844L35.875 36.9844L34.875 35.4844C34.0478 35.4844 33.375 34.8116 33.375 33.9844Z" fill="#E58F22"/>
<path d="M36.375 39.9844C36.375 40.8116 35.7022 41.4844 34.875 41.4844V47.4844H36.375V44.2264C38.1209 43.6072 39.375 41.9399 39.375 39.9844C39.375 37.503 37.3564 35.4844 34.875 35.4844V38.4844C35.7022 38.4844 36.375 39.1572 36.375 39.9844Z" fill="#DF6B46"/>
<path d="M39.375 32.4844V29.4844H36.375V26.4844H34.875V32.4844H39.375Z" fill="#DF6B46"/>
</g>
<defs>
<clipPath id="clip0_8471_62032">
<rect width="51" height="51" fill="white" transform="translate(0.375 0.984375)"/>
</clipPath>
</defs>
</svg>
