<svg width="52" height="53" viewBox="0 0 52 53" fill="none" xmlns="http://www.w3.org/2000/svg">
<g clip-path="url(#clip0_8863_55521)">
<path d="M51.9975 19.3484C51.7502 19.9967 51.7756 20.6928 51.6535 21.3635C50.8983 25.4946 49.1539 29.1982 46.7896 32.63C43.6112 37.2415 39.6318 41.0815 35.2514 44.5276C32.6704 46.558 29.9621 48.4021 27.1358 50.0753C26.7867 50.2819 26.4377 50.4967 26.001 50.4285C26.0031 46.275 26.0051 42.1216 26.0082 37.9681C26.0082 37.7514 25.9725 37.5264 26.1089 37.33C26.6829 37.3259 27.258 37.3219 27.832 37.3178C28.6808 37.3117 29.036 36.9636 29.039 36.1199C29.0421 34.7846 29.039 33.4503 29.04 32.1151C29.04 31.3538 29.1683 31.2225 29.9112 31.2215C31.3137 31.2205 32.7162 31.2245 34.1186 31.2194C34.9277 31.2174 35.2982 30.8541 35.3043 30.0419C35.3125 28.7239 35.3125 27.4059 35.3043 26.0879C35.2992 25.2096 34.941 24.8575 34.0667 24.8554C32.6805 24.8514 31.2954 24.8554 29.9092 24.8534C29.209 24.8524 29.0594 24.6997 29.0573 23.9832C29.0553 22.6143 29.0451 21.2455 29.0624 19.8766C29.0696 19.3189 28.8721 18.9301 28.3409 18.7306C27.718 18.5148 27.0758 18.6644 26.4438 18.64C26.1272 18.6278 25.998 18.5586 26 18.2136C26.0153 15.7649 26.0122 13.3162 26.0153 10.8674C26.4936 10.8206 26.7318 10.4929 26.9608 10.1153C29.0747 6.62648 32.1187 4.40574 36.1419 3.70044C43.3405 2.43945 49.8429 6.39443 51.5751 13.8892C51.7441 14.6189 51.858 15.3618 51.9985 16.0987V16.403C51.7624 16.7399 51.9069 17.1185 51.912 17.4706C51.9191 17.9256 51.7705 18.3978 51.9985 18.8405V19.3484H51.9975Z" fill="#FF3650"/>
<path d="M52.0021 18.8438C51.7741 18.401 51.9227 17.9298 51.9156 17.4739C51.9105 17.1217 51.766 16.7431 52.0021 16.4062V18.8427V18.8438Z" fill="#FF6C6C"/>
<path d="M26.1111 37.3333C25.9747 37.5297 26.0103 37.7546 26.0103 37.9714C26.0072 42.1248 26.0052 46.2783 26.0032 50.4317C25.6317 50.4969 25.303 50.3727 24.9885 50.1956C20.4707 47.6604 16.2948 44.6529 12.4864 41.1376C9.18686 38.0925 6.28118 34.7217 4.00345 30.8359C1.9425 27.3227 0.59296 23.5651 0.130901 19.5043C-0.302662 15.6928 0.295776 12.1358 2.60404 8.95631C6.30662 3.85432 13.3729 2.01728 19.0702 4.69396C21.6095 5.88677 23.6064 7.67089 25.0394 10.0809C25.2734 10.4738 25.5238 10.8157 26.0184 10.8717C26.0154 13.3204 26.0184 15.7691 26.0032 18.2179C26.0011 18.5629 26.1304 18.6321 26.4469 18.6443C27.0789 18.6687 27.7211 18.5191 28.344 18.7349C26.9578 18.7298 25.5716 18.7216 24.1855 18.7196C23.1993 18.7186 22.8929 19.031 22.8899 20.0325C22.8868 21.2833 22.8899 22.5352 22.8899 23.786C22.8899 24.8322 22.8685 24.8526 21.7988 24.8526C20.4971 24.8526 19.1944 24.8485 17.8927 24.8546C17.0531 24.8587 16.6857 25.2261 16.6826 26.0678C16.6765 27.3868 16.6775 28.7058 16.6826 30.0248C16.6857 30.8634 17.051 31.2227 17.8947 31.2247C19.2809 31.2278 20.6681 31.2237 22.0543 31.2268C22.6975 31.2278 22.8583 31.3906 22.8593 32.041C22.8624 33.4444 22.8553 34.8479 22.8634 36.2514C22.8675 36.9486 23.2359 37.3109 23.932 37.3211C24.6587 37.3323 25.3854 37.3302 26.1121 37.3343L26.1111 37.3333Z" fill="#FF6C6C"/>
<path d="M26.1134 37.3334C25.3867 37.3294 24.66 37.3314 23.9333 37.3202C23.2372 37.31 22.8688 36.9477 22.8647 36.2505C22.8566 34.8471 22.8637 33.4436 22.8606 32.0401C22.8596 31.3908 22.6988 31.2279 22.0556 31.2259C20.6694 31.2229 19.2822 31.2269 17.896 31.2239C17.0533 31.2218 16.688 30.8626 16.6839 30.0239C16.6788 28.7049 16.6778 27.3859 16.6839 26.0669C16.688 25.2252 17.0544 24.8578 17.894 24.8538C19.1957 24.8477 20.4984 24.8517 21.8001 24.8517C22.8698 24.8517 22.8912 24.8304 22.8912 23.7851C22.8912 22.5343 22.8891 21.2825 22.8912 20.0317C22.8932 19.0302 23.2006 18.7177 24.1868 18.7188C25.5729 18.7208 26.9591 18.7289 28.3453 18.734C28.8766 18.9335 29.074 19.3223 29.0669 19.88C29.0496 21.2489 29.0598 22.6178 29.0618 23.9866C29.0628 24.7031 29.2124 24.8558 29.9137 24.8568C31.2998 24.8588 32.685 24.8548 34.0712 24.8589C34.9454 24.8609 35.3037 25.213 35.3088 26.0913C35.3169 27.4093 35.3169 28.7273 35.3088 30.0453C35.3037 30.8565 34.9332 31.2198 34.1231 31.2229C32.7206 31.2269 31.3182 31.2229 29.9157 31.2249C29.1717 31.2249 29.0445 31.3562 29.0445 32.1185C29.0445 33.4538 29.0465 34.7891 29.0435 36.1233C29.0414 36.966 28.6852 37.3151 27.8364 37.3212C27.2624 37.3253 26.6874 37.3294 26.1134 37.3334Z" fill="#FFFEFE"/>
</g>
<defs>
<clipPath id="clip0_8863_55521">
<rect width="52" height="46.9804" fill="white" transform="translate(0 3.46875)"/>
</clipPath>
</defs>
</svg>
