<svg width="52" height="53" viewBox="0 0 52 53" fill="none" xmlns="http://www.w3.org/2000/svg">
<g clip-path="url(#clip0_8863_55528)">
<path d="M49.3108 1.38281C49.9779 1.6713 50.631 1.97582 51.0818 2.58787C51.2361 2.79823 51.3182 3.00758 51.3172 3.27404C51.3112 6.98637 51.3102 10.6977 51.3182 14.41C51.3182 14.6965 51.2351 14.9239 51.0628 15.1393C50.3506 16.0288 49.3969 16.3574 48.293 16.3574C43.9486 16.3553 39.6042 16.3574 35.2598 16.3574C30.8152 16.3574 26.3717 16.3574 21.9271 16.3574C20.7621 16.3574 19.7724 15.9827 19.0842 14.996C18.7036 14.4511 18.5283 13.8431 18.5313 13.1699C18.5423 10.3902 18.5383 7.61043 18.5413 4.83069C18.5423 3.09573 19.1694 2.16915 20.7851 1.50101C20.8392 1.47898 20.8813 1.42388 20.9284 1.38482C30.3895 1.38482 39.8496 1.38482 49.3108 1.38482V1.38281Z" fill="#B8E255"/>
<mask id="mask0_8863_55528" style="mask-type:luminance" maskUnits="userSpaceOnUse" x="18" y="1" width="34" height="16">
<path d="M49.3108 1.38281C49.9779 1.6713 50.631 1.97582 51.0818 2.58787C51.2361 2.79823 51.3182 3.00758 51.3172 3.27404C51.3112 6.98637 51.3102 10.6977 51.3182 14.41C51.3182 14.6965 51.2351 14.9239 51.0628 15.1393C50.3506 16.0288 49.3969 16.3574 48.293 16.3574C43.9486 16.3553 39.6042 16.3574 35.2598 16.3574C30.8152 16.3574 26.3717 16.3574 21.9271 16.3574C20.7621 16.3574 19.7724 15.9827 19.0842 14.996C18.7036 14.4511 18.5283 13.8431 18.5313 13.1699C18.5423 10.3902 18.5383 7.61043 18.5413 4.83069C18.5423 3.09573 19.1694 2.16915 20.7851 1.50101C20.8392 1.47898 20.8813 1.42388 20.9284 1.38482C30.3895 1.38482 39.8496 1.38482 49.3108 1.38482V1.38281Z" fill="white"/>
</mask>
<g mask="url(#mask0_8863_55528)">
<path d="M18.3684 13.1624C24.2034 13.1604 39.5586 13.1404 45.3945 13.1704C46.9562 13.1785 48.2303 12.1998 48.1943 10.4658C48.1282 7.30344 48.1783 4.13804 48.1803 0.973645C49.789 0.877481 51.4178 2.21176 51.4719 3.77542C51.538 5.69069 51.5039 7.60896 51.5089 9.52523C51.5119 10.6722 51.5169 11.8191 51.5079 12.9661C51.4919 15.0076 50.9039 16.3378 48.7913 16.3388C43.2188 16.3409 27.0362 16.3429 21.4637 16.3378C19.5474 16.3358 18.3073 14.8904 18.3694 13.1624H18.3684Z" fill="#92C43E"/>
</g>
<path d="M9.0317 1.38281C9.19097 1.56312 9.42537 1.52305 9.62371 1.56713C13.2789 2.3725 15.7542 5.73023 15.4366 9.4666C15.1411 12.9475 12.5487 15.7343 9.11685 16.2632C5.16611 16.8712 1.4067 14.2007 0.655415 10.2529C-0.0968684 6.3022 2.44246 2.43461 6.34712 1.57013C6.5124 1.53307 6.71976 1.56913 6.83295 1.38281H9.0317Z" fill="#B8E255"/>
<path d="M18.559 31.3703C18.554 28.4073 18.518 25.4442 18.557 22.4822C18.5791 20.8283 19.9063 19.5191 21.5962 19.5091C26.8732 19.477 32.1502 19.5001 37.4282 19.5021C37.4613 19.5021 37.4933 19.5131 37.5264 19.5191C37.5244 22.5953 37.4773 25.6726 37.5394 28.7478C37.5735 30.4337 36.3814 31.3853 34.9219 31.3773C29.4676 31.3483 24.0133 31.3683 18.558 31.3693L18.559 31.3703Z" fill="#FFE03B"/>
<path d="M1.91788 31.2911C-0.0634975 28.7628 0.114806 24.6368 2.29653 22.1526C3.744 20.5037 5.55909 19.6002 7.73981 19.5141C9.3726 19.4489 10.8892 19.8927 12.2345 20.8533C12.2745 20.9786 12.2976 21.1128 12.3577 21.227C13.0068 22.4581 13.2853 23.7613 13.2392 25.1577C13.1811 26.8916 12.57 28.4052 11.4471 29.6854C9.20631 32.2398 5.51201 33.0572 2.3977 31.4083C2.25946 31.3352 2.12123 31.1409 1.91688 31.2921L1.91788 31.2911ZM8.01328 29.464C7.64866 29.464 7.28403 29.453 6.91941 29.467C6.5037 29.4831 6.14008 29.8497 6.14309 30.2233C6.14609 30.603 6.5037 30.9656 6.92542 30.9736C7.62161 30.9876 8.3178 30.9856 9.01298 30.9736C9.47677 30.9656 9.82136 30.6551 9.82938 30.2704C9.83839 29.8056 9.51384 29.4811 9.00797 29.464C8.67641 29.453 8.34484 29.462 8.01328 29.463V29.464ZM9.52886 26.0482C9.53888 26.6522 9.92854 27.084 10.4484 27.0689C10.9533 27.0549 11.341 26.5871 11.3329 26.0031C11.3249 25.4442 10.8802 24.9543 10.3993 24.9764C9.87746 25.0004 9.51985 25.4412 9.52986 26.0482H9.52886ZM4.72567 26.0412C4.72667 26.6863 5.02718 27.0659 5.53906 27.0689C6.05594 27.0719 6.43659 26.6362 6.43959 26.0392C6.4426 25.4131 6.04893 24.9563 5.52203 24.9764C5.07927 24.9924 4.72567 25.4672 4.72667 26.0422L4.72567 26.0412Z" fill="#FFDF3B"/>
<path d="M1.88381 49.3628C0.277066 46.9467 0.0416646 44.3924 1.32385 41.7989C2.61606 39.1855 4.80278 37.8011 7.72577 37.6509C9.42467 37.5637 10.9743 38.0335 12.3507 39.0462C12.2054 39.1865 12.3537 39.2917 12.4037 39.3948C13.6499 41.9883 13.5727 44.5246 12.0592 46.9868C11.6364 47.675 11.0615 48.2339 10.3963 48.7267C10.4915 48.3902 10.4294 48.1187 10.218 47.8733C9.08509 46.558 6.95646 46.553 5.80049 47.8332C5.41182 48.264 5.59313 48.874 6.13205 49.0814C6.51671 49.2296 6.77114 49.0162 7.02858 48.8129C7.57251 48.3842 8.13346 48.3471 8.74751 48.6596C9.07607 48.8269 9.28443 49.1635 9.77727 49.2326C7.79789 50.4036 5.82553 50.636 3.73396 50.074C3.08786 49.9007 2.53191 49.5151 1.8828 49.3628H1.88381ZM10.4284 43.1482C9.83637 43.1482 9.53285 43.4858 9.53085 44.1489C9.52884 44.7379 9.92051 45.1727 10.4454 45.1647C10.9483 45.1577 11.3309 44.7289 11.3359 44.166C11.3409 43.579 10.9573 43.1472 10.4284 43.1472V43.1482ZM4.72565 44.1329C4.72265 44.8031 5.00112 45.1597 5.53203 45.1657C6.0419 45.1717 6.43557 44.751 6.44358 44.19C6.4536 43.5159 6.14808 43.1472 5.57911 43.1492C5.01414 43.1502 4.72766 43.4808 4.72565 44.1339V44.1329Z" fill="#FF6177"/>
<path d="M18.5595 49.4619C18.5555 46.4988 18.5144 43.5358 18.5615 40.5737C18.5875 38.9299 19.9238 37.6738 21.5796 37.6537C23.8265 37.6267 26.0733 37.6497 28.3211 37.6507C28.266 40.8722 28.4323 44.0947 28.232 47.3152C28.1568 48.5163 27.2042 49.4559 25.9912 49.4579C23.5139 49.4609 21.0367 49.4619 18.5605 49.4639L18.5595 49.4619Z" fill="#FF6177"/>
<path d="M18.5563 31.3706C24.0106 31.3686 29.4659 31.3495 34.9202 31.3786C36.3797 31.3866 37.5708 30.435 37.5377 28.7491C37.4756 25.6738 37.5227 22.5966 37.5247 19.5204C39.0283 19.4272 40.5509 20.7234 40.6009 22.244C40.662 24.1062 40.631 25.9714 40.636 27.8345C40.639 28.9494 40.643 30.0643 40.635 31.1792C40.62 33.1646 39.3218 34.4578 37.3464 34.4588C32.1375 34.4608 26.9276 34.4628 21.7187 34.4578C19.9277 34.4558 18.4992 33.0504 18.5563 31.3706Z" fill="#FFC83B"/>
<path d="M18.5609 49.4616C21.0381 49.4596 23.5153 49.4596 25.9916 49.4556C27.2046 49.4536 28.1583 48.515 28.2324 47.3129C28.4327 44.0924 28.2664 40.8699 28.3215 37.6484C30.0254 37.6514 31.3697 38.9557 31.3888 40.7227C31.4208 43.6346 31.4198 46.5466 31.3888 49.4586C31.3697 51.2717 30.0024 52.5529 28.1773 52.5539C25.9475 52.5539 23.7177 52.5629 21.4879 52.5509C19.8711 52.5418 18.4677 51.0473 18.5589 49.4606L18.5609 49.4616Z" fill="#E94154"/>
<path d="M1.88281 49.3635C2.53192 49.5157 3.08787 49.9014 3.73397 50.0747C5.82554 50.6366 7.7979 50.4042 9.77728 49.2332C9.28444 49.1641 9.07608 48.8276 8.74752 48.6603C8.13347 48.3477 7.57252 48.3838 7.02859 48.8135C6.77115 49.0169 6.51672 49.2312 6.13206 49.082C5.59314 48.8736 5.41183 48.2636 5.80049 47.8339C6.95747 46.5537 9.08509 46.5587 10.218 47.8739C10.4294 48.1193 10.4915 48.3908 10.3963 48.7274C11.0615 48.2345 11.6364 47.6756 12.0592 46.9874C13.5727 44.5252 13.6499 41.9889 12.4038 39.3955C12.3537 39.2913 12.2054 39.1871 12.3507 39.0469C14.0996 40.267 15.0984 41.9689 15.3999 44.0474C15.9438 47.7898 13.6048 51.2968 9.95458 52.3145C6.95346 53.1509 3.4605 51.8737 1.88281 49.3635Z" fill="#E94154"/>
<path d="M10.235 47.8918C9.10209 46.5766 6.97346 46.5716 5.81749 47.8518C5.42882 48.2825 5.61013 48.8925 6.14905 49.0999C6.53371 49.2481 6.78814 49.0348 7.04558 48.8314C7.58951 48.4027 8.15046 48.3656 8.76451 48.6782C9.05501 48.8254 9.25234 49.1039 9.63299 49.2151C9.67306 49.2311 9.71814 49.2411 9.76722 49.2461C9.76922 49.2461 9.77123 49.2461 9.77223 49.2471C9.78725 49.2481 9.80328 49.2491 9.81931 49.2491C9.87641 49.2491 9.9285 49.2411 9.97458 49.2271C10.0156 49.2171 10.0537 49.2031 10.0888 49.185C10.2 49.138 10.2771 49.0518 10.3232 48.9506C10.3322 48.9356 10.3392 48.9196 10.3462 48.9026C10.3672 48.8675 10.3833 48.8294 10.3953 48.7904C10.4334 48.7112 10.4514 48.6221 10.4484 48.5339C10.4694 48.2925 10.3983 48.0842 10.233 47.8928L10.235 47.8918Z" fill="#CA2033"/>
<path d="M1.92188 31.2904C2.12622 31.1401 2.26346 31.3334 2.40269 31.4066C5.51701 33.0554 9.21131 32.238 11.4521 29.6836C12.575 28.4034 13.1861 26.8899 13.2442 25.1559C13.2903 23.7595 13.0118 22.4563 12.3627 21.2252C12.3026 21.111 12.2795 20.9768 12.2395 20.8516C14.6586 22.4303 15.8426 25.3693 15.3848 28.119C14.868 31.2232 12.5951 33.6544 9.71316 34.2524C6.65394 34.8875 4.11562 33.9739 2.10919 31.5799C2.03607 31.4927 1.98398 31.3865 1.92188 31.2894V31.2904Z" fill="#FFC83B"/>
<path d="M8.01865 29.4644C8.35021 29.4644 8.68178 29.4554 9.01334 29.4664C9.52021 29.4834 9.84476 29.808 9.83474 30.2728C9.82673 30.6574 9.48214 30.969 9.01835 30.976C8.32216 30.987 7.62598 30.989 6.93079 30.976C6.51007 30.968 6.15146 30.6054 6.14846 30.2257C6.14545 29.8511 6.50907 29.4854 6.92478 29.4694C7.2884 29.4554 7.65402 29.4664 8.01865 29.4664V29.4644Z" fill="#F47D42"/>
<path d="M9.53225 26.0491C9.52223 25.4431 9.87984 25.0013 10.4017 24.9773C10.8826 24.9552 11.3273 25.4441 11.3353 26.004C11.3433 26.588 10.9557 27.0558 10.4508 27.0698C9.93093 27.0849 9.54227 26.6521 9.53125 26.0491H9.53225Z" fill="#F47D42"/>
<path d="M4.72756 26.0351C4.72656 25.4602 5.08017 24.9864 5.52292 24.9693C6.04982 24.9503 6.44349 25.4061 6.44049 26.0321C6.43748 26.6302 6.05683 27.0649 5.53995 27.0619C5.02808 27.0589 4.72857 26.6792 4.72656 26.0341L4.72756 26.0351Z" fill="#F47D42"/>
<path d="M10.4288 43.1484C10.9567 43.1484 11.3413 43.5792 11.3363 44.1672C11.3313 44.7291 10.9497 45.1579 10.4458 45.1659C9.92092 45.1739 9.52925 44.7392 9.53126 44.1501C9.53326 43.487 9.83678 43.1494 10.4288 43.1494V43.1484Z" fill="#CA2033"/>
<path d="M4.72657 44.1331C4.72958 43.48 5.01507 43.1504 5.58003 43.1484C6.148 43.1474 6.45452 43.5161 6.4445 44.1892C6.43649 44.7502 6.04282 45.1699 5.53295 45.1649C5.00204 45.1589 4.72457 44.8033 4.72657 44.1321V44.1331Z" fill="#CA2033"/>
<path d="M1.92188 13.1654C2.12622 13.0151 2.26346 13.2084 2.4027 13.2816C5.51701 14.9304 9.21131 14.113 11.4521 11.5586C12.575 10.2784 13.1861 8.76486 13.2442 7.0309C13.2903 5.63452 13.0118 4.3313 12.3627 3.1002C12.3026 2.986 12.2795 2.85178 12.2395 2.72656C14.6586 4.30525 15.8426 7.24427 15.3848 9.99396C14.868 13.0983 12.5951 15.5294 9.71316 16.1274C6.65394 16.7625 4.11562 15.8489 2.10919 13.4549C2.03607 13.3677 1.98398 13.2615 1.92188 13.1644V13.1654Z" fill="#92C43E"/>
<path d="M8.01865 11.3316C8.35021 11.3316 8.68178 11.3226 9.01334 11.3336C9.52021 11.3506 9.84476 11.6752 9.83474 12.14C9.82673 12.5246 9.48214 12.8362 9.01835 12.8432C8.32216 12.8542 7.62598 12.8562 6.93079 12.8432C6.51007 12.8352 6.15146 12.4725 6.14846 12.0929C6.14545 11.7183 6.50907 11.3526 6.92478 11.3366C7.2884 11.3226 7.65402 11.3336 8.01865 11.3336V11.3316Z" fill="#4D7F3B"/>
<path d="M9.53225 7.9163C9.52223 7.31026 9.87984 6.86851 10.4017 6.84447C10.8826 6.82243 11.3273 7.31126 11.3353 7.87122C11.3433 8.45521 10.9557 8.92301 10.4508 8.93704C9.93093 8.95206 9.54227 8.51932 9.53125 7.9163H9.53225Z" fill="#4D7F3B"/>
<path d="M4.72756 7.91014C4.72656 7.33516 5.08017 6.86135 5.52292 6.84432C6.04982 6.82529 6.44349 7.28107 6.44049 7.90714C6.43748 8.50516 6.05683 8.9399 5.53995 8.93689C5.02808 8.93389 4.72857 8.55424 4.72656 7.90914L4.72756 7.91014Z" fill="#4D7F3B"/>
</g>
<defs>
<clipPath id="clip0_8863_55528">
<rect width="51.014" height="51.6" fill="white" transform="translate(0.5 0.96875)"/>
</clipPath>
</defs>
</svg>
