<svg width="51" height="51" viewBox="0 0 51 51" fill="none" xmlns="http://www.w3.org/2000/svg">
<g clip-path="url(#clip0_8863_55465)">
<path d="M25.7554 50.1867H7.4296C6.42574 50.1229 5.47198 49.8832 4.59188 49.3793C2.01446 47.905 0.556801 45.6694 0.536173 42.7187C0.472327 33.5229 0.511617 24.3251 0.515546 15.1283C0.515546 14.8749 0.46054 14.5989 0.682529 14.3906C0.791558 14.3995 0.865227 14.4702 0.913357 14.5547C1.27286 15.1941 1.84551 15.3336 2.5321 15.3326C9.94416 15.3218 17.3562 15.3238 24.7683 15.3297C25.1307 15.3297 25.5325 15.2324 25.8183 15.5821C25.9371 15.81 25.9195 16.0575 25.9195 16.3011C25.9214 27.3318 25.9214 38.3614 25.9195 49.3921C25.9195 49.6652 25.9597 49.953 25.7554 50.1867Z" fill="#FCF3F4"/>
<path d="M25.7578 50.1876C25.7598 38.655 25.7617 27.1224 25.7627 15.5888C25.9965 15.3698 26.2892 15.4493 26.5574 15.4493C33.9223 15.4444 41.2872 15.4464 48.6521 15.4444C48.9124 15.4444 49.1746 15.4719 49.432 15.4071C49.6825 15.357 49.928 15.2971 50.1549 15.1635C50.2561 15.1046 50.3985 14.9592 50.4997 15.1831C50.5026 24.9673 50.4948 34.7505 50.5085 44.5337C50.5105 45.629 49.9791 46.4756 49.3564 47.2742C48.5431 48.3174 47.5353 49.1375 46.3114 49.6788C45.6906 49.9538 45.0502 50.1149 44.3734 50.1365C44.1799 50.1601 43.9776 50.0835 43.79 50.1866H25.7578V50.1876Z" fill="#D5EBEC"/>
<path d="M44.2802 50.0909C44.2802 50.1234 44.2792 50.1548 44.2792 50.1872H43.7891C43.9276 50.0261 44.1142 50.1106 44.2802 50.0909Z" fill="#EBF5F4"/>
<path d="M13.0433 3.16895C15.216 3.16797 17.3878 3.166 19.5605 3.16502C19.7736 3.33397 19.7235 3.57757 19.7255 3.79759C19.7353 4.56276 19.7196 5.32892 19.7324 6.09409C19.7461 6.90052 20.2284 7.45156 20.9356 7.49281C21.6959 7.53603 22.2843 7.01839 22.352 6.18642C22.4169 5.3908 22.3619 4.59125 22.3776 3.79366C22.3815 3.57069 22.3363 3.332 22.5259 3.14931C23.6024 3.15323 24.68 3.15618 25.7565 3.16011C25.9815 3.40764 25.9166 3.71508 25.9166 4.0019C25.9215 7.41423 25.9196 10.8266 25.9196 14.2389C25.9196 14.3371 25.9196 14.4344 25.9196 14.5326C25.9235 15.3184 25.9265 15.3253 26.7083 15.3253C33.9888 15.3263 41.2692 15.3243 48.5486 15.3312C48.8944 15.3312 49.2735 15.2202 49.5721 15.5148C49.3747 15.6298 49.1576 15.5777 48.9494 15.5777C41.4146 15.5807 33.8807 15.5797 26.3459 15.5807C26.1504 15.5807 25.9549 15.5875 25.7595 15.5915C25.5591 15.4873 25.343 15.5335 25.1338 15.5335C17.5724 15.5306 10.012 15.5247 2.45069 15.5394C1.57648 15.5414 0.972401 15.2369 0.672815 14.398C0.670851 12.4581 0.656117 10.5172 0.669868 8.57722C0.69246 5.5401 3.02039 3.19645 6.06045 3.15029C7.3973 3.12966 8.73414 3.14832 10.071 3.14931C10.2488 3.31531 10.2164 3.53729 10.2193 3.74455C10.2272 4.4115 10.2213 5.07943 10.2222 5.74637C10.2222 6.04105 10.2507 6.33179 10.3499 6.61173C10.57 7.23448 11.1131 7.56943 11.7614 7.48397C12.3508 7.40637 12.8232 6.91525 12.8547 6.28759C12.8959 5.45857 12.8586 4.62759 12.8724 3.79759C12.8763 3.57757 12.8223 3.33397 13.0423 3.16797L13.0433 3.16895Z" fill="#F04E4E"/>
<path d="M19.5703 24.3251C19.5654 23.502 20.1882 22.8547 20.9975 22.8439C21.8059 22.8331 22.5132 23.5256 22.5053 24.3212C22.4974 25.1011 21.8128 25.7769 21.026 25.7808C20.2176 25.7847 19.5753 25.1423 19.5703 24.3251Z" fill="#3087C8"/>
<path d="M13.0326 24.2896C13.0405 25.1078 12.4167 25.761 11.6103 25.7797C10.8059 25.7974 10.0976 25.1059 10.1016 24.3063C10.1055 23.5215 10.7852 22.8447 11.57 22.8438C12.3843 22.8438 13.0257 23.4763 13.0336 24.2896H13.0326Z" fill="#3087C8"/>
<path d="M11.589 35.4542C12.4161 35.463 13.0359 36.0966 13.028 36.9256C13.0201 37.7487 12.3817 38.3665 11.5507 38.3577C10.7364 38.3489 10.0783 37.6849 10.094 36.8863C10.1097 36.0759 10.7678 35.4453 11.59 35.4532L11.589 35.4542Z" fill="#3087C8"/>
<path d="M21.0191 38.3645C20.1891 38.3635 19.5674 37.7368 19.5703 36.9049C19.5733 36.0759 20.2019 35.4551 21.0339 35.461C21.8531 35.4659 22.5122 36.1191 22.5063 36.9196C22.5004 37.7211 21.8374 38.3665 21.0191 38.3645Z" fill="#3087C8"/>
<path d="M49.5702 15.5184C49.3747 15.5106 49.1792 15.4968 48.9838 15.4968C41.4725 15.4958 33.9613 15.4968 26.45 15.4948C25.6691 15.4948 25.7526 15.5646 25.7526 14.7749C25.7516 10.9038 25.7526 7.03277 25.7536 3.16271C26.8252 3.15681 27.8978 3.1519 28.9695 3.14601C29.1738 3.31987 29.1266 3.56052 29.1296 3.78152C29.1404 4.56241 29.1099 5.3433 29.1423 6.12321C29.1806 7.05045 29.8938 7.63784 30.7326 7.46692C31.3553 7.33923 31.7384 6.88052 31.7679 6.16937C31.8003 5.37375 31.7699 4.57616 31.7816 3.77956C31.7846 3.55953 31.7345 3.31692 31.9476 3.14797C34.0988 3.14601 36.2489 3.14404 38.4 3.14208C38.57 3.31397 38.5336 3.53498 38.5366 3.74322C38.5444 4.3306 38.5415 4.917 38.5385 5.50439C38.5366 5.83246 38.5759 6.15562 38.6554 6.47289C38.8126 7.09563 39.3165 7.50425 39.9176 7.5013C40.5079 7.49836 41.0482 7.07501 41.1867 6.47289C41.3792 5.63601 41.2486 4.78244 41.2879 3.9377C41.3006 3.66758 41.2201 3.37782 41.4293 3.14208C42.7848 3.14306 44.1413 3.11458 45.4958 3.15288C47.6106 3.2128 49.1753 4.21568 50.2224 6.04266C50.3864 6.32948 50.4562 6.63299 50.4542 6.97285C50.4414 9.68484 50.4444 12.3959 50.4414 15.1078C50.1811 15.3092 49.9258 15.5224 49.5692 15.5194L49.5702 15.5184Z" fill="#E71C4B"/>
<path d="M30.5645 40.8576C30.5939 40.3763 30.7982 40.0031 31.1243 39.6789C31.971 38.8401 32.805 37.9875 33.6585 37.1565C33.857 36.963 33.8579 36.8618 33.6585 36.6673C32.7706 35.801 31.8925 34.9229 31.0261 34.0349C30.5939 33.5919 30.4397 33.0536 30.6705 32.4584C30.8827 31.9123 31.2962 31.5901 31.8826 31.5194C32.4101 31.4555 32.8325 31.6775 33.1949 32.0419C34.0249 32.8749 34.8687 33.6941 35.681 34.5427C35.9275 34.8011 36.0533 34.7686 36.2841 34.5309C37.1239 33.6626 37.9824 32.811 38.8448 31.9653C39.3045 31.5145 39.8565 31.373 40.4646 31.6215C41.0294 31.8523 41.3348 32.2934 41.3731 32.9043C41.4056 33.4151 41.1708 33.81 40.8182 34.1587C39.9823 34.9857 39.1621 35.8285 38.3174 36.6457C38.1003 36.8559 38.1003 36.9659 38.3174 37.1771C39.1955 38.0297 40.0569 38.902 40.9184 39.7722C41.3614 40.2192 41.4959 40.7614 41.2887 41.3497C41.0942 41.9017 40.6708 42.22 40.0874 42.3015C39.5579 42.3762 39.1356 42.1561 38.7721 41.7917C37.9412 40.9598 37.1004 40.1376 36.2841 39.2919C36.0533 39.0532 35.9285 39.0228 35.681 39.2801C34.8441 40.1514 33.9827 40.9991 33.1222 41.8477C32.6792 42.2838 32.1449 42.441 31.5487 42.2308C31.0134 42.0422 30.7059 41.6356 30.59 41.0845C30.5733 41.0049 30.5704 40.9224 30.5625 40.8586L30.5645 40.8576Z" fill="#E71C4B"/>
<path d="M31.9271 24.3152C31.9242 25.1177 31.2641 25.7778 30.4626 25.7768C29.6778 25.7768 28.9951 25.0872 29 24.3024C29.0049 23.5117 29.6866 22.8379 30.4754 22.8438C31.2788 22.8497 31.9291 23.5098 31.9271 24.3152Z" fill="#0666A3"/>
<path d="M41.3654 24.3034C41.3684 25.1137 40.723 25.7718 39.9205 25.7777C39.119 25.7826 38.4707 25.1285 38.4688 24.3152C38.4668 23.4989 39.1072 22.8457 39.9107 22.8438C40.7152 22.8418 41.3634 23.493 41.3664 24.3044L41.3654 24.3034Z" fill="#0566A3"/>
<path d="M41.4355 3.1337C41.4237 4.09238 41.4178 5.05203 41.3992 6.01071C41.3785 6.99787 40.8187 7.6324 39.969 7.65008C39.1665 7.66678 38.5457 7.15405 38.4819 6.35057C38.4288 5.68657 38.4554 5.01667 38.4426 4.34972C38.4347 3.94406 38.419 3.53937 38.4062 3.1337C38.5801 2.61114 38.4613 2.07483 38.4789 1.5454C38.5084 0.682005 39.0025 0.0818508 39.7902 0.00719981C40.5888 -0.0684334 41.189 0.45707 41.3609 1.33618C41.4787 1.93536 41.3795 2.53551 41.4345 3.13272L41.4355 3.1337Z" fill="#85D3EB"/>
<path d="M22.5289 3.1492C22.522 4.15895 22.5309 5.1687 22.5043 6.17846C22.4847 6.93675 21.9779 7.52807 21.303 7.64299C20.5821 7.76577 19.923 7.39153 19.6548 6.72164C19.5664 6.50063 19.5674 6.2757 19.5664 6.04978C19.5615 5.08914 19.5635 4.12752 19.5625 3.16688C19.5684 2.64432 19.6155 2.11882 19.5713 1.60117C19.4957 0.708309 20.1921 0.0187699 20.9887 0.0079652C21.8227 -0.00382179 22.4827 0.668037 22.5171 1.58349C22.5368 2.10507 22.5259 2.62762 22.5289 3.15018V3.1492Z" fill="#AEE0F0"/>
<path d="M13.0397 3.16875C13.0397 4.11269 13.0465 5.05761 13.0397 6.00155C13.0328 7.01425 12.468 7.64977 11.5869 7.65566C10.6842 7.66155 10.1017 7.01425 10.0909 5.98191C10.0801 5.03797 10.0762 4.09403 10.0703 3.15008C10.1253 2.46938 9.98977 1.77985 10.1666 1.10308C10.3453 0.417465 11.0634 -0.080535 11.7588 0.0108142C12.4837 0.106092 13.0023 0.678744 13.0171 1.40659C13.0288 1.99398 13.0338 2.58234 13.0416 3.16973L13.0397 3.16875Z" fill="#AEE0F0"/>
<path d="M31.9479 3.14322C31.943 4.12351 31.9401 5.10281 31.9312 6.0831C31.9224 7.01623 31.3419 7.64586 30.4893 7.6547C29.6111 7.66354 29.0002 7.03293 28.9874 6.08211C28.9737 5.10281 28.9746 4.12253 28.9688 3.14224C28.9746 2.62263 28.9776 2.10302 28.9874 1.58341C29.0041 0.688582 29.6288 0.0157417 30.4461 0.00788369C31.3134 2.56957e-05 31.9165 0.643399 31.9263 1.58439C31.9322 2.104 31.9401 2.62361 31.9469 3.14322H31.9479Z" fill="#85D4EB"/>
</g>
<defs>
<clipPath id="clip0_8863_55465">
<rect width="50.0063" height="50.19" fill="white" transform="translate(0.5)"/>
</clipPath>
</defs>
</svg>
