<svg width="46" height="53" viewBox="0 0 46 53" fill="none" xmlns="http://www.w3.org/2000/svg">
<g clip-path="url(#clip0_9430_74841)">
<path d="M24.2298 2C24.9451 2.24627 25.7036 2.33087 26.4058 2.64105C29.3516 3.94196 31.1751 6.14804 31.7241 9.32323C32.1452 11.7558 31.5887 14.0033 30.1149 15.9951C29.737 16.5055 29.3366 17.013 28.8064 17.3871C28.7115 17.4539 28.6382 17.5253 28.6382 17.6494C28.1729 18.1786 27.5497 18.4831 26.9378 18.7792C25.7121 19.3714 24.4046 19.6562 23.0389 19.6665C22.6027 19.6421 22.5886 19.6337 22.582 19.3893C22.9167 19.2548 22.9552 18.9766 22.9552 18.6627C22.9514 16.8542 22.9533 15.0457 22.9533 13.2372C22.9533 9.76031 22.9524 6.28434 22.9552 2.80743C22.9552 2.53202 22.9035 2.24063 23.1047 2L24.2298 2Z" fill="#FED3C6"/>
<path d="M23.1053 2C23.1053 7.6031 23.1006 13.2062 23.1147 18.8093C23.1156 19.2614 23.047 19.535 22.5253 19.456C22.3533 19.6045 22.1418 19.5829 21.9473 19.5547C20.3174 19.3178 18.8426 18.7172 17.5717 17.6522C17.5717 17.5319 17.5069 17.4464 17.4204 17.374C15.658 15.9133 14.6626 14.0042 14.4097 11.7681C14.1475 9.44448 14.7124 7.28352 16.1797 5.41488C17.6686 3.51898 19.5992 2.3788 22.0093 2.08554C22.0648 2.07896 22.1146 2.03008 22.1672 2C22.4802 2 22.7923 2 23.1053 2Z" fill="#FEECE5"/>
<path d="M23.1066 19.5443C25.0137 19.4814 26.7639 18.9475 28.3102 17.8064C28.4098 17.733 28.5047 17.6494 28.6382 17.6484C32.9038 19.2924 35.9943 22.1875 37.8724 26.3581C38.7324 28.2681 39.1667 30.2881 39.2146 32.3767C39.3115 36.536 36.9127 39.8907 32.9601 41.1879C32.7646 40.9961 32.8286 40.7489 32.8333 40.5224C32.9226 36.3997 31.068 33.3993 27.5206 31.4132C26.3062 30.7336 24.9479 30.4676 23.5653 30.352C23.3951 30.3379 23.2184 30.3539 23.0718 30.2354C23.0361 30.1894 23.0116 30.1386 22.9947 30.0832C22.9439 29.883 22.9524 29.6799 22.9524 29.4769C22.9515 26.4192 22.9505 23.3615 22.9543 20.3038C22.9543 20.0435 22.9063 19.768 23.1056 19.5443H23.1066Z" fill="#F8044D"/>
<path d="M23.1043 19.5428C23.1043 23.0986 23.1043 26.6536 23.1043 30.2094C22.8298 30.4332 22.4858 30.4031 22.1709 30.4294C17.8358 30.8007 14.2377 34.1319 13.4885 38.4642C13.3682 39.1626 13.3945 39.861 13.3767 40.5612C13.372 40.768 13.4378 41.0096 13.1915 41.1449C9.2963 39.9568 6.77439 36.2177 7.01596 32.1354C7.27444 27.7731 8.93723 24.0818 12.088 21.0665C13.5684 19.6499 15.2735 18.568 17.1873 17.8255C17.3179 17.7747 17.442 17.7089 17.5689 17.6497C17.7804 17.6328 17.9054 17.7898 18.0558 17.8931C19.4046 18.8152 20.871 19.3999 22.5225 19.4535C22.7039 19.5672 22.9154 19.4817 23.1043 19.5437V19.5428Z" fill="#FFCFE1"/>
<path d="M13.1963 41.1455C13.3269 40.8438 13.2461 40.5279 13.2432 40.2206C13.2169 37.3471 14.2622 34.9154 16.3291 32.949C17.96 31.3981 19.916 30.4948 22.1804 30.3087C22.4906 30.2833 22.7989 30.2438 23.1081 30.2109V30.2561C23.236 30.3736 23.2491 30.5333 23.2491 30.6884C23.2491 33.3899 23.283 36.0923 23.2341 38.7918C23.2313 38.8445 23.2228 38.898 23.2096 38.9497C23.0649 39.3051 22.7951 39.5635 22.5291 39.8267C22.3035 40.0495 22.0986 40.0241 21.8834 39.8117C21.7067 39.6369 21.5375 39.4517 21.3466 39.2919C20.7911 38.8257 20.0072 38.8614 19.5316 39.3708C19.0748 39.8596 19.0813 40.5768 19.5776 41.1023C20.1444 41.7019 20.7385 42.2763 21.326 42.8562C21.7217 43.2472 22.1954 43.3065 22.7115 43.1749C22.9051 43.125 23.1138 43.0198 23.2115 43.3159C23.2952 43.7802 23.2519 44.2483 23.2538 44.7136C23.2595 46.2382 23.2585 47.7619 23.2538 49.2865C23.2538 49.5299 23.2971 49.7894 23.1081 49.998C19.0437 49.8975 16.0923 48.0091 14.2133 44.4278C13.7471 43.5396 13.4707 42.5808 13.3419 41.5835C13.3222 41.4275 13.2893 41.2761 13.1953 41.1464L13.1963 41.1455Z" fill="#FFF8BE"/>
<path d="M23.1181 38.9613C23.1143 36.0606 23.1105 33.1589 23.1068 30.2582C25.3899 30.2385 27.4409 30.9397 29.2081 32.3656C31.8606 34.5059 33.1202 37.3042 32.9651 40.7228C32.9585 40.8779 32.9623 41.0339 32.9604 41.19C32.6257 43.6752 31.5927 45.808 29.7091 47.4849C27.8329 49.1552 25.64 50.0322 23.1077 50.0002C23.1058 47.7227 23.103 45.4442 23.1011 43.1667C23.0729 43.1272 23.0673 43.084 23.0823 43.0389C23.5711 42.4335 24.137 41.8977 24.6652 41.3291C25.279 40.6683 25.858 39.9736 26.516 39.3533C26.7811 39.1032 26.9709 38.7884 27.0057 38.419C27.0574 37.8775 26.8563 37.4414 26.3778 37.1566C25.9445 36.8981 25.3317 36.9357 24.9294 37.2666C24.5806 37.5532 24.2817 37.8916 23.9838 38.2328C23.7365 38.5167 23.5439 38.8842 23.1171 38.9594L23.1181 38.9613Z" fill="#FFBE40"/>
<path d="M23.1181 38.9652C23.6332 38.4257 24.1436 37.8805 24.6653 37.3466C25.2434 36.7554 26.1072 36.7074 26.6778 37.2225C27.2587 37.747 27.3282 38.6184 26.7699 39.234C25.6194 40.5021 24.436 41.7409 23.2638 42.9901C23.2234 43.0334 23.1614 43.0559 23.1087 43.0879C22.9442 42.929 22.9593 42.7194 22.9574 42.5201C22.9499 41.5877 22.9546 40.6553 22.9546 39.7228C22.9546 39.4869 22.9912 39.2594 23.1059 39.0489C23.1087 39.0207 23.1134 38.9934 23.1191 38.9652H23.1181Z" fill="#151F1F"/>
<path d="M23.1073 39.0479C23.1083 40.3939 23.1092 41.7408 23.1102 43.0869C23.1102 43.1151 23.1083 43.1423 23.1036 43.1705C22.2943 43.5644 21.6128 43.413 21.0084 42.7381C20.5403 42.2155 20.0158 41.7446 19.5261 41.2408C18.9367 40.6345 18.9245 39.7932 19.4857 39.2321C20.0365 38.6813 20.8975 38.6982 21.5075 39.2556C21.7538 39.4802 21.954 39.9314 22.251 39.875C22.5246 39.8233 22.7314 39.421 22.9692 39.1748C23.0124 39.1306 23.0613 39.0911 23.1073 39.0497V39.0479Z" fill="#384949"/>
</g>
<defs>
<clipPath id="clip0_9430_74841">
<rect width="32.2171" height="48" fill="white" transform="translate(7 2)"/>
</clipPath>
</defs>
</svg>
