<svg width="24" height="25" viewBox="0 0 24 25" fill="none" xmlns="http://www.w3.org/2000/svg">
<path d="M7.75 3.25C7.75 2.83579 7.41421 2.5 7 2.5C6.58579 2.5 6.25 2.83579 6.25 3.25V4.82926C4.81067 4.94451 3.86577 5.22737 3.17157 5.92157C2.47737 6.61577 2.19451 7.56067 2.07926 9L21.9207 9C21.8055 7.56067 21.5226 6.61577 20.8284 5.92157C20.1342 5.22737 19.1893 4.94451 17.75 4.82926V3.25C17.75 2.83579 17.4142 2.5 17 2.5C16.5858 2.5 16.25 2.83579 16.25 3.25V4.7629C15.5847 4.75 14.839 4.75 14 4.75H10C9.16097 4.75 8.41527 4.75 7.75 4.7629V3.25Z" fill="white"/>
<path fill-rule="evenodd" clip-rule="evenodd" d="M22 12.75L22 14.75C22 18.5212 22 20.4069 20.8284 21.5784C19.6569 22.75 17.7712 22.75 14 22.75L10 22.75C6.22876 22.75 4.34315 22.75 3.17157 21.5784C2 20.4069 2 18.5212 2 14.75L2 12.75C2 11.911 2 11.1653 2.0129 10.5L21.9871 10.5C22 11.1653 22 11.911 22 12.75ZM16 14C16.4142 14 16.75 14.3358 16.75 14.75V16L18 16C18.4142 16 18.75 16.3358 18.75 16.75C18.75 17.1642 18.4142 17.5 18 17.5H16.75L16.75 18.75C16.75 19.1642 16.4142 19.5 16 19.5C15.5858 19.5 15.25 19.1642 15.25 18.75L15.25 17.5L14 17.5C13.5858 17.5 13.25 17.1642 13.25 16.75C13.25 16.3358 13.5858 16 14 16H15.25V14.75C15.25 14.3358 15.5858 14 16 14Z" fill="white"/>
</svg>
