<svg width="15" height="15" viewBox="0 0 15 15" fill="none" xmlns="http://www.w3.org/2000/svg">
<path fill-rule="evenodd" clip-rule="evenodd" d="M2.49865 3.12788V11.8774C2.49865 12.9128 3.33806 13.7522 4.37354 13.7522H10.6232C11.6586 13.7522 12.498 12.9128 12.498 11.8774V5.62773C12.498 4.59226 11.6586 3.75284 10.6232 3.75284H3.12361C2.77845 3.75284 2.49865 3.47304 2.49865 3.12788ZM4.52978 7.50262C4.52978 7.24375 4.73963 7.0339 4.9985 7.0339H9.9982C10.2571 7.0339 10.4669 7.24375 10.4669 7.50262C10.4669 7.76149 10.2571 7.97134 9.9982 7.97134H4.9985C4.73963 7.97134 4.52978 7.76149 4.52978 7.50262ZM4.52978 9.68999C4.52978 9.43112 4.73963 9.22127 4.9985 9.22127H8.43579C8.69466 9.22127 8.90451 9.43112 8.90451 9.68999C8.90451 9.94886 8.69466 10.1587 8.43579 10.1587H4.9985C4.73963 10.1587 4.52978 9.94886 4.52978 9.68999Z" fill="white"/>
<path d="M2.75412 2.55735C2.97191 2.65503 3.12361 2.87374 3.12361 3.12788H10.6232C10.839 3.12788 11.0484 3.15523 11.2481 3.20664V2.69418C11.2481 1.93354 10.5744 1.34925 9.82143 1.45682L3.07336 2.42083C2.95307 2.43802 2.84407 2.48651 2.75412 2.55735Z" fill="white"/>
</svg>
