<svg width="27" height="27" viewBox="0 0 27 27" fill="none" xmlns="http://www.w3.org/2000/svg">
<path d="M9.39526 22.7744C10.3415 23.9772 11.828 24.7523 13.4995 24.7523C15.1711 24.7523 16.6575 23.9772 17.6037 22.7744C14.8792 23.1436 12.1198 23.1436 9.39526 22.7744Z" fill="#FCFCFD"/>
<path d="M21.0923 10.1273V10.9194C21.0923 11.8701 21.3636 12.7994 21.872 13.5904L23.1178 15.5286C24.2558 17.299 23.3871 19.7055 21.4078 20.2653C16.2302 21.7299 10.7688 21.7299 5.59116 20.2653C3.61193 19.7055 2.74318 17.299 3.88115 15.5286L5.12702 13.5904C5.63543 12.7994 5.90673 11.8701 5.90673 10.9194V10.1273C5.90673 5.77809 9.30613 2.25233 13.4995 2.25233C17.6929 2.25233 21.0923 5.77809 21.0923 10.1273Z" fill="#FCFCFD"/>
</svg>
