<svg width="19" height="18" viewBox="0 0 19 18" fill="none" xmlns="http://www.w3.org/2000/svg">
<path d="M3.00781 4.97744L8.02615 2.62474C9.0919 2.12509 10.2863 2.12509 11.352 2.62474L16.3704 4.97748C17.462 5.48925 17.462 7.26079 16.3704 7.77256L11.3521 10.1253C10.2863 10.6249 9.09197 10.6249 8.02621 10.1253L4.43911 8.44355" stroke="#EAECF0" stroke-linecap="round"/>
<path d="M2.5625 11.25V9.10319C2.5625 8.14377 2.5625 7.66406 2.81024 7.28836C3.05798 6.91265 3.4989 6.72369 4.38074 6.34575L5.1875 6" stroke="#EAECF0" stroke-linecap="round" stroke-linejoin="round"/>
<path d="M14.9375 8.625V12.4691C14.9375 13.2251 14.5599 13.9329 13.8985 14.2992C12.7972 14.9091 11.0345 15.75 9.6875 15.75C8.3405 15.75 6.57778 14.9091 5.4765 14.2992C4.81513 13.9329 4.4375 13.2251 4.4375 12.4691V8.625" stroke="#EAECF0" stroke-linecap="round"/>
</svg>
