<svg xmlns="http://www.w3.org/2000/svg" width="19" height="19" viewBox="0 0 19 19" fill="none">
    <path
        d="M3.25977 5.71182L8.2781 3.35911C9.34385 2.85946 10.5382 2.85946 11.604 3.35911L16.6224 5.71185C17.714 6.22362 17.714 7.99516 16.6224 8.50693L11.604 10.8596C10.5383 11.3593 9.34392 11.3593 8.27817 10.8596L4.69106 9.17792"
        stroke="#667085" stroke-linecap="round" />
    <path
        d="M2.81641 11.9844V9.83756C2.81641 8.87815 2.81641 8.39844 3.06414 8.02273C3.31188 7.64703 3.7528 7.45806 4.63465 7.08013L5.44141 6.73438"
        stroke="#667085" stroke-linecap="round" stroke-linejoin="round" />
    <path
        d="M15.1914 9.35938V13.2034C15.1914 13.9595 14.8138 14.6673 14.1524 15.0335C13.0511 15.6434 11.2884 16.4844 9.94141 16.4844C8.5944 16.4844 6.83168 15.6434 5.73041 15.0335C5.06903 14.6673 4.69141 13.9595 4.69141 13.2034V9.35938"
        stroke="#667085" stroke-linecap="round" />
</svg>