<svg width="17" height="17" viewBox="0 0 17 17" fill="none" xmlns="http://www.w3.org/2000/svg">
<g clip-path="url(#clip0_6985_5813)">
<ellipse cx="6.22526" cy="4.1276" rx="2.66667" ry="2.66667" stroke="#475467"/>
<path d="M10.2266 6.125C11.3311 6.125 12.2266 5.22957 12.2266 4.125C12.2266 3.02043 11.3311 2.125 10.2266 2.125" stroke="#475467" stroke-linecap="round"/>
<path d="M4.15136 13.8453C4.77611 14.0226 5.4803 14.1224 6.22526 14.1224C8.80259 14.1224 10.8919 12.9285 10.8919 11.4557C10.8919 9.98297 8.80259 8.78906 6.22526 8.78906C3.64793 8.78906 1.55859 9.98297 1.55859 11.4557C1.55859 11.6859 1.60964 11.9093 1.70561 12.1224" stroke="#475467" stroke-linecap="round"/>
<path d="M12.2266 9.46094C13.3961 9.7174 14.2266 10.3669 14.2266 11.1276C14.2266 11.8138 13.5507 12.4095 12.5599 12.7079" stroke="#475467" stroke-linecap="round"/>
</g>
<defs>
<clipPath id="clip0_6985_5813">
<rect width="16" height="16" fill="white" transform="translate(0.226562 0.125)"/>
</clipPath>
</defs>
</svg>
