<svg width="25" height="25" viewBox="0 0 25 25" fill="none" xmlns="http://www.w3.org/2000/svg">
<g id="Bold / Messages, Coversation / Chat Square Line Chat Line">
<path id="Vector" fill-rule="evenodd" clip-rule="evenodd" d="M14.1756 20.9093L13.6335 21.8252C13.1504 22.6415 11.9433 22.6415 11.4602 21.8252L10.9181 20.9093C10.4976 20.1989 10.2874 19.8438 9.94967 19.6473C9.61197 19.4509 9.1868 19.4436 8.33645 19.429C7.08109 19.4073 6.29376 19.3304 5.63346 19.0569C4.40832 18.5494 3.43495 17.5761 2.92748 16.3509C2.54688 15.4321 2.54688 14.2672 2.54688 11.9375V10.9375C2.54688 7.66407 2.54688 6.02735 3.28367 4.82501C3.69595 4.15223 4.2616 3.58658 4.93438 3.1743C6.13673 2.4375 7.77344 2.4375 11.0469 2.4375H14.0469C17.3203 2.4375 18.957 2.4375 20.1594 3.1743C20.8321 3.58658 21.3978 4.15223 21.8101 4.82501C22.5469 6.02735 22.5469 7.66407 22.5469 10.9375V11.9375C22.5469 14.2672 22.5469 15.4321 22.1663 16.3509C21.6588 17.5761 20.6854 18.5494 19.4603 19.0569C18.8 19.3304 18.0126 19.4073 16.7573 19.429C15.9069 19.4436 15.4817 19.4509 15.144 19.6473C14.8063 19.8438 14.5961 20.1989 14.1756 20.9093ZM8.54688 12.1875C8.13266 12.1875 7.79688 12.5233 7.79688 12.9375C7.79688 13.3517 8.13266 13.6875 8.54688 13.6875H14.0469C14.4611 13.6875 14.7969 13.3517 14.7969 12.9375C14.7969 12.5233 14.4611 12.1875 14.0469 12.1875H8.54688ZM7.79688 9.4375C7.79688 9.02329 8.13266 8.6875 8.54688 8.6875H16.5469C16.9611 8.6875 17.2969 9.02329 17.2969 9.4375C17.2969 9.85171 16.9611 10.1875 16.5469 10.1875H8.54688C8.13266 10.1875 7.79688 9.85171 7.79688 9.4375Z" fill="#9C292E"/>
</g>
</svg>
