<svg width="18" height="18" viewBox="0 0 18 18" fill="none" xmlns="http://www.w3.org/2000/svg">
<path fill-rule="evenodd" clip-rule="evenodd" d="M9.22557 1.38281C6.19376 1.38281 3.73599 3.84058 3.73599 6.8724V7.37114C3.73599 7.86479 3.58987 8.3474 3.31604 8.75814L2.50245 9.97853C1.55817 11.3949 2.27904 13.3202 3.92138 13.7681C4.45661 13.9141 4.99635 14.0376 5.53922 14.1385L5.54057 14.1422C6.08527 15.5956 7.54112 16.612 9.22553 16.612C10.9099 16.612 12.3658 15.5956 12.9105 14.1422L12.9118 14.1386C13.4547 14.0376 13.9945 13.9141 14.5298 13.7681C16.1721 13.3202 16.893 11.3949 15.9487 9.97853L15.1351 8.75814C14.8613 8.3474 14.7152 7.86479 14.7152 7.37114V6.8724C14.7152 3.84058 12.2574 1.38281 9.22557 1.38281ZM11.6172 14.3361C10.0284 14.5259 8.42261 14.5259 6.83385 14.3361C7.33744 15.0597 8.21335 15.5495 9.22553 15.5495C10.2377 15.5495 11.1136 15.0597 11.6172 14.3361ZM4.79849 6.8724C4.79849 4.42739 6.78056 2.44531 9.22557 2.44531C11.6706 2.44531 13.6527 4.42739 13.6527 6.8724V7.37114C13.6527 8.07455 13.8609 8.76223 14.2511 9.34751L15.0646 10.5679C15.6066 11.3809 15.1929 12.486 14.2502 12.7431C10.9605 13.6402 7.49062 13.6402 4.20094 12.7431C3.25827 12.486 2.8445 11.3809 3.3865 10.5679L4.20009 9.34751C4.59028 8.76223 4.79849 8.07455 4.79849 7.37114V6.8724Z" fill="#475467"/>
</svg>
