<svg width="24" height="25" viewBox="0 0 24 25" fill="none" xmlns="http://www.w3.org/2000/svg">
<path d="M7.75 3.28125C7.75 2.86704 7.41421 2.53125 7 2.53125C6.58579 2.53125 6.25 2.86704 6.25 3.28125V4.86051C4.81067 4.97576 3.86577 5.25862 3.17157 5.95282C2.47737 6.64702 2.19451 7.59192 2.07926 9.03125H21.9207C21.8055 7.59192 21.5226 6.64702 20.8284 5.95282C20.1342 5.25862 19.1893 4.97576 17.75 4.86051V3.28125C17.75 2.86704 17.4142 2.53125 17 2.53125C16.5858 2.53125 16.25 2.86704 16.25 3.28125V4.79415C15.5847 4.78125 14.839 4.78125 14 4.78125H10C9.16097 4.78125 8.41527 4.78125 7.75 4.79415V3.28125Z" fill="#98A2B3"/>
<path fill-rule="evenodd" clip-rule="evenodd" d="M2 12.7812C2 11.9422 2 11.1965 2.0129 10.5312H21.9871C22 11.1965 22 11.9422 22 12.7812V14.7812C22 18.5525 22 20.4381 20.8284 21.6097C19.6569 22.7812 17.7712 22.7812 14 22.7812H10C6.22876 22.7812 4.34315 22.7812 3.17157 21.6097C2 20.4381 2 18.5525 2 14.7812V12.7812ZM17 14.7812C17.5523 14.7812 18 14.3335 18 13.7812C18 13.229 17.5523 12.7812 17 12.7812C16.4477 12.7812 16 13.229 16 13.7812C16 14.3335 16.4477 14.7812 17 14.7812ZM17 18.7812C17.5523 18.7812 18 18.3335 18 17.7812C18 17.229 17.5523 16.7812 17 16.7812C16.4477 16.7812 16 17.229 16 17.7812C16 18.3335 16.4477 18.7812 17 18.7812ZM13 13.7812C13 14.3335 12.5523 14.7812 12 14.7812C11.4477 14.7812 11 14.3335 11 13.7812C11 13.229 11.4477 12.7812 12 12.7812C12.5523 12.7812 13 13.229 13 13.7812ZM13 17.7812C13 18.3335 12.5523 18.7812 12 18.7812C11.4477 18.7812 11 18.3335 11 17.7812C11 17.229 11.4477 16.7812 12 16.7812C12.5523 16.7812 13 17.229 13 17.7812ZM7 14.7812C7.55228 14.7812 8 14.3335 8 13.7812C8 13.229 7.55228 12.7812 7 12.7812C6.44772 12.7812 6 13.229 6 13.7812C6 14.3335 6.44772 14.7812 7 14.7812ZM7 18.7812C7.55228 18.7812 8 18.3335 8 17.7812C8 17.229 7.55228 16.7812 7 16.7812C6.44772 16.7812 6 17.229 6 17.7812C6 18.3335 6.44772 18.7812 7 18.7812Z" fill="#98A2B3"/>
</svg>
