<svg width="41" height="42" viewBox="0 0 41 42" fill="none" xmlns="http://www.w3.org/2000/svg">
<g id="Bold / Time / Calendar">
<g id="Subtract">
<path d="M13.2409 4.67969C13.2409 3.97207 12.6672 3.39844 11.9596 3.39844C11.252 3.39844 10.6784 3.97207 10.6784 4.67969V7.37759C8.21953 7.57448 6.60533 8.0577 5.41941 9.24362C4.23348 10.4295 3.75026 12.0437 3.55337 14.5026H37.4492C37.2523 12.0437 36.7691 10.4295 35.5832 9.24362C34.3973 8.0577 32.7831 7.57448 30.3242 7.37759V4.67969C30.3242 3.97207 29.7506 3.39844 29.043 3.39844C28.3354 3.39844 27.7617 3.97207 27.7617 4.67969V7.26423C26.6252 7.24219 25.3513 7.24219 23.918 7.24219H17.0846C15.6513 7.24219 14.3774 7.24219 13.2409 7.26423V4.67969Z" fill="#1C274C"/>
<path fill-rule="evenodd" clip-rule="evenodd" d="M3.41797 20.9089C3.41797 19.4755 3.41797 18.2016 3.44001 17.0651H37.5626C37.5846 18.2016 37.5846 19.4755 37.5846 20.9089V24.3255C37.5846 30.7681 37.5846 33.9893 35.5832 35.9907C33.5818 37.9922 30.3605 37.9922 23.918 37.9922H17.0846C10.6421 37.9922 7.42084 37.9922 5.41941 35.9907C3.41797 33.9893 3.41797 30.7681 3.41797 24.3255V20.9089ZM29.043 24.3255C29.9865 24.3255 30.7513 23.5607 30.7513 22.6172C30.7513 21.6737 29.9865 20.9089 29.043 20.9089C28.0995 20.9089 27.3346 21.6737 27.3346 22.6172C27.3346 23.5607 28.0995 24.3255 29.043 24.3255ZM29.043 31.1589C29.9865 31.1589 30.7513 30.394 30.7513 29.4505C30.7513 28.507 29.9865 27.7422 29.043 27.7422C28.0995 27.7422 27.3346 28.507 27.3346 29.4505C27.3346 30.394 28.0995 31.1589 29.043 31.1589ZM22.2096 22.6172C22.2096 23.5607 21.4448 24.3255 20.5013 24.3255C19.5578 24.3255 18.793 23.5607 18.793 22.6172C18.793 21.6737 19.5578 20.9089 20.5013 20.9089C21.4448 20.9089 22.2096 21.6737 22.2096 22.6172ZM22.2096 29.4505C22.2096 30.394 21.4448 31.1589 20.5013 31.1589C19.5578 31.1589 18.793 30.394 18.793 29.4505C18.793 28.507 19.5578 27.7422 20.5013 27.7422C21.4448 27.7422 22.2096 28.507 22.2096 29.4505ZM11.9596 24.3255C12.9031 24.3255 13.668 23.5607 13.668 22.6172C13.668 21.6737 12.9031 20.9089 11.9596 20.9089C11.0161 20.9089 10.2513 21.6737 10.2513 22.6172C10.2513 23.5607 11.0161 24.3255 11.9596 24.3255ZM11.9596 31.1589C12.9031 31.1589 13.668 30.394 13.668 29.4505C13.668 28.507 12.9031 27.7422 11.9596 27.7422C11.0161 27.7422 10.2513 28.507 10.2513 29.4505C10.2513 30.394 11.0161 31.1589 11.9596 31.1589Z" fill="#1C274C"/>
</g>
</g>
</svg>
