<svg width="24" height="25" viewBox="0 0 24 25" fill="none" xmlns="http://www.w3.org/2000/svg">
<g id="ico/calendar-plus" clip-path="url(#clip0_7814_20589)">
<path id="vec" fill-rule="evenodd" clip-rule="evenodd" d="M8.09922 1.69531C8.59627 1.69531 8.99922 2.09826 8.99922 2.59531V4.09531H14.9992V2.59531C14.9992 2.09826 15.4022 1.69531 15.8992 1.69531C16.3963 1.69531 16.7992 2.09826 16.7992 2.59531V4.09531H19.4992C21.3218 4.09531 22.7992 5.57277 22.7992 7.39531V10.9953C22.7992 11.4924 22.3963 11.8953 21.8992 11.8953H2.99922V19.9953C2.99922 20.8237 3.67079 21.4953 4.49922 21.4953H10.4992C10.9963 21.4953 11.3992 21.8983 11.3992 22.3953C11.3992 22.8924 10.9963 23.2953 10.4992 23.2953H4.49922C2.67668 23.2953 1.19922 21.8179 1.19922 19.9953V7.39531C1.19922 5.57277 2.67668 4.09531 4.49922 4.09531H7.19922V2.59531C7.19922 2.09826 7.60216 1.69531 8.09922 1.69531ZM7.19922 5.89531H4.49922C3.67079 5.89531 2.99922 6.56689 2.99922 7.39531V10.0953H20.9992V7.39531C20.9992 6.56689 20.3276 5.89531 19.4992 5.89531H16.7992V6.79531C16.7992 7.29237 16.3963 7.69531 15.8992 7.69531C15.4022 7.69531 14.9992 7.29237 14.9992 6.79531V5.89531H8.99922V6.79531C8.99922 7.29237 8.59627 7.69531 8.09922 7.69531C7.60216 7.69531 7.19922 7.29237 7.19922 6.79531V5.89531ZM19.1992 14.8953C19.6963 14.8953 20.0992 15.2983 20.0992 15.7953V18.7955H23.0992C23.5963 18.7955 23.9992 19.1984 23.9992 19.6955C23.9992 20.1925 23.5963 20.5955 23.0992 20.5955H20.0992V23.5953C20.0992 24.0924 19.6963 24.4953 19.1992 24.4953C18.7022 24.4953 18.2992 24.0924 18.2992 23.5953V20.5955H15.2992C14.8022 20.5955 14.3992 20.1925 14.3992 19.6955C14.3992 19.1984 14.8022 18.7955 15.2992 18.7955H18.2992V15.7953C18.2992 15.2983 18.7022 14.8953 19.1992 14.8953Z" fill="#475467"/>
</g>
<defs>
<clipPath id="clip0_7814_20589">
<rect width="24" height="24" fill="white" transform="translate(0 0.492188)"/>
</clipPath>
</defs>
</svg>
