<svg width="20" height="20" viewBox="0 0 20 20" fill="none" xmlns="http://www.w3.org/2000/svg">
<g id="Bold / Call / Phone Rounded">
<path id="Vector" d="M8.36336 4.43275L8.9042 5.40185C9.39228 6.27642 9.19635 7.42371 8.42763 8.19243C8.42762 8.19244 8.42762 8.19244 8.42762 8.19244C8.42751 8.19255 7.49528 9.125 9.18579 10.8155C10.8756 12.5054 11.8081 11.5745 11.8089 11.5737C11.8089 11.5737 11.8089 11.5737 11.8089 11.5736C12.5776 10.8049 13.7249 10.609 14.5994 11.0971L15.5686 11.6379C16.8892 12.375 17.0451 14.227 15.8843 15.3878C15.1868 16.0853 14.3324 16.628 13.3878 16.6638C11.7977 16.7241 9.09726 16.3217 6.38845 13.6129C3.67964 10.904 3.27721 8.20362 3.33749 6.61351C3.3733 5.66894 3.91603 4.81447 4.61354 4.11696C5.77433 2.95617 7.62634 3.11214 8.36336 4.43275Z" fill="#1C274C"/>
</g>
</svg>
