<svg width="21" height="20" viewBox="0 0 21 20" fill="none" xmlns="http://www.w3.org/2000/svg">
<g clip-path="url(#clip0_8265_5109)">
<path d="M18.5617 14.0975V16.5975C18.5627 16.8296 18.5151 17.0593 18.4221 17.2719C18.3292 17.4846 18.1928 17.6755 18.0218 17.8324C17.8508 17.9893 17.6489 18.1087 17.429 18.1831C17.2091 18.2574 16.9762 18.285 16.745 18.2641C14.1807 17.9855 11.7175 17.1093 9.55338 15.7058C7.5399 14.4264 5.83283 12.7193 4.55338 10.7058C3.14503 8.53181 2.26858 6.05664 1.99505 3.48081C1.97422 3.25037 2.00161 3.01811 2.07546 2.79883C2.14932 2.57955 2.26802 2.37805 2.42402 2.20716C2.58001 2.03627 2.76988 1.89973 2.98154 1.80624C3.19319 1.71276 3.422 1.66436 3.65338 1.66414H6.15338C6.5578 1.66016 6.94987 1.80338 7.25651 2.06709C7.56315 2.3308 7.76344 2.69702 7.82004 3.09748C7.92556 3.89753 8.12125 4.68308 8.40338 5.43914C8.5155 5.73741 8.53976 6.06157 8.4733 6.37321C8.40684 6.68485 8.25243 6.9709 8.02838 7.19748L6.97005 8.25581C8.15634 10.3421 9.88376 12.0695 11.97 13.2558L13.0284 12.1975C13.255 11.9734 13.541 11.819 13.8526 11.7526C14.1643 11.6861 14.4884 11.7104 14.7867 11.8225C15.5428 12.1046 16.3283 12.3003 17.1284 12.4058C17.5332 12.4629 17.9029 12.6668 18.1672 12.9787C18.4314 13.2906 18.5719 13.6888 18.5617 14.0975Z" stroke="#475467" stroke-width="2" stroke-linecap="round" stroke-linejoin="round"/>
</g>
<defs>
<clipPath id="clip0_8265_5109">
<rect width="20" height="20" fill="white" transform="translate(0.226562)"/>
</clipPath>
</defs>
</svg>
