<svg width="25" height="25" viewBox="0 0 25 25" fill="none" xmlns="http://www.w3.org/2000/svg">
<path fill-rule="evenodd" clip-rule="evenodd" d="M16.264 4.6875C16.8211 4.68752 17.3671 4.84263 17.841 5.13547C18.3148 5.4283 18.6978 5.84729 18.947 6.3455L20.333 9.1165C20.577 9.0165 20.817 8.9085 21.053 8.7925C21.2904 8.67395 21.5651 8.65455 21.8168 8.73856C22.0685 8.82258 22.2764 9.00313 22.395 9.2405C22.5136 9.47787 22.533 9.75261 22.4489 10.0043C22.3649 10.256 22.1844 10.4639 21.947 10.5825C21.7066 10.6895 21.4649 10.7935 21.222 10.8945L22.183 12.8175C22.3916 13.2345 22.5001 13.6943 22.5 14.1605V16.6875C22.5006 17.1097 22.4118 17.5272 22.2395 17.9126C22.0671 18.298 21.8151 18.6425 21.5 18.9235V20.1875C21.5 20.5853 21.342 20.9669 21.0607 21.2482C20.7794 21.5295 20.3978 21.6875 20 21.6875C19.6022 21.6875 19.2206 21.5295 18.9393 21.2482C18.658 20.9669 18.5 20.5853 18.5 20.1875V19.6875H6.5V20.1875C6.5 20.5853 6.34196 20.9669 6.06066 21.2482C5.77936 21.5295 5.39782 21.6875 5 21.6875C4.60218 21.6875 4.22064 21.5295 3.93934 21.2482C3.65804 20.9669 3.5 20.5853 3.5 20.1875V18.9235C2.886 18.3735 2.5 17.5755 2.5 16.6875V14.1595C2.50019 13.694 2.60872 13.2348 2.817 12.8185L3.77 10.9105C3.529 10.8085 3.29 10.7005 3.055 10.5835C2.81883 10.4634 2.63931 10.2553 2.55513 10.0041C2.47096 9.75288 2.48887 9.47864 2.605 9.2405C2.66366 9.12293 2.74491 9.01807 2.84412 8.93192C2.94332 8.84576 3.05853 8.78 3.18316 8.7384C3.30779 8.69679 3.4394 8.68016 3.57046 8.68944C3.70153 8.69872 3.82948 8.73374 3.947 8.7925C4.183 8.9095 4.424 9.0165 4.667 9.1165L6.053 6.3465C6.30205 5.84811 6.68497 5.42891 7.15885 5.13589C7.63273 4.84288 8.17884 4.68761 8.736 4.6875H16.264ZM8 13.6875C7.60218 13.6875 7.22064 13.8455 6.93934 14.1268C6.65804 14.4081 6.5 14.7897 6.5 15.1875C6.5 15.5853 6.65804 15.9669 6.93934 16.2482C7.22064 16.5295 7.60218 16.6875 8 16.6875C8.39782 16.6875 8.77936 16.5295 9.06066 16.2482C9.34196 15.9669 9.5 15.5853 9.5 15.1875C9.5 14.7897 9.34196 14.4081 9.06066 14.1268C8.77936 13.8455 8.39782 13.6875 8 13.6875ZM17 13.6875C16.6022 13.6875 16.2206 13.8455 15.9393 14.1268C15.658 14.4081 15.5 14.7897 15.5 15.1875C15.5 15.5853 15.658 15.9669 15.9393 16.2482C16.2206 16.5295 16.6022 16.6875 17 16.6875C17.3978 16.6875 17.7794 16.5295 18.0607 16.2482C18.342 15.9669 18.5 15.5853 18.5 15.1875C18.5 14.7897 18.342 14.4081 18.0607 14.1268C17.7794 13.8455 17.3978 13.6875 17 13.6875ZM16.264 6.6875H8.736C8.57141 6.68748 8.40935 6.72808 8.26422 6.80571C8.11908 6.88333 7.99535 6.99558 7.904 7.1325L7.842 7.2405L6.572 9.7785C8.12 10.2425 10.206 10.6875 12.5 10.6875C14.642 10.6875 16.601 10.2995 18.11 9.8705L18.427 9.7785L17.158 7.2405C17.0844 7.09331 16.9756 6.96657 16.8413 6.8715C16.707 6.77643 16.5513 6.71597 16.388 6.6955L16.265 6.6875H16.264Z" fill="#98A2B3"/>
</svg>
