<svg width="18" height="18" viewBox="0 0 18 18" fill="none" xmlns="http://www.w3.org/2000/svg">
<g id="Linear / School / Case ">
<path id="Vector" d="M2.25 9C2.25 11.8284 2.25 14.7426 3.23851 15.6213C4.22703 16.5 5.81802 16.5 9 16.5C12.182 16.5 13.773 16.5 14.7615 15.6213C15.75 14.7426 15.75 11.8284 15.75 9" stroke="#1B3A6D"/>
<path id="Vector_2" d="M10.9952 10.6514L15.5007 9.29979C15.9473 9.1658 16.1706 9.09881 16.3123 8.93824C16.3399 8.90696 16.3649 8.87343 16.3869 8.838C16.5 8.65614 16.5 8.42299 16.5 7.9567C16.5 6.11908 16.5 5.20027 15.9953 4.57995C15.8983 4.46072 15.7893 4.35175 15.6701 4.25474C15.0497 3.75 14.1309 3.75 12.2933 3.75H5.7067C3.86908 3.75 2.95027 3.75 2.32995 4.25474C2.21072 4.35175 2.10175 4.46072 2.00474 4.57995C1.5 5.20027 1.5 6.11908 1.5 7.9567C1.5 8.42299 1.5 8.65613 1.61308 8.838C1.63511 8.87343 1.66006 8.90696 1.68766 8.93824C1.82936 9.09881 2.05268 9.1658 2.4993 9.29979L7.00476 10.6514" stroke="#1B3A6D"/>
<path id="Vector_3" d="M4.875 3.75C5.49258 3.73435 6.11944 3.34118 6.32958 2.76024C6.33605 2.74237 6.34267 2.72249 6.35593 2.68273L6.37517 2.625C6.40681 2.53008 6.42264 2.4826 6.43956 2.4405C6.65571 1.90284 7.16221 1.53777 7.74063 1.50274C7.78593 1.5 7.83596 1.5 7.93602 1.5H10.0643C10.1644 1.5 10.2144 1.5 10.2597 1.50274C10.8381 1.53777 11.3446 1.90284 11.5608 2.4405C11.5777 2.48261 11.5935 2.53007 11.6252 2.625L11.6444 2.68273C11.6576 2.72226 11.6643 2.74242 11.6708 2.76024C11.8809 3.34118 12.5074 3.73435 13.125 3.75" stroke="#1B3A6D"/>
<path id="Vector_4" d="M10.5 9.375H7.5C7.29289 9.375 7.125 9.54289 7.125 9.75V11.3711C7.125 11.5245 7.21836 11.6623 7.36073 11.7193L7.88583 11.9293C8.60106 12.2154 9.39894 12.2154 10.1142 11.9293L10.6393 11.7193C10.7816 11.6623 10.875 11.5245 10.875 11.3711V9.75C10.875 9.54289 10.7071 9.375 10.5 9.375Z" stroke="#1B3A6D" stroke-width="1.5" stroke-linecap="round"/>
</g>
</svg>
