<svg width="17" height="16" viewBox="0 0 17 16" fill="none" xmlns="http://www.w3.org/2000/svg">
<g id="Bold / Messages, Coversation /  Chat Round Call">
<path id="Vector" fill-rule="evenodd" clip-rule="evenodd" d="M15.1673 8.0026C15.1673 11.6845 12.1826 14.6693 8.50065 14.6693C7.4342 14.6693 6.42623 14.4189 5.53234 13.9736C5.29479 13.8553 5.02327 13.8159 4.76691 13.8845L3.28288 14.2816C2.63866 14.454 2.04929 13.8646 2.22166 13.2204L2.61873 11.7363C2.68732 11.48 2.64794 11.2085 2.52962 10.9709C2.0844 10.077 1.83398 9.06906 1.83398 8.0026C1.83398 4.32071 4.81875 1.33594 8.50065 1.33594C12.1826 1.33594 15.1673 4.32071 15.1673 8.0026ZM8.50065 4.83594C8.77679 4.83594 9.00065 5.0598 9.00065 5.33594V10.6693C9.00065 10.9454 8.77679 11.1693 8.50065 11.1693C8.22451 11.1693 8.00065 10.9454 8.00065 10.6693V5.33594C8.00065 5.0598 8.22451 4.83594 8.50065 4.83594ZM6.33398 6.66927C6.33398 6.39313 6.11013 6.16927 5.83398 6.16927C5.55784 6.16927 5.33398 6.39313 5.33398 6.66927V9.33594C5.33398 9.61208 5.55784 9.83594 5.83398 9.83594C6.11013 9.83594 6.33398 9.61208 6.33398 9.33594V6.66927ZM11.1673 6.16927C11.4435 6.16927 11.6673 6.39313 11.6673 6.66927V9.33594C11.6673 9.61208 11.4435 9.83594 11.1673 9.83594C10.8912 9.83594 10.6673 9.61208 10.6673 9.33594V6.66927C10.6673 6.39313 10.8912 6.16927 11.1673 6.16927Z" fill="#1B3A6D"/>
</g>
</svg>
