<svg width="21" height="21" viewBox="0 0 21 21" fill="none" xmlns="http://www.w3.org/2000/svg">
<g id="Bold / Essentional, UI / Check Circle" clip-path="url(#clip0_8000_25262)">
<path id="Vector" d="M8.89775 11.8316L9.2513 12.1852L9.60486 11.8316L11.4672 9.96929L13.3296 8.10692C13.3784 8.05811 13.4575 8.05811 13.5064 8.10692C13.5552 8.15574 13.5552 8.23489 13.5064 8.2837L9.33969 12.4504C9.29088 12.4992 9.21173 12.4992 9.16291 12.4504L7.49625 10.7837C7.44743 10.7349 7.44743 10.6557 7.49625 10.6069C7.54506 10.5581 7.62421 10.5581 7.67302 10.6069L8.89775 11.8316ZM10.5013 19.112C15.3798 19.112 19.3346 15.1572 19.3346 10.2786C19.3346 5.40013 15.3798 1.44531 10.5013 1.44531C5.62279 1.44531 1.66797 5.40013 1.66797 10.2786C1.66797 15.1572 5.62279 19.112 10.5013 19.112Z" fill="#358E5E" stroke="white" stroke-linecap="round"/>
</g>
<defs>
<clipPath id="clip0_8000_25262">
<rect width="20" height="20" fill="white" transform="translate(0.5 0.28125)"/>
</clipPath>
</defs>
</svg>
