<?xml version="1.0" encoding="UTF-8"?>
<svg id="Layer_1" data-name="Layer 1" xmlns="http://www.w3.org/2000/svg" xmlns:xlink="http://www.w3.org/1999/xlink" viewBox="0 0 60 60">
  <defs>
    <style>
      .cls-1 {
        clip-path: url(#clippath);
      }

      .cls-2 {
        fill: none;
      }

      .cls-2, .cls-3, .cls-4, .cls-5 {
        stroke-width: 0px;
      }

      .cls-6 {
        clip-path: url(#clippath-1);
      }

      .cls-7 {
        clip-path: url(#clippath-2);
      }

      .cls-4 {
        fill: #1b3a6d;
      }

      .cls-5 {
        fill: #fff;
      }
    </style>
    <clipPath id="clippath">
      <rect class="cls-2" x="0" y="0" width="60" height="60" rx="30" ry="30"/>
    </clipPath>
    <clipPath id="clippath-1">
      <rect class="cls-2" width="60" height="60"/>
    </clipPath>
    <clipPath id="clippath-2">
      <rect class="cls-2" width="60" height="60"/>
    </clipPath>
  </defs>
  <rect class="cls-4" x="0" y="0" width="60" height="60" rx="30" ry="30"/>
  <g class="cls-1">
    <g>
      <g class="cls-6">
        <g>
          <rect class="cls-3" width="60" height="60"/>
          <g class="cls-7">
            <rect class="cls-4" width="60" height="60"/>
          </g>
        </g>
      </g>
      <path class="cls-5" d="M12.04,42.48h2.09v1.48h-2.09v-1.48ZM12.08,44.47h2.01v5.71h-2.01v-5.71Z"/>
      <path class="cls-5" d="M15.37,42.48h3.31c.97,0,1.74.24,2.32.72.58.47.87,1.13.87,1.98v.02c0,.89-.31,1.59-.94,2.08-.59.47-1.38.7-2.37.7h-1.07v2.2h-2.14v-7.7h0ZM18.52,46.31c.38,0,.68-.09.89-.28.22-.19.33-.44.33-.74v-.02c0-.67-.41-1-1.23-1h-1.01v2.03h1.02Z"/>
      <path class="cls-5" d="M23.29,49.41c-.62-.59-.92-1.32-.92-2.18v-.02c0-.86.31-1.59.94-2.19.63-.62,1.42-.93,2.36-.93s1.73.31,2.36.92c.62.6.92,1.32.92,2.18v.02c0,.86-.31,1.59-.94,2.19-.62.62-1.41.93-2.37.93s-1.71-.31-2.35-.92h0ZM26.57,48.15c.23-.25.34-.56.34-.92v-.02c0-.37-.12-.69-.36-.96-.24-.26-.55-.4-.91-.4s-.67.13-.9.4c-.23.25-.34.56-.34.94v.02c0,.36.12.67.35.95.26.26.56.4.91.4.38,0,.69-.13.91-.4h0Z"/>
      <path class="cls-5" d="M29.82,44.23h2.09v1.2c.38-.9,1.01-1.33,1.88-1.3v2.2h-.18c-1.14,0-1.71.66-1.71,1.99v1.86h-2.09v-5.95h0Z"/>
      <path class="cls-5" d="M34.91,48.74v-2.43h-.7v-1.67h.7v-1.51h2.09v1.51h1.39v1.67h-1.39v2.03c0,.4.19.6.57.6.26,0,.52-.07.79-.2v1.62c-.43.23-.91.35-1.45.35-1.34,0-2-.66-2-1.97h0Z"/>
      <path class="cls-5" d="M39.56,49.84c-.38-.34-.57-.79-.57-1.37v-.02c0-.62.21-1.08.64-1.4.4-.32.97-.47,1.7-.47.56,0,1.03.08,1.43.23v-.1c0-.65-.4-.98-1.19-.98-.49,0-1.04.11-1.65.33l-.43-1.46c.75-.31,1.55-.46,2.41-.46,1.03,0,1.78.24,2.27.73.43.42.64,1.05.64,1.89v3.42h-2.06v-.63c-.47.51-1.06.76-1.76.76-.59,0-1.06-.16-1.42-.47h0ZM42.49,48.74c.19-.19.29-.43.29-.72v-.28c-.26-.1-.54-.15-.82-.15-.64,0-.96.25-.96.74v.02c0,.43.25.65.74.65.31,0,.56-.09.76-.26Z"/>
      <path class="cls-5" d="M45.93,42.15h2.09v8.03h-2.09v-8.03Z"/>
      <path class="cls-5" d="M25.35,38c-.63-.36-1.21-.68-1.79-1.02-1.73-1-3.47-1.99-5.18-3.03-1.3-.79-2.02-1.94-2.02-3.5,0-3.76,0-7.53,0-11.29,0-1,.39-1.85,1.06-2.58.57-.63,1.3-1.04,2.04-1.42.11-.05.34,0,.44.1.81.7,1.65,1.37,2.39,2.14,1.74,1.83,2.95,3.99,3.63,6.42.32,1.13.61,2.3.72,3.46.13,1.37.07,2.76.04,4.13-.02.79-.09,1.59-.24,2.36-.2,1.07-.5,2.13-.77,3.19-.08.32-.2.63-.33,1.02h0Z"/>
      <path class="cls-5" d="M21.74,13.85c.55-.32,1.02-.61,1.5-.89,1.53-.88,3.05-1.77,4.59-2.64.78-.44,1.62-.73,2.53-.62.77.09,1.46.41,2.14.8,3.03,1.76,6.08,3.5,9.1,5.26.49.32.77.46,1.11.76.16.14.09.43-.05.59-.54.67-1.04,1.37-1.62,2-1.3,1.42-2.73,2.68-4.41,3.66-1.06.61-2.17,1.09-3.34,1.44-.22.06-.31-.06-.4-.22-.55-.93-1.04-1.9-1.68-2.76-.73-.97-1.55-1.88-2.42-2.73-2.01-1.98-4.4-3.44-7.05-4.66h0ZM34.77,20.16c.92.05,1.6-.45,2.09-1.18.88-1.3.84-2.68.04-3.99-1.08-1.74-3.16-1.74-4.31-.02-.64.95-.69,2.01-.39,3.06.33,1.18,1.31,2.19,2.58,2.12Z"/>
      <path class="cls-5" d="M43.67,20.47c0,.07.02.14.02.2,0,2.82.01,5.63-.01,8.45,0,.79-.06,1.59-.18,2.37-.19,1.11-.91,1.9-1.85,2.45-3.15,1.85-6.32,3.66-9.48,5.49-1.3.76-2.63.71-4.08.17,7.12-4.86,12.41-11.12,15.58-19.14h0Z"/>
    </g>
  </g>
</svg>