<svg xmlns="http://www.w3.org/2000/svg" width="13" height="14" viewBox="0 0 13 14" fill="none">
  <path fill-rule="evenodd" clip-rule="evenodd" d="M6.69453 0.703125C3.21514 0.703125 0.394531 3.52373 0.394531 7.00313C0.394531 10.4825 3.21514 13.3031 6.69453 13.3031C10.1739 13.3031 12.9945 10.4825 12.9945 7.00313C12.9945 3.52373 10.1739 0.703125 6.69453 0.703125ZM6.69453 12.0751C3.89098 12.0757 1.61764 9.80368 1.61653 7.00012C1.61588 5.65475 2.15042 4.36282 3.10251 3.41019C4.0546 2.45753 5.34621 1.92224 6.69305 1.92212C8.04016 1.92146 9.33231 2.45621 10.285 3.40862C11.2377 4.36102 11.7728 5.65302 11.7725 7.00012C11.7712 9.80415 9.49761 12.0759 6.69405 12.0751H6.69453ZM8.26353 9.42712C8.32932 9.47588 8.41185 9.49632 8.49278 9.48393C8.57372 9.47153 8.64635 9.42732 8.69453 9.36111L9.17153 8.70312C9.22083 8.63771 9.24123 8.55499 9.228 8.47417C9.21478 8.39333 9.16909 8.32143 9.10153 8.27512L7.40154 7.04112V3.44112C7.39835 3.27678 7.26588 3.14432 7.10153 3.14113H6.28854C6.12419 3.14432 5.99173 3.27678 5.98853 3.44112V7.61012C5.98869 7.70709 6.03466 7.79831 6.11253 7.85611L8.26353 9.42712Z" fill="#1B3A6D"/>
</svg>