<svg width="50" height="50" viewBox="0 0 50 50" fill="none" xmlns="http://www.w3.org/2000/svg">
<path d="M25.0013 48.3307C37.8879 48.3307 48.3346 37.884 48.3346 24.9974C48.3346 12.1108 37.8879 1.66406 25.0013 1.66406C12.1147 1.66406 1.66797 12.1108 1.66797 24.9974C1.66797 37.884 12.1147 48.3307 25.0013 48.3307Z" fill="#F2F4F7"/>
<path d="M25.0013 27.5026C29.6037 27.5026 33.3346 23.7716 33.3346 19.1693C33.3346 14.5669 29.6037 10.8359 25.0013 10.8359C20.3989 10.8359 16.668 14.5669 16.668 19.1693C16.668 23.7716 20.3989 27.5026 25.0013 27.5026Z" fill="#98A2B3"/>
<mask id="mask0_11322_13429" style="mask-type:luminance" maskUnits="userSpaceOnUse" x="4" y="4" width="42" height="42">
<path d="M25.0013 45.8307C36.5072 45.8307 45.8346 36.5033 45.8346 24.9974C45.8346 13.4915 36.5072 4.16406 25.0013 4.16406C13.4954 4.16406 4.16797 13.4915 4.16797 24.9974C4.16797 36.5033 13.4954 45.8307 25.0013 45.8307Z" fill="white"/>
</mask>
<g mask="url(#mask0_11322_13429)">
<path d="M25.0013 61.6667C33.7458 61.6667 40.8346 54.5778 40.8346 45.8333C40.8346 37.0888 33.7458 30 25.0013 30C16.2568 30 9.16797 37.0888 9.16797 45.8333C9.16797 54.5778 16.2568 61.6667 25.0013 61.6667Z" fill="#98A2B3"/>
</g>
</svg>
