<svg xmlns="http://www.w3.org/2000/svg" width="25" height="24" viewBox="0 0 25 24" fill="none">
    <path fill-rule="evenodd" clip-rule="evenodd" d="M4.83564 3.17157C3.66406 4.34315 3.66406 6.22876 3.66406 10V14C3.66406 17.7712 3.66406 19.6569 4.83564 20.8284C6.00721 22 7.89283 22 11.6641 22H13.6641C17.4353 22 19.3209 22 20.4925 20.8284C21.6641 19.6569 21.6641 17.7712 21.6641 14V10C21.6641 6.22876 21.6641 4.34315 20.4925 3.17157C19.3209 2 17.4353 2 13.6641 2H11.6641C7.89283 2 6.00721 2 4.83564 3.17157ZM13.414 6C13.414 5.58579 13.0783 5.25 12.664 5.25C12.2498 5.25 11.914 5.58579 11.914 6V7.25H10.664C10.2498 7.25 9.91403 7.58579 9.91403 8C9.91403 8.41421 10.2498 8.75 10.664 8.75H11.914L11.914 10C11.914 10.4142 12.2498 10.75 12.664 10.75C13.0783 10.75 13.414 10.4142 13.414 10L13.414 8.75L14.664 8.75C15.0782 8.75 15.414 8.41421 15.414 8C15.414 7.58579 15.0782 7.25 14.664 7.25H13.414V6ZM8.66406 13.25C8.24985 13.25 7.91406 13.5858 7.91406 14C7.91406 14.4142 8.24985 14.75 8.66406 14.75H16.6641C17.0783 14.75 17.4141 14.4142 17.4141 14C17.4141 13.5858 17.0783 13.25 16.6641 13.25H8.66406ZM9.66406 17.25C9.24985 17.25 8.91406 17.5858 8.91406 18C8.91406 18.4142 9.24985 18.75 9.66406 18.75H15.6641C16.0783 18.75 16.4141 18.4142 16.4141 18C16.4141 17.5858 16.0783 17.25 15.6641 17.25H9.66406Z" fill="#1B3A6D"/>
  </svg>