<svg width="20" height="20" viewBox="0 0 20 20" fill="none" xmlns="http://www.w3.org/2000/svg">
<g clip-path="url(#clip0_11040_118989)">
<path d="M9.23508 3.38072H3.61083C3.18465 3.38072 2.77592 3.55046 2.47456 3.8526C2.17321 4.15474 2.00391 4.56453 2.00391 4.99183V16.2696C2.00391 16.6969 2.17321 17.1067 2.47456 17.4088C2.77592 17.711 3.18465 17.8807 3.61083 17.8807H14.8593C15.2855 17.8807 15.6942 17.711 15.9956 17.4088C16.297 17.1067 16.4663 16.6969 16.4663 16.2696V10.6307M15.2611 2.17238C15.5807 1.85191 16.0142 1.67187 16.4663 1.67188C16.9183 1.67188 17.3518 1.85191 17.6715 2.17238C17.9911 2.49285 18.1707 2.9275 18.1707 3.38072C18.1707 3.83393 17.9911 4.26858 17.6715 4.58905L10.0385 12.2418L6.82469 13.0474L7.62816 9.82516L15.2611 2.17238Z" stroke="white" stroke-width="2" stroke-linecap="round" stroke-linejoin="round"/>
</g>
<defs>
<clipPath id="clip0_11040_118989">
<rect width="19.2831" height="19.3333" fill="white" transform="translate(0.398438 0.15625)"/>
</clipPath>
</defs>
</svg>
