<svg width="12" height="12" viewBox="0 0 12 12" fill="none" xmlns="http://www.w3.org/2000/svg">
<g id="emoji-normal">
<g id="vuesax/bold/emoji-normal">
<g id="emoji-normal_2">
<path id="Vector" d="M8.095 1H3.905C2.085 1 1 2.085 1 3.905V8.09C1 9.915 2.085 11 3.905 11H8.09C9.91 11 10.995 9.915 10.995 8.095V3.905C11 2.085 9.915 1 8.095 1ZM3.235 3.86C3.38 3.715 3.62 3.715 3.765 3.86C4.12 4.215 4.7 4.215 5.055 3.86C5.2 3.715 5.44 3.715 5.585 3.86C5.73 4.005 5.73 4.245 5.585 4.39C5.26 4.715 4.835 4.875 4.41 4.875C3.985 4.875 3.56 4.715 3.235 4.39C3.09 4.24 3.09 4.005 3.235 3.86ZM6 9.39C4.655 9.39 3.56 8.295 3.56 6.95C3.56 6.6 3.845 6.31 4.195 6.31H7.795C8.145 6.31 8.43 6.595 8.43 6.95C8.44 8.295 7.345 9.39 6 9.39ZM8.765 4.39C8.44 4.715 8.015 4.875 7.59 4.875C7.165 4.875 6.74 4.715 6.415 4.39C6.27 4.245 6.27 4.005 6.415 3.86C6.56 3.715 6.8 3.715 6.945 3.86C7.3 4.215 7.88 4.215 8.235 3.86C8.38 3.715 8.62 3.715 8.765 3.86C8.91 4.005 8.91 4.24 8.765 4.39Z" fill="white"/>
</g>
</g>
</g>
</svg>
