<svg width="24" height="24" viewBox="0 0 24 24" fill="none" xmlns="http://www.w3.org/2000/svg">
<g id="Bold Duotone / Faces, Emotions, Stickers / Emoji Funny Square">
<path id="Vector" opacity="0.5" d="M6.50359 21.5201C8.13698 22.4631 10.2103 21.9075 14.357 20.7964C18.5037 19.6853 20.577 19.1298 21.5201 17.4964C22.4631 15.863 21.9075 13.7897 20.7964 9.643C19.6853 5.49632 19.1298 3.42298 17.4964 2.47995C15.863 1.53691 13.7897 2.09246 9.643 3.20356C5.49632 4.31466 3.42298 4.87021 2.47995 6.50359C1.53691 8.13698 2.09246 10.2103 3.20356 14.357C4.31466 18.5037 4.87021 20.577 6.50359 21.5201Z" fill="url(#paint0_linear_8974_28351)"/>
<g id="Vector_2">
<path d="M14.8968 11.2256C15.4303 11.0827 15.6889 10.3181 15.4745 9.51794C15.2601 8.71774 14.6538 8.18493 14.1204 8.32787C13.5869 8.47081 13.3282 9.23538 13.5427 10.0356C13.7571 10.8358 14.3633 11.3686 14.8968 11.2256Z" fill="url(#paint1_linear_8974_28351)"/>
<path d="M9.10141 12.7786C9.63487 12.6357 9.89352 11.8711 9.6791 11.0709C9.46469 10.2707 8.85841 9.73791 8.32495 9.88085C7.79148 10.0238 7.53284 10.7884 7.74725 11.5886C7.96166 12.3888 8.56794 12.9216 9.10141 12.7786Z" fill="url(#paint2_linear_8974_28351)"/>
<path d="M8.18426 15.753C8.28496 15.3512 8.69231 15.1071 9.0941 15.2078C10.2244 15.4911 11.5224 15.4946 12.8402 15.1415C14.1579 14.7884 15.2803 14.1364 16.1175 13.3259C16.4151 13.0378 16.8899 13.0455 17.178 13.3431C17.4661 13.6407 17.4584 14.1155 17.1608 14.4036C16.8134 14.74 16.4289 15.0514 16.0119 15.3324L16.1699 15.6543C16.5386 16.4053 16.2215 17.3128 15.4653 17.6708C14.7241 18.0216 13.8385 17.7122 13.4772 16.976L13.2809 16.5762L13.2284 16.5904C11.673 17.0072 10.1158 17.0103 8.72942 16.6628C8.32763 16.5621 8.08356 16.1548 8.18426 15.753Z" fill="url(#paint3_linear_8974_28351)"/>
</g>
</g>
<defs>
<linearGradient id="paint0_linear_8974_28351" x1="5.54167" y1="2.83333" x2="17.625" y2="21.1667" gradientUnits="userSpaceOnUse">
<stop stop-color="#F4CC46"/>
<stop offset="1" stop-color="#F88F33"/>
</linearGradient>
<linearGradient id="paint1_linear_8974_28351" x1="9.39264" y1="8.70096" x2="15.089" y2="17.5316" gradientUnits="userSpaceOnUse">
<stop stop-color="#F4CC46"/>
<stop offset="1" stop-color="#F88F33"/>
</linearGradient>
<linearGradient id="paint2_linear_8974_28351" x1="9.39264" y1="8.70096" x2="15.089" y2="17.5316" gradientUnits="userSpaceOnUse">
<stop stop-color="#F4CC46"/>
<stop offset="1" stop-color="#F88F33"/>
</linearGradient>
<linearGradient id="paint3_linear_8974_28351" x1="9.39264" y1="8.70096" x2="15.089" y2="17.5316" gradientUnits="userSpaceOnUse">
<stop stop-color="#F4CC46"/>
<stop offset="1" stop-color="#F88F33"/>
</linearGradient>
</defs>
</svg>
