<svg xmlns="http://www.w3.org/2000/svg" width="20" height="20" viewBox="0 0 20 20" fill="none">
    <path d="M10.0013 5.83333C10.0013 4.94928 9.65011 4.10143 9.02499 3.47631C8.39987 2.85119 7.55202 2.5 6.66797 2.5H1.66797V15H7.5013C8.16434 15 8.80023 15.2634 9.26907 15.7322C9.73791 16.2011 10.0013 16.837 10.0013 17.5M10.0013 5.83333V17.5M10.0013 5.83333C10.0013 4.94928 10.3525 4.10143 10.9776 3.47631C11.6027 2.85119 12.4506 2.5 13.3346 2.5H18.3346V15H12.5013C11.8383 15 11.2024 15.2634 10.7335 15.7322C10.2647 16.2011 10.0013 16.837 10.0013 17.5" stroke="#1B3A6D" stroke-width="2" stroke-linecap="round" stroke-linejoin="round"/>
  </svg>