<svg width="18" height="17" viewBox="0 0 18 17" fill="none" xmlns="http://www.w3.org/2000/svg">
<g id="fluent-mdl2:qand-a" clip-path="url(#clip0_10558_85809)">
<path id="Vector" d="M16.4018 3.17969H17.5352V13.8047H15.2685V16.9922L11.8685 13.8047H7.33516L8.46849 12.7422H12.3378L14.1352 14.4272V12.7422H16.4018V3.17969ZM7.33516 11.6797L3.93516 14.8672V11.6797H0.535156V-0.0078125H15.2685V11.6797H7.33516ZM1.66849 10.6172H5.06849V12.3022L6.86589 10.6172H14.1352V1.05469H1.66849V10.6172ZM7.33516 9.55469V8.49219H8.46849V9.55469H7.33516ZM7.90182 3.17969C7.74245 3.17969 7.59488 3.20736 7.45911 3.2627C7.32335 3.31803 7.2053 3.39274 7.10495 3.48682C7.0046 3.58089 6.92196 3.69434 6.85703 3.82715C6.7921 3.95996 6.76259 4.09831 6.76849 4.24219H5.63516C5.63516 3.94889 5.69418 3.67497 5.81224 3.42041C5.93029 3.16585 6.09262 2.93896 6.29922 2.73975C6.50582 2.54053 6.74488 2.38835 7.01641 2.2832C7.28793 2.17806 7.58307 2.12272 7.90182 2.11719C8.21467 2.11719 8.50686 2.17253 8.77839 2.2832C9.04991 2.39388 9.29193 2.54606 9.50443 2.73975C9.71693 2.93343 9.87925 3.15755 9.99141 3.41211C10.1036 3.66667 10.1626 3.94336 10.1685 4.24219C10.1685 4.49674 10.1272 4.72087 10.0445 4.91455C9.96189 5.10824 9.85269 5.28809 9.71693 5.4541C9.58116 5.62012 9.42769 5.77783 9.25651 5.92725C9.08533 6.07666 8.9112 6.23714 8.73411 6.40869C8.61606 6.51937 8.54227 6.63558 8.51276 6.75732C8.48325 6.87907 8.46554 7.00911 8.45964 7.14746V7.28027C8.45964 7.32454 8.46259 7.37435 8.46849 7.42969H7.33516V7.03125C7.33516 6.77669 7.37648 6.55257 7.45911 6.35889C7.54175 6.1652 7.64505 5.99089 7.76901 5.83594C7.89297 5.68099 8.03168 5.54264 8.18516 5.4209C8.33863 5.29915 8.47439 5.17464 8.59245 5.04736C8.7105 4.92008 8.81675 4.79557 8.9112 4.67383C9.00564 4.55208 9.04696 4.4082 9.03516 4.24219C9.03516 4.09277 9.00564 3.95443 8.94661 3.82715C8.88759 3.69987 8.8079 3.58919 8.70755 3.49512C8.6072 3.40104 8.4862 3.32357 8.34453 3.2627C8.20286 3.20182 8.05529 3.17415 7.90182 3.17969Z" fill="#475467"/>
</g>
<defs>
<clipPath id="clip0_10558_85809">
<rect width="17" height="17" fill="white" transform="translate(0.535156 -0.0078125)"/>
</clipPath>
</defs>
</svg>
