<svg width="25" height="24" viewBox="0 0 25 24" fill="none" xmlns="http://www.w3.org/2000/svg">
<path id="Vector" d="M19.8173 3.79676C18.769 2.90035 17.3523 2.39519 15.874 2.3907C14.3956 2.38621 12.9748 2.88275 11.9191 3.77276L2.62548 11.6259C2.36196 11.849 2.0064 11.9733 1.6366 11.9715C1.2668 11.9697 0.912891 11.842 0.652325 11.6163C0.523538 11.5046 0.421695 11.3722 0.352654 11.2266C0.283613 11.0809 0.248738 10.925 0.250035 10.7678C0.251332 10.6105 0.288775 10.455 0.360211 10.3102C0.431646 10.1655 0.535664 10.0343 0.66628 9.92422L9.95714 2.07349C11.5379 0.739153 13.6663 -0.00580618 15.8813 3.40818e-05C18.0962 0.00587434 20.2193 0.762044 21.7905 2.1047C22.5699 2.77096 23.1885 3.56319 23.6106 4.43581C24.0327 5.30842 24.25 6.2442 24.25 7.1893C24.25 8.13441 24.0327 9.07018 23.6106 9.9428C23.1885 10.8154 22.5699 11.6076 21.7905 12.2739L9.70038 22.6279C8.67235 23.5067 7.28172 24 5.83221 24C4.38269 24 2.99207 23.5067 1.96404 22.6279C1.45631 22.1937 1.05339 21.6774 0.778449 21.1088C0.503509 20.5402 0.361971 19.9304 0.361971 19.3146C0.361971 18.6988 0.503509 18.089 0.778449 17.5204C1.05339 16.9518 1.45631 16.4355 1.96404 16.0013L13.2392 6.34567C13.5011 6.12201 13.8553 5.99649 14.2244 5.99649C14.5935 5.99649 14.9477 6.12201 15.2096 6.34567C15.3389 6.45649 15.4414 6.58816 15.5114 6.73313C15.5814 6.8781 15.6174 7.03353 15.6174 7.1905C15.6174 7.34748 15.5814 7.5029 15.5114 7.64788C15.4414 7.79285 15.3389 7.92452 15.2096 8.03534L3.9372 17.6909C3.68835 17.9037 3.49087 18.1567 3.35612 18.4354C3.22137 18.714 3.15199 19.0128 3.15199 19.3146C3.15199 19.6164 3.22137 19.9152 3.35612 20.1938C3.49087 20.4725 3.68835 20.7255 3.9372 20.9383C4.44101 21.3703 5.12349 21.613 5.835 21.613C6.54651 21.613 7.22899 21.3703 7.7328 20.9383L19.8173 10.5842C20.3375 10.1395 20.7502 9.6107 21.0319 9.02827C21.3136 8.44585 21.4586 7.82129 21.4586 7.1905C21.4586 6.55972 21.3136 5.93516 21.0319 5.35273C20.7502 4.77031 20.3375 4.24152 19.8173 3.79676Z" fill="#1B3A6D"/>
</svg>
