<svg width="47" height="47" viewBox="0 0 47 47" fill="none" xmlns="http://www.w3.org/2000/svg">
<g id="Group 18103">
<path id="Ellipse 46" opacity="0.2" d="M46.2031 23.2909C46.2031 35.8768 35.9733 46.0818 23.3515 46.0818C10.7298 46.0818 0.5 35.8768 0.5 23.2909C0.5 10.7051 10.7298 0.5 23.3515 0.5C35.9733 0.5 46.2031 10.7051 46.2031 23.2909Z" fill="white" stroke="white"/>
<g id="Group">
<path id="Vector" d="M31.2852 30.5492C31.6231 30.9402 31.6243 31.5064 31.2942 31.8804C30.9546 32.2654 30.4086 32.2974 30.0416 31.93C29.7143 31.6031 29.4038 31.2556 29.0939 30.91C28.9255 30.7221 28.8539 30.4876 28.8561 30.2241C28.8595 29.7425 28.8567 29.2603 28.8567 28.7787C28.8567 28.2971 28.8533 27.8554 28.8578 27.3937C28.8639 26.8269 29.241 26.4045 29.7384 26.3985C30.2452 26.3925 30.6374 26.8227 30.6413 27.4016C30.6458 28.134 30.648 28.8669 30.6385 29.5993C30.6363 29.7842 30.6766 29.9196 30.8091 30.0422C30.9781 30.1988 31.1331 30.3734 31.2852 30.5492Z" fill="white"/>
<path id="Vector_2" d="M35.9422 29.3453C35.4073 25.3547 31.9337 22.7781 28.3052 23.6803C25.5667 24.3607 23.5392 27.0636 23.5006 30.0855C23.4603 33.2356 25.3647 35.9778 28.1267 36.7633C28.407 36.8425 28.7068 36.8407 28.9687 36.9953H30.3634C30.6157 36.9349 30.8792 36.9742 31.1292 36.9083C32.7936 36.4678 34.1307 35.51 35.0605 33.9396C35.5852 33.0531 35.9377 32.0935 35.9992 31.0288V29.4619C35.936 29.448 35.9483 29.3924 35.9422 29.3453ZM29.7564 35.0647C27.2724 35.0611 25.2847 32.9032 25.2864 30.2136C25.2881 27.5548 27.3155 25.4103 29.8134 25.4242C32.2218 25.4381 34.2185 27.6189 34.2135 30.2305C34.2084 32.905 32.2135 35.0689 29.7564 35.0647Z" fill="white"/>
<path id="Vector_3" d="M23.5066 16.5172C23.5111 16.7033 23.4663 16.7516 23.2929 16.7492C22.4655 16.7383 21.6381 16.7444 20.8101 16.7444C19.9821 16.7444 19.1737 16.7389 18.3558 16.7492C18.1846 16.751 18.1359 16.7075 18.141 16.519C18.1544 16.0174 18.151 15.5147 18.1421 15.0125C18.1393 14.8554 18.1796 14.8119 18.3267 14.8125C19.9911 14.8179 21.6549 14.8179 23.3192 14.8125C23.4635 14.8119 23.5083 14.8512 23.5055 15.0113C23.496 15.5135 23.4932 16.0156 23.5066 16.5172Z" fill="white"/>
<path id="Vector_4" d="M30.6454 22.3223C30.642 19.229 30.6437 16.1351 30.6426 13.0419C30.642 11.2345 29.4985 10.0012 27.8241 10C23.1555 10 18.4875 10 13.8195 10C12.1478 10.0012 11.0032 11.2375 11.0027 13.0443C11.0015 15.5653 11.0027 18.0863 11.0027 20.6073C11.0027 23.1284 10.9954 25.7503 11.0049 28.3215C11.0111 29.9119 12.1674 31.1996 13.6242 31.2081C16.572 31.2256 19.5202 31.2129 22.468 31.2177C22.6274 31.2183 22.6688 31.1797 22.652 31.0014C22.4915 29.3306 22.7874 27.751 23.6104 26.3304C25.1779 23.6227 27.4621 22.367 30.4194 22.5833C30.6527 22.6002 30.646 22.5029 30.6454 22.3223ZM18.9507 28.3209C17.5213 28.3227 16.0914 28.3227 14.662 28.3209C14.0813 28.3202 13.674 27.9112 13.6807 27.3425C13.688 26.7866 14.0897 26.395 14.6592 26.3932C15.3736 26.3914 16.0886 26.3932 16.8036 26.3932C17.5185 26.3932 18.2335 26.3914 18.9485 26.3932C19.5292 26.395 19.937 26.8023 19.9298 27.3709C19.9225 27.9257 19.5191 28.3202 18.9507 28.3209ZM18.9625 25.4282C18.2385 25.4306 17.5146 25.4288 16.7901 25.4288C16.0657 25.4288 15.3602 25.4306 14.6458 25.4282C14.0847 25.4258 13.6802 25.0185 13.6807 24.4626C13.6818 23.9049 14.083 23.5018 14.6475 23.5012C16.0864 23.4988 17.5252 23.4988 18.9641 23.5012C19.5264 23.5018 19.9303 23.9091 19.9298 24.465C19.9292 25.0215 19.5258 25.4264 18.9625 25.4282ZM25.2853 16.7346C25.2758 17.8362 24.501 18.6737 23.4789 18.6773C21.7038 18.6834 19.9281 18.684 18.1524 18.6767C17.1471 18.6725 16.3711 17.8319 16.3605 16.7497C16.3538 16.1074 16.3538 15.465 16.3605 14.8221C16.3711 13.7392 17.1465 12.9029 18.1524 12.8951C19.0447 12.8878 19.937 12.8932 20.8293 12.8932C21.7217 12.8932 22.5771 12.8902 23.4509 12.8945C24.5088 12.8987 25.2792 13.7271 25.2859 14.8668C25.2898 15.4898 25.2909 16.1122 25.2853 16.7346Z" fill="white"/>
<path id="Vector_5" d="M31.2942 31.8804C30.9546 32.2654 30.4086 32.2974 30.0416 31.93C29.7143 31.6031 29.4038 31.2556 29.0939 30.91C28.9255 30.7221 28.8539 30.4876 28.8561 30.2241C28.8595 29.7425 28.8567 29.2603 28.8567 28.7787C28.8567 28.2971 28.8533 27.8554 28.8578 27.3937C28.8639 26.8269 29.241 26.4045 29.7384 26.3985C30.2452 26.3925 30.6374 26.8227 30.6413 27.4016C30.6458 28.134 30.648 28.8669 30.6385 29.5993C30.6363 29.7842 30.6766 29.9196 30.8091 30.0422C30.9781 30.1988 31.1331 30.3734 31.2852 30.5492C31.6231 30.9402 31.6243 31.5064 31.2942 31.8804Z" fill="white"/>
<path id="Vector_6" d="M23.5066 16.5172C23.5111 16.7033 23.4663 16.7516 23.2929 16.7492C22.4655 16.7383 21.6381 16.7444 20.8101 16.7444C19.9821 16.7444 19.1737 16.7389 18.3558 16.7492C18.1846 16.751 18.1359 16.7075 18.141 16.519C18.1544 16.0174 18.151 15.5147 18.1421 15.0125C18.1393 14.8554 18.1796 14.8119 18.3267 14.8125C19.9911 14.8179 21.6549 14.8179 23.3192 14.8125C23.4635 14.8119 23.5083 14.8512 23.5055 15.0113C23.496 15.5135 23.4932 16.0156 23.5066 16.5172Z" fill="white"/>
<path id="Vector_7" d="M31.2942 31.8804C30.9546 32.2654 30.4086 32.2974 30.0416 31.93C29.7143 31.6031 29.4038 31.2556 29.0939 30.91C28.9255 30.7221 28.8539 30.4876 28.8561 30.2241C28.8595 29.7425 28.8567 29.2603 28.8567 28.7787C28.8567 28.2971 28.8533 27.8554 28.8578 27.3937C28.8639 26.8269 29.241 26.4045 29.7384 26.3985C30.2452 26.3925 30.6374 26.8227 30.6413 27.4016C30.6458 28.134 30.648 28.8669 30.6385 29.5993C30.6363 29.7842 30.6766 29.9196 30.8091 30.0422C30.9781 30.1988 31.1331 30.3734 31.2852 30.5492C31.6231 30.9402 31.6243 31.5064 31.2942 31.8804Z" fill="white"/>
<path id="Vector_8" d="M23.5066 16.5172C23.5111 16.7033 23.4663 16.7516 23.2929 16.7492C22.4655 16.7383 21.6381 16.7444 20.8101 16.7444C19.9821 16.7444 19.1737 16.7389 18.3558 16.7492C18.1846 16.751 18.1359 16.7075 18.141 16.519C18.1544 16.0174 18.151 15.5147 18.1421 15.0125C18.1393 14.8554 18.1796 14.8119 18.3267 14.8125C19.9911 14.8179 21.6549 14.8179 23.3192 14.8125C23.4635 14.8119 23.5083 14.8512 23.5055 15.0113C23.496 15.5135 23.4932 16.0156 23.5066 16.5172Z" fill="white"/>
</g>
<path id="Ellipse 47" d="M30.4933 19.1181C32.8343 19.1181 34.7365 17.2246 34.7365 14.8833C34.7365 12.542 32.8343 10.6484 30.4933 10.6484C28.1522 10.6484 26.25 12.542 26.25 14.8833C26.25 17.2246 28.1522 19.1181 30.4933 19.1181Z" fill="#F04438" stroke="#FDA29B" stroke-width="2"/>
</g>
</svg>
