<svg width="25" height="24" viewBox="0 0 25 24" fill="none" xmlns="http://www.w3.org/2000/svg">
<g id="Bold / List / List Check Minimalistic">
<path id="Vector" fill-rule="evenodd" clip-rule="evenodd" d="M3.5 6.75C3.5 6.33579 3.83579 6 4.25 6H21.25C21.6642 6 22 6.33579 22 6.75C22 7.16421 21.6642 7.5 21.25 7.5H4.25C3.83579 7.5 3.5 7.16421 3.5 6.75ZM21.7113 11.1586C22.0379 11.4134 22.0961 11.8847 21.8414 12.2113L17.9414 17.2113C17.8022 17.3897 17.5899 17.4958 17.3636 17.4999C17.1373 17.504 16.9213 17.4057 16.7757 17.2324L14.6757 14.7324C14.4093 14.4152 14.4504 13.9421 14.7676 13.6757C15.0848 13.4093 15.5579 13.4504 15.8243 13.7676L17.3284 15.5582L20.6586 11.2887C20.9134 10.9621 21.3847 10.9039 21.7113 11.1586ZM3.5 11.75C3.5 11.3358 3.83579 11 4.25 11H11.25C11.6642 11 12 11.3358 12 11.75C12 12.1642 11.6642 12.5 11.25 12.5H4.25C3.83579 12.5 3.5 12.1642 3.5 11.75ZM3.5 16.75C3.5 16.3358 3.83579 16 4.25 16H11.25C11.6642 16 12 16.3358 12 16.75C12 17.1642 11.6642 17.5 11.25 17.5H4.25C3.83579 17.5 3.5 17.1642 3.5 16.75Z" fill="white"/>
</g>
</svg>
