<svg width="17" height="17" viewBox="0 0 17 17" fill="none" xmlns="http://www.w3.org/2000/svg">
<path d="M1.80859 10.9297C1.80859 9.04407 1.80859 8.10126 2.39438 7.51547C2.98017 6.92969 3.92298 6.92969 5.80859 6.92969H11.1419C13.0275 6.92969 13.9704 6.92969 14.5561 7.51547C15.1419 8.10126 15.1419 9.04407 15.1419 10.9297C15.1419 12.8153 15.1419 13.7581 14.5561 14.3439C13.9704 14.9297 13.0275 14.9297 11.1419 14.9297H5.80859C3.92298 14.9297 2.98017 14.9297 2.39438 14.3439C1.80859 13.7581 1.80859 12.8153 1.80859 10.9297Z" stroke="#475467"/>
<path d="M4.47656 6.9349V5.60156C4.47656 3.39242 6.26742 1.60156 8.47656 1.60156C10.6857 1.60156 12.4766 3.39242 12.4766 5.60156V6.9349" stroke="#475467" stroke-linecap="round"/>
<path d="M5.97786 10.9323C5.97786 11.0243 5.90325 11.099 5.8112 11.099C5.71915 11.099 5.64453 11.0243 5.64453 10.9323C5.64453 10.8402 5.71915 10.7656 5.8112 10.7656C5.90325 10.7656 5.97786 10.8402 5.97786 10.9323ZM8.64453 10.9323C8.64453 11.0243 8.56991 11.099 8.47786 11.099C8.38582 11.099 8.3112 11.0243 8.3112 10.9323C8.3112 10.8402 8.38582 10.7656 8.47786 10.7656C8.56991 10.7656 8.64453 10.8402 8.64453 10.9323ZM11.3112 10.9323C11.3112 11.0243 11.2366 11.099 11.1445 11.099C11.0525 11.099 10.9779 11.0243 10.9779 10.9323C10.9779 10.8402 11.0525 10.7656 11.1445 10.7656C11.2366 10.7656 11.3112 10.8402 11.3112 10.9323Z" fill="#1C274C" stroke="#475467"/>
</svg>
