<svg width="24" height="27" viewBox="0 0 24 27" fill="none" xmlns="http://www.w3.org/2000/svg">
<path d="M9.28906 9.42209V7.41808C9.28906 6.88658 9.47784 6.37685 9.81388 6.00102C10.1499 5.6252 10.6057 5.41406 11.0809 5.41406H18.2482C18.7234 5.41406 19.1792 5.6252 19.5152 6.00102C19.8512 6.37685 20.04 6.88658 20.04 7.41808V19.4422C20.04 19.9737 19.8512 20.4834 19.5152 20.8592C19.1792 21.235 18.7234 21.4462 18.2482 21.4462H11.4393C10.4497 21.4462 9.28906 20.5489 9.28906 19.4422V17.4382" stroke="#D92D20" stroke-width="1.5" stroke-linecap="round" stroke-linejoin="round"/>
<path d="M13.587 17.4379L17.1707 13.4299L13.587 9.42188M4.26953 13.4299H16.454" stroke="#D92D20" stroke-width="1.5" stroke-linecap="round" stroke-linejoin="round"/>
</svg>
