<svg width="19" height="18" viewBox="0 0 19 18" fill="none" xmlns="http://www.w3.org/2000/svg">
<g id="Linear / School / Case ">
<path id="Vector" d="M2.28906 9C2.28906 11.8284 2.28906 14.7426 3.27758 15.6213C4.26609 16.5 5.85708 16.5 9.03906 16.5C12.221 16.5 13.812 16.5 14.8005 15.6213C15.7891 14.7426 15.7891 11.8284 15.7891 9" stroke="#FCFCFD"/>
<path id="Vector_2" d="M11.0343 10.6514L15.5398 9.29979C15.9864 9.1658 16.2097 9.09881 16.3514 8.93824C16.379 8.90696 16.404 8.87343 16.426 8.838C16.5391 8.65614 16.5391 8.42299 16.5391 7.9567C16.5391 6.11908 16.5391 5.20027 16.0343 4.57995C15.9373 4.46072 15.8283 4.35175 15.7091 4.25474C15.0888 3.75 14.17 3.75 12.3324 3.75H5.74576C3.90814 3.75 2.98934 3.75 2.36901 4.25474C2.24978 4.35175 2.14081 4.46072 2.0438 4.57995C1.53906 5.20027 1.53906 6.11908 1.53906 7.9567C1.53906 8.42299 1.53906 8.65613 1.65215 8.838C1.67417 8.87343 1.69912 8.90696 1.72672 8.93824C1.86843 9.09881 2.09174 9.1658 2.53837 9.29979L7.04382 10.6514" stroke="#FCFCFD"/>
<path id="Vector_3" d="M4.91406 3.75C5.53165 3.73435 6.1585 3.34118 6.36864 2.76024C6.37511 2.74237 6.38174 2.72249 6.39499 2.68273L6.41423 2.625C6.44587 2.53008 6.4617 2.4826 6.47862 2.4405C6.69477 1.90284 7.20127 1.53777 7.77969 1.50274C7.82499 1.5 7.87502 1.5 7.97509 1.5H10.1034C10.2034 1.5 10.2535 1.5 10.2988 1.50274C10.8772 1.53777 11.3837 1.90284 11.5998 2.4405C11.6168 2.48261 11.6326 2.53007 11.6642 2.625L11.6835 2.68273C11.6967 2.72226 11.7034 2.74242 11.7098 2.76024C11.92 3.34118 12.5465 3.73435 13.1641 3.75" stroke="#FCFCFD"/>
<path id="Vector_4" d="M10.5391 9.375H7.53906C7.33196 9.375 7.16406 9.54289 7.16406 9.75V11.3711C7.16406 11.5245 7.25742 11.6623 7.39979 11.7193L7.92489 11.9293C8.64012 12.2154 9.438 12.2154 10.1532 11.9293L10.6783 11.7193C10.8207 11.6623 10.9141 11.5245 10.9141 11.3711V9.75C10.9141 9.54289 10.7462 9.375 10.5391 9.375Z" stroke="#FCFCFD" stroke-width="1.5" stroke-linecap="round"/>
</g>
</svg>
