<svg width="25" height="25" viewBox="0 0 25 25" fill="none" xmlns="http://www.w3.org/2000/svg">
<path fill-rule="evenodd" clip-rule="evenodd" d="M10.9531 4.73438H14.9531C18.7244 4.73438 20.61 4.73438 21.7816 5.90595C22.9531 7.07752 22.9531 8.96314 22.9531 12.7344C22.9531 16.5056 22.9531 18.3912 21.7816 19.5628C20.61 20.7344 18.7244 20.7344 14.9531 20.7344H10.9531C7.18189 20.7344 5.29627 20.7344 4.1247 19.5628C2.95312 18.3912 2.95312 16.5056 2.95312 12.7344C2.95312 8.96314 2.95312 7.07752 4.1247 5.90595C5.29627 4.73438 7.18189 4.73438 10.9531 4.73438ZM14.2031 9.73438C14.2031 9.32016 14.5389 8.98438 14.9531 8.98438H19.9531C20.3673 8.98438 20.7031 9.32016 20.7031 9.73438C20.7031 10.1486 20.3673 10.4844 19.9531 10.4844H14.9531C14.5389 10.4844 14.2031 10.1486 14.2031 9.73438ZM15.2031 12.7344C15.2031 12.3202 15.5389 11.9844 15.9531 11.9844H19.9531C20.3673 11.9844 20.7031 12.3202 20.7031 12.7344C20.7031 13.1486 20.3673 13.4844 19.9531 13.4844H15.9531C15.5389 13.4844 15.2031 13.1486 15.2031 12.7344ZM16.2031 15.7344C16.2031 15.3202 16.5389 14.9844 16.9531 14.9844H19.9531C20.3673 14.9844 20.7031 15.3202 20.7031 15.7344C20.7031 16.1486 20.3673 16.4844 19.9531 16.4844H16.9531C16.5389 16.4844 16.2031 16.1486 16.2031 15.7344ZM11.9531 9.73438C11.9531 10.8389 11.0577 11.7344 9.95312 11.7344C8.84856 11.7344 7.95312 10.8389 7.95312 9.73438C7.95312 8.62981 8.84856 7.73438 9.95312 7.73438C11.0577 7.73438 11.9531 8.62981 11.9531 9.73438ZM9.95312 17.7344C13.9531 17.7344 13.9531 16.8389 13.9531 15.7344C13.9531 14.6298 12.1623 13.7344 9.95312 13.7344C7.74399 13.7344 5.95312 14.6298 5.95312 15.7344C5.95312 16.8389 5.95312 17.7344 9.95312 17.7344Z" fill="#1B3A6D"/>
</svg>
