<svg width="20" height="20" viewBox="0 0 20 20" fill="none" xmlns="http://www.w3.org/2000/svg">
<g id="fluent:apps-list-detail-20-filled">
<path id="Vector" d="M3.5 4C3.10218 4 2.72064 4.15804 2.43934 4.43934C2.15804 4.72064 2 5.10218 2 5.5V7.5C2 7.89782 2.15804 8.27936 2.43934 8.56066C2.72064 8.84196 3.10218 9 3.5 9H5.5C5.89782 9 6.27936 8.84196 6.56066 8.56066C6.84196 8.27936 7 7.89782 7 7.5V5.5C7 5.10218 6.84196 4.72064 6.56066 4.43934C6.27936 4.15804 5.89782 4 5.5 4H3.5ZM9.5 5C9.36739 5 9.24021 5.05268 9.14645 5.14645C9.05268 5.24021 9 5.36739 9 5.5C9 5.63261 9.05268 5.75979 9.14645 5.85355C9.24021 5.94732 9.36739 6 9.5 6H17.5C17.6326 6 17.7598 5.94732 17.8536 5.85355C17.9473 5.75979 18 5.63261 18 5.5C18 5.36739 17.9473 5.24021 17.8536 5.14645C17.7598 5.05268 17.6326 5 17.5 5H9.5ZM9.5 7C9.36739 7 9.24021 7.05268 9.14645 7.14645C9.05268 7.24021 9 7.36739 9 7.5C9 7.63261 9.05268 7.75979 9.14645 7.85355C9.24021 7.94732 9.36739 8 9.5 8H15.5C15.6326 8 15.7598 7.94732 15.8536 7.85355C15.9473 7.75979 16 7.63261 16 7.5C16 7.36739 15.9473 7.24021 15.8536 7.14645C15.7598 7.05268 15.6326 7 15.5 7H9.5ZM3.5 11C3.10218 11 2.72064 11.158 2.43934 11.4393C2.15804 11.7206 2 12.1022 2 12.5V14.5C2 14.8978 2.15804 15.2794 2.43934 15.5607C2.72064 15.842 3.10218 16 3.5 16H5.5C5.89782 16 6.27936 15.842 6.56066 15.5607C6.84196 15.2794 7 14.8978 7 14.5V12.5C7 12.1022 6.84196 11.7206 6.56066 11.4393C6.27936 11.158 5.89782 11 5.5 11H3.5ZM9.5 12C9.36739 12 9.24021 12.0527 9.14645 12.1464C9.05268 12.2402 9 12.3674 9 12.5C9 12.6326 9.05268 12.7598 9.14645 12.8536C9.24021 12.9473 9.36739 13 9.5 13H17.5C17.6326 13 17.7598 12.9473 17.8536 12.8536C17.9473 12.7598 18 12.6326 18 12.5C18 12.3674 17.9473 12.2402 17.8536 12.1464C17.7598 12.0527 17.6326 12 17.5 12H9.5ZM9.5 14C9.36739 14 9.24021 14.0527 9.14645 14.1464C9.05268 14.2402 9 14.3674 9 14.5C9 14.6326 9.05268 14.7598 9.14645 14.8536C9.24021 14.9473 9.36739 15 9.5 15H15.5C15.6326 15 15.7598 14.9473 15.8536 14.8536C15.9473 14.7598 16 14.6326 16 14.5C16 14.3674 15.9473 14.2402 15.8536 14.1464C15.7598 14.0527 15.6326 14 15.5 14H9.5Z" fill="#1B3A6D"/>
</g>
</svg>
