<svg width="25" height="24" viewBox="0 0 25 24" fill="none" xmlns="http://www.w3.org/2000/svg">
<path d="M18.8291 8.40579L16.0825 5.65917C14.1895 3.76619 13.243 2.8197 12.2093 3.02845C11.1756 3.23719 10.6706 4.4768 9.66054 6.95602L8.71326 9.28115C8.43468 9.96495 8.29539 10.3068 8.0553 10.5678C7.97355 10.6567 7.8838 10.7378 7.78718 10.8102C7.50338 11.0228 7.14919 11.1269 6.44083 11.3353C4.76639 11.8278 3.92916 12.074 3.64244 12.65C3.54912 12.8374 3.4968 13.0426 3.48896 13.2519C3.46487 13.8948 4.08195 14.5119 5.31611 15.7461L8.74222 19.1722C9.97638 20.4063 10.5935 21.0234 11.2364 20.9993C11.4457 20.9915 11.6508 20.9392 11.8383 20.8458C12.4143 20.5591 12.6605 19.7219 13.153 18.0475C13.3613 17.3391 13.4655 16.9849 13.6781 16.7011C13.7505 16.6045 13.8316 16.5147 13.9205 16.433C14.1814 16.1929 14.5233 16.0536 15.2071 15.775L17.5323 14.8277C20.0115 13.8177 21.2511 13.3127 21.4598 12.279C21.6686 11.2453 20.7221 10.2988 18.8291 8.40579Z" stroke="#1B3A6D" stroke-width="1.5"/>
<path d="M3.48788 20.9366L7.04688 17.375" stroke="#1B3A6D" stroke-width="1.5" stroke-linecap="round"/>
</svg>
