<svg width="25" height="25" viewBox="0 0 25 25" fill="none" xmlns="http://www.w3.org/2000/svg">
<path fill-rule="evenodd" clip-rule="evenodd" d="M14.5054 2.65224C14.135 2.5 13.6655 2.5 12.7266 2.5C11.7876 2.5 11.3181 2.5 10.9478 2.65224C10.454 2.85523 10.0617 3.24458 9.85712 3.73463C9.76375 3.95834 9.72721 4.2185 9.71291 4.59799C9.6919 5.15568 9.40372 5.67189 8.91673 5.95093C8.42974 6.22996 7.8352 6.21954 7.33805 5.95876C6.99974 5.7813 6.75445 5.68262 6.51255 5.65102C5.98265 5.58178 5.44674 5.72429 5.02272 6.0472C4.7047 6.28938 4.46995 6.6929 4.00047 7.49993C3.53098 8.30697 3.29623 8.71048 3.24391 9.10491C3.17415 9.6308 3.31774 10.1627 3.64311 10.5835C3.79162 10.7756 4.00034 10.937 4.32427 11.139C4.80048 11.436 5.10688 11.9419 5.10685 12.5C5.10682 13.0581 4.80043 13.5639 4.32426 13.8608C4.00028 14.0629 3.79153 14.2244 3.64301 14.4165C3.31764 14.8373 3.17405 15.3691 3.24381 15.895C3.29613 16.2894 3.53088 16.693 4.00037 17.5C4.46986 18.307 4.7046 18.7106 5.02262 18.9527C5.44664 19.2756 5.98255 19.4181 6.51245 19.3489C6.75434 19.3173 6.99962 19.2186 7.33789 19.0412C7.83508 18.7804 8.42966 18.77 8.91668 19.049C9.4037 19.3281 9.6919 19.8443 9.71292 20.4021C9.72722 20.7815 9.76376 21.0417 9.85712 21.2654C10.0617 21.7554 10.454 22.1448 10.9478 22.3478C11.3181 22.5 11.7876 22.5 12.7266 22.5C13.6655 22.5 14.135 22.5 14.5054 22.3478C14.9992 22.1448 15.3915 21.7554 15.596 21.2654C15.6894 21.0417 15.7259 20.7815 15.7402 20.402C15.7612 19.8443 16.0494 19.3281 16.5363 19.049C17.0234 18.7699 17.618 18.7804 18.1152 19.0412C18.4534 19.2186 18.6987 19.3172 18.9406 19.3488C19.4705 19.4181 20.0064 19.2756 20.4304 18.9527C20.7484 18.7105 20.9832 18.307 21.4527 17.4999C21.9221 16.6929 22.1569 16.2894 22.2092 15.895C22.279 15.3691 22.1354 14.8372 21.81 14.4164C21.6615 14.2243 21.4528 14.0628 21.1288 13.8608C20.6526 13.5639 20.3462 13.058 20.3463 12.4999C20.3463 11.9418 20.6527 11.4361 21.1288 11.1392C21.4528 10.9371 21.6616 10.7757 21.8101 10.5835C22.1355 10.1627 22.2791 9.63087 22.2093 9.10497C22.157 8.71055 21.9222 8.30703 21.4528 7.5C20.9833 6.69297 20.7485 6.28945 20.4305 6.04727C20.0065 5.72436 19.4706 5.58185 18.9407 5.65109C18.6988 5.68269 18.4535 5.78136 18.1152 5.9588C17.618 6.21959 17.0235 6.23002 16.5364 5.95096C16.0494 5.67191 15.7612 5.15566 15.7402 4.59794C15.7259 4.21848 15.6894 3.95833 15.596 3.73463C15.3915 3.24458 14.9992 2.85523 14.5054 2.65224ZM12.7266 15.5C14.396 15.5 15.7494 14.1569 15.7494 12.5C15.7494 10.8431 14.396 9.5 12.7266 9.5C11.0571 9.5 9.70372 10.8431 9.70372 12.5C9.70372 14.1569 11.0571 15.5 12.7266 15.5Z" fill="white"/>
</svg>
