<svg width="16" height="15" viewBox="0 0 16 15" fill="none" xmlns="http://www.w3.org/2000/svg">
<path d="M6.25156 8.44375L10.5203 10.9312M10.5141 4.06875L6.25156 6.55625M14.0078 3.125C14.0078 4.16053 13.1683 5 12.1328 5C11.0973 5 10.2578 4.16053 10.2578 3.125C10.2578 2.08947 11.0973 1.25 12.1328 1.25C13.1683 1.25 14.0078 2.08947 14.0078 3.125ZM6.50781 7.5C6.50781 8.53553 5.66835 9.375 4.63281 9.375C3.59728 9.375 2.75781 8.53553 2.75781 7.5C2.75781 6.46447 3.59728 5.625 4.63281 5.625C5.66835 5.625 6.50781 6.46447 6.50781 7.5ZM14.0078 11.875C14.0078 12.9105 13.1683 13.75 12.1328 13.75C11.0973 13.75 10.2578 12.9105 10.2578 11.875C10.2578 10.8395 11.0973 10 12.1328 10C13.1683 10 14.0078 10.8395 14.0078 11.875Z" stroke="white" stroke-linecap="round" stroke-linejoin="round"/>
</svg>
