<svg width="16" height="16" viewBox="0 0 16 16" fill="none" xmlns="http://www.w3.org/2000/svg">
<g id="share-2">
<path id="Icon" d="M6.14414 8.88906L10.4129 11.3766M10.4066 4.51406L6.14414 7.00156M13.9004 3.57031C13.9004 4.60585 13.0609 5.44531 12.0254 5.44531C10.9899 5.44531 10.1504 4.60585 10.1504 3.57031C10.1504 2.53478 10.9899 1.69531 12.0254 1.69531C13.0609 1.69531 13.9004 2.53478 13.9004 3.57031ZM6.40039 7.94531C6.40039 8.98085 5.56092 9.82031 4.52539 9.82031C3.48986 9.82031 2.65039 8.98085 2.65039 7.94531C2.65039 6.90978 3.48986 6.07031 4.52539 6.07031C5.56092 6.07031 6.40039 6.90978 6.40039 7.94531ZM13.9004 12.3203C13.9004 13.3558 13.0609 14.1953 12.0254 14.1953C10.9899 14.1953 10.1504 13.3558 10.1504 12.3203C10.1504 11.2848 10.9899 10.4453 12.0254 10.4453C13.0609 10.4453 13.9004 11.2848 13.9004 12.3203Z" stroke="white" stroke-linecap="round" stroke-linejoin="round"/>
</g>
</svg>
