<svg width="32" height="32" viewBox="0 0 32 32" fill="none" xmlns="http://www.w3.org/2000/svg">
<g clip-path="url(#clip0_9430_75232)">
<path d="M32.0011 8.81271C31.7511 9.35103 31.326 9.54485 30.7435 9.5068C30.2472 9.47431 29.7471 9.50448 29.2489 9.49875C28.6666 9.4921 28.255 9.10136 28.2539 8.56474C28.2528 8.02797 28.6643 7.63367 29.245 7.62686C29.764 7.62083 30.2842 7.6462 30.8021 7.6199C31.3929 7.58989 31.8011 7.80646 32.0012 8.37525V8.81271H32.0011Z" fill="url(#paint0_linear_9430_75232)"/>
<path d="M23.6281 0C24.1832 0.195527 24.4099 0.589519 24.383 1.17239C24.359 1.69199 24.3814 2.21344 24.3769 2.73412C24.3715 3.33865 23.9758 3.75615 23.425 3.74718C22.8877 3.73852 22.5095 3.32612 22.5043 2.73412C22.4998 2.2136 22.5222 1.69199 22.4982 1.17239C22.4713 0.589519 22.6981 0.195527 23.2531 0H23.6281Z" fill="#FEDF89"/>
<path d="M28.1218 17.9413C26.9211 18.343 25.708 18.709 24.5256 19.1644C24.4212 19.2046 24.3062 19.223 24.2215 19.306C23.8533 19.5658 23.4063 19.6491 23.0095 19.8466C22.8155 19.9431 22.6138 20.0262 22.4192 20.123C19.454 21.4487 16.724 23.1611 14.1611 25.1478C13.7416 25.4341 13.3683 25.7786 12.974 26.0966C12.8685 26.1817 12.7692 26.2713 12.6322 26.3007C11.6764 27.0973 10.7495 27.9257 9.86929 28.8059C9.75838 28.8331 9.69495 28.7544 9.63107 28.6906C8.60301 27.6658 7.57371 26.6421 6.55245 25.6103C6.52322 25.5808 6.50032 25.546 6.48269 25.5081C6.47495 25.4787 6.47449 25.4491 6.4816 25.4194C6.54317 25.2947 6.65176 25.2104 6.7469 25.1153C11.4122 20.4486 16.0782 15.7828 20.7448 11.1174C20.84 11.0222 20.9251 10.9144 21.0482 10.8504C21.0776 10.8422 21.1073 10.8417 21.137 10.8484C21.2349 10.8917 21.3017 10.9732 21.3747 11.0462C23.5563 13.2268 25.738 15.4073 27.9162 17.5914C28.0106 17.6859 28.1694 17.7571 28.1223 17.941L28.1218 17.9413Z" fill="#175CD3"/>
<path d="M21.0641 10.8735C20.9965 10.9516 20.9334 11.0344 20.8605 11.1072C16.1533 15.816 11.4454 20.5239 6.73667 25.2311C6.66381 25.304 6.58105 25.3672 6.50293 25.4348C6.37655 25.4718 6.31251 25.3742 6.24275 25.3052C5.21963 24.2929 4.21122 23.2661 3.18424 22.2577C3.14727 22.2213 3.11123 22.1834 3.13025 22.1239C3.26824 22.1307 3.32454 22.0148 3.40034 21.9361C6.53805 18.6721 9.23149 15.0868 11.2851 11.0379C12.4164 8.80764 13.2597 6.4655 14.0002 4.08283C14.0217 4.01338 14.0439 3.94423 14.0657 3.87493C14.2066 3.83657 14.2729 3.94934 14.3489 4.02513C16.5396 6.2115 18.728 8.40004 20.9144 10.5907C20.9898 10.6664 21.1042 10.732 21.0641 10.8734V10.8735Z" fill="#84CAFF"/>
<path d="M28.1223 17.9444C28.0752 17.8221 27.9678 17.7504 27.8807 17.6632C25.712 15.4923 23.5417 13.3228 21.3727 11.152C21.2851 11.0645 21.2073 10.967 21.125 10.8742C21.1323 10.808 21.1711 10.758 21.2161 10.7152C22.0145 9.95505 22.7305 9.11509 23.5191 8.34567C23.5717 8.29432 23.6271 8.24822 23.6992 8.22656C23.8523 8.36516 24.0115 8.49758 24.1575 8.64329C26.4126 10.8953 28.6665 13.1483 30.919 15.4029C31.5891 16.0736 31.7745 16.9063 31.4267 17.6442C30.8891 18.7848 29.4972 19.1003 28.5136 18.3016C28.3767 18.1905 28.2523 18.0638 28.1222 17.9444H28.1223Z" fill="#2E90FA"/>
<path d="M23.7018 8.22447C23.6978 8.23406 23.6961 8.24597 23.6895 8.25278C22.8377 9.12801 22.0419 10.058 21.1277 10.8721C21.1072 10.8721 21.087 10.8721 21.0666 10.8721C21.0133 10.8089 20.9645 10.7411 20.9061 10.6829C18.6907 8.46594 16.4745 6.24971 14.2575 4.03426C14.1991 3.97594 14.1315 3.92706 14.0683 3.87385C13.6853 3.49718 13.3609 3.09375 13.2852 2.52991C13.1884 1.80906 13.5454 1.04567 14.1841 0.678751C14.8485 0.296979 15.6941 0.344159 16.2649 0.797552C16.3623 0.875051 16.457 0.957346 16.545 1.04536C18.8991 3.39772 21.252 5.751 23.6047 8.10474C23.6409 8.14094 23.6698 8.1844 23.7021 8.22447H23.7018Z" fill="#B9E6FE"/>
<path d="M22.3507 20.0726C22.9643 19.7942 23.567 19.4884 24.2222 19.3125C24.5587 19.6788 24.9194 20.0231 25.1323 20.4888C25.7691 21.8817 25.1937 23.4795 23.7614 24.2033C21.4651 25.3638 19.1608 26.5086 16.8589 27.658C16.5987 27.7879 16.3285 27.8908 16.0397 27.9458C15.1796 28.1097 14.4031 27.9174 13.7353 27.3633C13.3447 27.0392 12.9988 26.6611 12.6328 26.3072C13.1068 25.8869 13.5828 25.4691 14.1113 25.1166C14.3624 25.2007 14.4974 25.4243 14.6735 25.5952C15.2081 26.1142 15.4881 26.168 16.1464 25.8399C18.3329 24.7506 20.5162 23.6548 22.7021 22.5644C22.8797 22.4757 23.0514 22.3817 23.1872 22.2315C23.4994 21.8861 23.5118 21.4551 23.2029 21.1041C22.99 20.8623 22.7481 20.6476 22.5252 20.415C22.434 20.3198 22.3137 20.2352 22.3507 20.0728V20.0726Z" fill="#B2DDFF"/>
<path d="M6.50262 25.5C6.93235 25.9191 7.36362 26.3364 7.79133 26.7576C8.48511 27.4409 9.17626 28.1266 9.86865 28.8114C10.3799 29.4412 10.5539 30.1349 10.2116 30.8962C9.68766 32.0613 8.22137 32.3818 7.26462 31.5264C6.69969 31.0213 6.18009 30.4652 5.64487 29.9272C5.05195 29.3312 4.46444 28.7296 3.87461 28.1305C3.8347 27.9755 3.96495 27.9108 4.04415 27.8242C4.46506 27.3642 4.94661 26.9672 5.39304 26.5336C5.67596 26.2587 5.95054 25.9752 6.23145 25.6983C6.31143 25.6196 6.37933 25.521 6.50262 25.5Z" fill="#2E90FA"/>
<path d="M6.50422 25.4961C6.00318 26.0321 5.49286 26.5569 4.9414 27.0437C4.56272 27.378 4.19781 27.7329 3.87606 28.1265C2.76353 27.0188 1.63446 25.9273 0.54437 24.798C-0.194269 24.0327 -0.167972 22.9043 0.542668 22.1815C1.2499 21.4622 2.35423 21.4373 3.13061 22.1234C3.6929 22.6747 4.25535 23.2259 4.81718 23.7775C5.37948 24.3294 5.94115 24.8819 6.50314 25.4342C6.5036 25.4549 6.50391 25.4755 6.50391 25.4961H6.50422Z" fill="#B9E6FE"/>
<path d="M30.3687 1.63141C30.7452 2.007 30.7953 2.52041 30.4259 2.90249C29.5241 3.83511 28.6 4.74653 27.6754 5.65688C27.3441 5.98296 26.6989 5.95342 26.4416 5.62192C26.3585 5.4697 26.4821 5.39035 26.5637 5.30836C27.7418 4.12391 28.9238 2.94317 30.107 1.76367C30.1777 1.69329 30.2436 1.59986 30.3689 1.63126L30.3687 1.63141Z" fill="url(#paint1_linear_9430_75232)"/>
<path d="M30.3652 1.62981C29.6992 2.28693 29.0319 2.9425 28.3678 3.60163C27.7845 4.18063 27.2044 4.76272 26.6248 5.34544C26.5462 5.42433 26.4393 5.4876 26.4379 5.62032C26.0192 5.15966 26.004 4.6795 26.4304 4.24498C27.2889 3.37022 28.1551 2.50272 29.0311 1.64544C29.4445 1.24108 29.9319 1.25052 30.365 1.62981H30.3652Z" fill="#FEDF89"/>
</g>
<defs>
<linearGradient id="paint0_linear_9430_75232" x1="28.9175" y1="7.69611" x2="29.6644" y2="9.93794" gradientUnits="userSpaceOnUse">
<stop stop-color="#F4CC46"/>
<stop offset="1" stop-color="#F88F33"/>
</linearGradient>
<linearGradient id="paint1_linear_9430_75232" x1="27.1692" y1="1.80257" x2="29.7433" y2="5.71059" gradientUnits="userSpaceOnUse">
<stop stop-color="#F4CC46"/>
<stop offset="1" stop-color="#F88F33"/>
</linearGradient>
<clipPath id="clip0_9430_75232">
<rect width="32" height="32.0071" fill="white"/>
</clipPath>
</defs>
</svg>
