<svg width="18" height="20" viewBox="0 0 18 20" fill="none" xmlns="http://www.w3.org/2000/svg">
<path id="Vector" d="M13.5598 0.5H4.43975C2.46375 0.5 0.863281 2.10047 0.863281 4.07647V15.9235C0.863281 17.8995 2.46375 19.5 4.43975 19.5H13.5598C15.5358 19.5 17.1362 17.8995 17.1362 15.9235V4.07647C17.1362 2.10047 15.5358 0.5 13.5598 0.5ZM9.78658 5.71271C9.78658 5.59647 9.79552 5.49812 9.78658 5.38188C9.77763 5.29247 9.8134 5.26565 9.90281 5.27459C10.0727 5.27459 10.2515 5.26565 10.4214 5.27459C10.5287 5.27459 10.5555 5.23882 10.5555 5.14047C10.5466 4.97059 10.5555 4.79176 10.5466 4.62188C10.5466 4.53247 10.5734 4.49671 10.6628 4.49671C10.8953 4.50565 11.1188 4.50565 11.3423 4.49671C11.4318 4.49671 11.4586 4.53247 11.4586 4.61294C11.4586 4.78282 11.4675 4.94376 11.4586 5.11365C11.4496 5.24776 11.5033 5.28353 11.6285 5.27459C11.7894 5.26565 11.9503 5.27459 12.1113 5.27459C12.2007 5.26565 12.2365 5.29247 12.2365 5.39082C12.2275 5.61435 12.2275 5.83788 12.2365 6.06141C12.2365 6.15082 12.2096 6.17765 12.1202 6.17765C11.9414 6.17765 11.7536 6.17765 11.5659 6.17765C11.4854 6.17765 11.4586 6.20447 11.4586 6.276C11.4586 6.46376 11.4586 6.64259 11.4586 6.82141C11.4586 6.91976 11.4228 6.93765 11.3334 6.93765C11.1188 6.93765 10.8953 6.92871 10.6718 6.93765C10.5645 6.94659 10.5466 6.90188 10.5466 6.81247C10.5555 6.65153 10.5376 6.49059 10.5555 6.32965C10.5555 6.19553 10.5108 6.16871 10.3856 6.17765C10.2336 6.18659 10.0816 6.17765 9.92069 6.17765C9.80446 6.18659 9.77763 6.14188 9.78658 6.03459C9.79552 5.92729 9.78658 5.82 9.78658 5.71271ZM8.06093 3.97812C8.54375 5.27459 9.03552 6.56212 9.52728 7.85859C9.52728 7.87647 9.53622 7.89435 9.54516 7.93012H8.65105C8.57952 7.93012 8.57058 7.88541 8.55269 7.84071C8.49905 7.69765 8.4454 7.56353 8.39175 7.42047C8.37387 7.34894 8.3381 7.33106 8.26658 7.33106H7.01481C6.93434 7.32212 6.89858 7.34894 6.87175 7.42047C6.82705 7.55459 6.76446 7.68871 6.71975 7.81388C6.69293 7.90329 6.65716 7.93906 6.56775 7.93012H5.73622C5.73622 7.93012 5.74516 7.84965 5.7541 7.81388C6.23693 6.54424 6.71975 5.27459 7.20258 4.00494C7.23834 3.90659 7.29199 3.87082 7.39034 3.87976C7.56916 3.88871 7.73905 3.88871 7.91787 3.87976C7.99834 3.87976 8.0341 3.90659 8.06093 3.97812ZM12.7103 16.8176H5.11034C4.74375 16.8176 4.43975 16.5136 4.43975 16.1471C4.43975 15.7805 4.74375 15.4765 5.11034 15.4765H12.7103C13.0769 15.4765 13.3809 15.7715 13.3809 16.1471C13.3809 16.5226 13.0769 16.8176 12.7103 16.8176ZM12.7103 14.5824H5.11034C4.74375 14.5824 4.43975 14.2784 4.43975 13.9118C4.43975 13.5452 4.74375 13.2412 5.11034 13.2412H12.7103C13.0769 13.2412 13.3809 13.5362 13.3809 13.9118C13.3809 14.2873 13.0769 14.5824 12.7103 14.5824ZM12.7103 12.3471H5.11034C4.74375 12.3471 4.43975 12.0431 4.43975 11.6765C4.43975 11.3099 4.74375 11.0059 5.11034 11.0059H12.7103C13.0769 11.0059 13.3809 11.3009 13.3809 11.6765C13.3809 12.052 13.0769 12.3471 12.7103 12.3471ZM13.4346 5.31035C13.3183 5.64118 13.1395 6.01671 12.8802 6.36541C12.3616 7.06282 11.5927 7.76024 10.636 8.27882C10.3946 8.404 10.1353 8.51129 9.89387 8.64541C9.64352 8.75271 9.36634 8.85106 9.08916 8.94047C8.53481 9.10141 7.96258 9.19977 7.3814 9.21765C6.79128 9.21765 6.20116 9.13718 5.64681 8.88682C5.11034 8.64541 4.67222 8.14471 4.51128 7.61718C4.35928 7.02706 4.46658 6.49059 4.67222 6.01671C4.87787 5.55176 5.17293 5.16729 5.46799 4.83647C5.75411 4.50565 6.04916 4.24635 6.34422 4.04071C6.49622 3.93341 6.6214 3.844 6.75552 3.77247C6.88069 3.67412 6.98799 3.60259 7.10422 3.54894C7.31881 3.41482 7.48869 3.32541 7.61387 3.27176C7.67646 3.24494 7.7301 3.22706 7.75693 3.20918C7.7301 3.22706 7.67646 3.25388 7.61387 3.28965C7.50658 3.36118 7.31881 3.45953 7.1221 3.58471C7.00587 3.65624 6.89858 3.72776 6.79128 3.82612C6.65716 3.91553 6.53199 4.00494 6.40681 4.12118C6.12963 4.33576 5.85246 4.61294 5.57528 4.92588C5.2981 5.23882 5.03881 5.62329 4.85999 6.07035C4.67222 6.50847 4.60069 7.02706 4.72587 7.50094C4.87787 8.00165 5.24446 8.404 5.73622 8.62753C6.23693 8.86894 6.79128 8.94047 7.33669 8.94047C7.8821 8.94047 8.46328 8.85106 8.99975 8.68118C9.27693 8.60965 9.52728 8.51129 9.76869 8.42188C10.028 8.31459 10.2694 8.20729 10.5019 8.07318C10.9668 7.81388 11.4049 7.55459 11.7715 7.25059C12.147 6.93765 12.4779 6.59788 12.7282 6.26706C12.9875 5.93623 13.1932 5.58753 13.3183 5.27459C13.4525 4.96165 13.5061 4.64871 13.5061 4.41624C13.5061 4.28212 13.5061 4.17482 13.4882 4.08541C13.4703 3.98706 13.4703 3.89765 13.4346 3.844C13.4703 3.89765 13.4882 3.98706 13.5061 4.08541C13.5419 4.17482 13.5419 4.28212 13.5598 4.41624C13.5776 4.66659 13.5419 4.97953 13.4346 5.31035Z" fill="#1B3A6D"/>
</svg>
