<svg width="16" height="17" viewBox="0 0 16 17" fill="none" xmlns="http://www.w3.org/2000/svg">
<g id="Bold / Money / Verified Check">
<path id="Subtract" fill-rule="evenodd" clip-rule="evenodd" d="M6.39363 2.63612C6.23128 2.77447 6.1501 2.84366 6.06341 2.90176C5.86467 3.03497 5.64148 3.12741 5.40676 3.17375C5.30437 3.19397 5.19805 3.20245 4.98542 3.21942C4.45116 3.26205 4.18403 3.28337 3.96117 3.36209C3.4457 3.54416 3.04025 3.94961 2.85818 4.46508C2.77947 4.68794 2.75815 4.95507 2.71551 5.48932C2.69855 5.70196 2.69006 5.80828 2.66985 5.91067C2.62351 6.14539 2.53106 6.36858 2.39786 6.56731C2.33975 6.65401 2.27057 6.73519 2.13221 6.89754C1.78459 7.30546 1.61077 7.50943 1.50884 7.72268C1.27309 8.21591 1.27309 8.7893 1.50884 9.28253C1.61077 9.49578 1.78458 9.69975 2.13221 10.1077C2.27055 10.27 2.33975 10.3512 2.39786 10.4379C2.53106 10.6366 2.62351 10.8598 2.66985 11.0945C2.69006 11.1969 2.69855 11.3032 2.71551 11.5159C2.75815 12.0501 2.77947 12.3173 2.85818 12.5401C3.04025 13.0556 3.4457 13.4611 3.96117 13.6431C4.18403 13.7218 4.45116 13.7432 4.98542 13.7858C5.19805 13.8028 5.30437 13.8112 5.40676 13.8315C5.64148 13.8778 5.86467 13.9702 6.06341 14.1034C6.1501 14.1616 6.23128 14.2307 6.39363 14.3691C6.80156 14.7167 7.00552 14.8905 7.21877 14.9925C7.712 15.2282 8.2854 15.2282 8.77863 14.9925C8.99188 14.8905 9.19584 14.7167 9.60376 14.3691C9.76612 14.2307 9.84729 14.1616 9.93399 14.1034C10.1327 13.9702 10.3559 13.8778 10.5906 13.8315C10.693 13.8112 10.7993 13.8028 11.012 13.7858C11.5462 13.7432 11.8134 13.7218 12.0362 13.6431C12.5517 13.4611 12.9571 13.0556 13.1392 12.5401C13.2179 12.3173 13.2392 12.0501 13.2819 11.5159C13.2989 11.3032 13.3073 11.1969 13.3275 11.0945C13.3739 10.8598 13.4663 10.6366 13.5995 10.4379C13.6576 10.3512 13.7268 10.27 13.8652 10.1077C14.2128 9.69975 14.3866 9.49578 14.4886 9.28253C14.7243 8.7893 14.7243 8.21591 14.4886 7.72268C14.3866 7.50943 14.2128 7.30546 13.8652 6.89754C13.7268 6.73519 13.6576 6.65401 13.5995 6.56731C13.4663 6.36858 13.3739 6.14539 13.3275 5.91067C13.3073 5.80828 13.2989 5.70196 13.2819 5.48932C13.2392 4.95507 13.2179 4.68794 13.1392 4.46507C12.9571 3.94961 12.5517 3.54416 12.0362 3.36209C11.8134 3.28337 11.5462 3.26205 11.012 3.21942C10.7993 3.20245 10.693 3.19397 10.5906 3.17375C10.3559 3.12741 10.1327 3.03497 9.93399 2.90176C9.84729 2.84365 9.76612 2.77448 9.60376 2.63612C9.19584 2.28849 8.99188 2.11467 8.77863 2.01275C8.2854 1.777 7.712 1.777 7.21877 2.01275C7.00552 2.11467 6.80155 2.28849 6.39363 2.63612ZM10.9144 7.07803C11.1262 6.86614 11.1262 6.5226 10.9144 6.31071C10.7025 6.09883 10.3589 6.09883 10.147 6.31071L6.91354 9.54421L5.85034 8.48101C5.63845 8.26912 5.29491 8.26912 5.08302 8.48101C4.87113 8.6929 4.87113 9.03643 5.08302 9.24832L6.52989 10.6952C6.74177 10.9071 7.08531 10.9071 7.2972 10.6952L10.9144 7.07803Z" fill="#039855"/>
</g>
</svg>
