<svg width="21" height="20" viewBox="0 0 21 20" fill="none" xmlns="http://www.w3.org/2000/svg">
<g id="Bold / Money / Verified Check">
<path id="Subtract" fill-rule="evenodd" clip-rule="evenodd" d="M8.49497 2.66429C8.29203 2.83723 8.19056 2.92371 8.08219 2.99634C7.83377 3.16285 7.55478 3.27841 7.26139 3.33633C7.13339 3.3616 7.0005 3.37221 6.7347 3.39342C6.06688 3.44671 5.73297 3.47336 5.45439 3.57175C4.81006 3.79934 4.30324 4.30615 4.07566 4.95048C3.97726 5.22906 3.95062 5.56298 3.89732 6.2308C3.87611 6.49659 3.86551 6.62949 3.84024 6.75748C3.78231 7.05087 3.66675 7.32986 3.50025 7.57828C3.42762 7.68665 3.34114 7.78812 3.1682 7.99107C2.73366 8.50096 2.51639 8.75592 2.38898 9.02249C2.0943 9.63902 2.0943 10.3558 2.38898 10.9723C2.51639 11.2389 2.73366 11.4938 3.1682 12.0037C3.34112 12.2066 3.42762 12.3081 3.50025 12.4165C3.66675 12.6649 3.78231 12.9439 3.84024 13.2373C3.86551 13.3653 3.87611 13.4982 3.89732 13.764C3.95062 14.4318 3.97726 14.7657 4.07566 15.0443C4.30324 15.6886 4.81006 16.1955 5.45439 16.423C5.73297 16.5214 6.06688 16.5481 6.7347 16.6014C7.0005 16.6226 7.13339 16.6332 7.26139 16.6585C7.55478 16.7164 7.83377 16.8319 8.08219 16.9984C8.19056 17.0711 8.29203 17.1576 8.49497 17.3305C9.00488 17.765 9.25983 17.9823 9.52639 18.1097C10.1429 18.4044 10.8597 18.4044 11.4762 18.1097C11.7428 17.9823 11.9977 17.765 12.5076 17.3305C12.7106 17.1576 12.812 17.0711 12.9204 16.9984C13.1688 16.8319 13.4478 16.7164 13.7412 16.6585C13.8692 16.6332 14.0021 16.6226 14.2679 16.6014C14.9357 16.5481 15.2696 16.5214 15.5482 16.423C16.1925 16.1955 16.6994 15.6886 16.9269 15.0443C17.0253 14.7657 17.052 14.4318 17.1053 13.764C17.1265 13.4982 17.1371 13.3653 17.1624 13.2373C17.2203 12.9439 17.3359 12.6649 17.5024 12.4165C17.575 12.3081 17.6615 12.2067 17.8344 12.0037C18.2689 11.4938 18.4862 11.2389 18.6136 10.9723C18.9083 10.3558 18.9083 9.63902 18.6136 9.02249C18.4862 8.75592 18.2689 8.50097 17.8344 7.99107C17.6615 7.78812 17.575 7.68665 17.5024 7.57828C17.3359 7.32986 17.2203 7.05087 17.1624 6.75748C17.1371 6.62949 17.1265 6.49659 17.1053 6.2308C17.052 5.56298 17.0253 5.22906 16.9269 4.95048C16.6994 4.30615 16.1925 3.79934 15.5482 3.57175C15.2696 3.47336 14.9357 3.44671 14.2679 3.39342C14.0021 3.37221 13.8692 3.3616 13.7412 3.33633C13.4478 3.27841 13.1688 3.16285 12.9204 2.99634C12.812 2.92371 12.7106 2.83724 12.5076 2.66429C11.9977 2.22975 11.7428 2.01248 11.4762 1.88508C10.8597 1.59039 10.1429 1.59039 9.52639 1.88508C9.25983 2.01248 9.00487 2.22976 8.49497 2.66429ZM14.1459 8.21668C14.4107 7.95182 14.4107 7.52239 14.1459 7.25753C13.881 6.99267 13.4516 6.99267 13.1867 7.25753L9.14486 11.2994L7.81585 9.9704C7.55099 9.70554 7.12157 9.70554 6.85671 9.9704C6.59185 10.2353 6.59185 10.6647 6.85671 10.9295L8.66529 12.7381C8.93015 13.003 9.35957 13.003 9.62443 12.7381L14.1459 8.21668Z" fill="white"/>
</g>
</svg>
