<svg width="25" height="25" viewBox="0 0 25 25" fill="none" xmlns="http://www.w3.org/2000/svg">
<g id="Bold / Users / Users Group Rounded">
<circle id="Vector" cx="9.5" cy="6.78125" r="4" fill="white"/>
<ellipse id="Vector_2" cx="9.5" cy="17.7812" rx="7" ry="4" fill="white"/>
<g id="Vector_3">
<path d="M21.5011 17.781C21.5011 19.4378 19.4655 20.7809 16.9803 20.7809C17.7125 19.9806 18.2159 18.976 18.2159 17.7824C18.2159 16.5873 17.7113 15.5818 16.9777 14.781C19.463 14.781 21.5011 16.1241 21.5011 17.781Z" fill="white"/>
<path d="M18.5011 6.78125C18.5011 8.4381 17.1579 9.78125 15.5011 9.78125C15.1398 9.78125 14.7934 9.71739 14.4727 9.60033C14.9457 8.76824 15.2159 7.80574 15.2159 6.78013C15.2159 5.75529 14.9461 4.79345 14.4737 3.96178C14.7942 3.84497 15.1402 3.78125 15.5011 3.78125C17.1579 3.78125 18.5011 5.1244 18.5011 6.78125Z" fill="white"/>
</g>
</g>
</svg>
