<svg width="25" height="25" viewBox="0 0 25 25" fill="none" xmlns="http://www.w3.org/2000/svg">
<g id="Bold / Money / Dollar">
<g id="Subtract">
<path d="M11.75 8.62873C10.8141 8.88464 10.25 9.60279 10.25 10.2812C10.25 10.9597 10.8141 11.6779 11.75 11.9338V8.62873Z" fill="white"/>
<path d="M13.25 13.6287V16.9338C14.1859 16.6779 14.75 15.9597 14.75 15.2813C14.75 14.6028 14.1859 13.8846 13.25 13.6287Z" fill="white"/>
<path fill-rule="evenodd" clip-rule="evenodd" d="M22.5 12.7813C22.5 18.3041 18.0228 22.7813 12.5 22.7812C6.97715 22.7812 2.5 18.3041 2.5 12.7812C2.5 7.2584 6.97715 2.78125 12.5 2.78125C18.0228 2.78125 22.5 7.2584 22.5 12.7813ZM12.5 6.03125C12.9142 6.03125 13.25 6.36704 13.25 6.78125V7.09798C14.8804 7.38992 16.25 8.61486 16.25 10.2813C16.25 10.6955 15.9142 11.0313 15.5 11.0313C15.0858 11.0313 14.75 10.6955 14.75 10.2813C14.75 9.60279 14.1859 8.88464 13.25 8.62873V12.098C14.8804 12.3899 16.25 13.6149 16.25 15.2813C16.25 16.9476 14.8804 18.1726 13.25 18.4645L13.25 18.7812C13.25 19.1955 12.9142 19.5312 12.5 19.5312C12.0858 19.5312 11.75 19.1955 11.75 18.7812L11.75 18.4645C10.1196 18.1726 8.75 16.9476 8.75 15.2813C8.75 14.867 9.08579 14.5313 9.5 14.5313C9.91421 14.5313 10.25 14.867 10.25 15.2813C10.25 15.9597 10.8141 16.6779 11.75 16.9338V13.4645C10.1196 13.1726 8.75 11.9476 8.75 10.2812C8.75 8.61486 10.1196 7.38992 11.75 7.09798V6.78125C11.75 6.36704 12.0858 6.03125 12.5 6.03125Z" fill="white"/>
</g>
</g>
</svg>
