<svg width="24" height="25" viewBox="0 0 24 25" fill="none" xmlns="http://www.w3.org/2000/svg">
<path d="M7.75 3.09375C7.75 2.67954 7.41421 2.34375 7 2.34375C6.58579 2.34375 6.25 2.67954 6.25 3.09375V4.67301C4.81067 4.78826 3.86577 5.07112 3.17157 5.76532C2.47737 6.45952 2.19451 7.40442 2.07926 8.84375L21.9207 8.84375C21.8055 7.40442 21.5226 6.45952 20.8284 5.76532C20.1342 5.07112 19.1893 4.78826 17.75 4.67301V3.09375C17.75 2.67954 17.4142 2.34375 17 2.34375C16.5858 2.34375 16.25 2.67954 16.25 3.09375V4.60665C15.5847 4.59375 14.839 4.59375 14 4.59375H10C9.16097 4.59375 8.41527 4.59375 7.75 4.60665V3.09375Z" fill="white"/>
<path fill-rule="evenodd" clip-rule="evenodd" d="M2 12.5938C2 11.7547 2 11.009 2.0129 10.3438L21.9871 10.3438C22 11.009 22 11.7547 22 12.5938L22 14.5938C22 18.365 22 20.2506 20.8284 21.4222C19.6569 22.5938 17.7712 22.5938 14 22.5938L10 22.5938C6.22876 22.5938 4.34315 22.5938 3.17157 21.4222C2 20.2506 2 18.365 2 14.5938L2 12.5938ZM17 14.5938C17.5523 14.5938 18 14.146 18 13.5938C18 13.0415 17.5523 12.5938 17 12.5938C16.4477 12.5938 16 13.0415 16 13.5938C16 14.146 16.4477 14.5938 17 14.5938ZM17 18.5938C17.5523 18.5938 18 18.146 18 17.5938C18 17.0415 17.5523 16.5938 17 16.5938C16.4477 16.5938 16 17.0415 16 17.5938C16 18.146 16.4477 18.5938 17 18.5938ZM13 13.5938C13 14.146 12.5523 14.5938 12 14.5938C11.4477 14.5938 11 14.146 11 13.5938C11 13.0415 11.4477 12.5938 12 12.5938C12.5523 12.5938 13 13.0415 13 13.5938ZM13 17.5938C13 18.146 12.5523 18.5938 12 18.5938C11.4477 18.5938 11 18.146 11 17.5938C11 17.0415 11.4477 16.5938 12 16.5938C12.5523 16.5938 13 17.0415 13 17.5938ZM7 14.5938C7.55228 14.5938 8 14.146 8 13.5938C8 13.0415 7.55228 12.5938 7 12.5938C6.44772 12.5938 6 13.0415 6 13.5938C6 14.146 6.44772 14.5938 7 14.5938ZM7 18.5938C7.55228 18.5938 8 18.146 8 17.5938C8 17.0415 7.55228 16.5938 7 16.5938C6.44772 16.5938 6 17.0415 6 17.5938C6 18.146 6.44772 18.5938 7 18.5938Z" fill="white"/>
</svg>
