<svg width="25" height="25" viewBox="0 0 25 25" fill="none" xmlns="http://www.w3.org/2000/svg">
<path fill-rule="evenodd" clip-rule="evenodd" d="M12.5001 22.7814C17.4707 22.7814 21.5001 18.7519 21.5001 13.7814C21.5001 8.81079 17.4707 4.78135 12.5001 4.78135C7.52954 4.78135 3.5001 8.81079 3.5001 13.7814C3.5001 18.7519 7.52954 22.7814 12.5001 22.7814ZM15.1518 11.1297C15.4446 11.4226 15.4446 11.8975 15.1518 12.1904L13.5607 13.7814L15.1517 15.3724C15.4446 15.6653 15.4446 16.1401 15.1517 16.433C14.8588 16.7259 14.384 16.7259 14.0911 16.433L12.5001 14.842L10.9091 16.433C10.6162 16.7259 10.1413 16.7259 9.84845 16.433C9.55556 16.1401 9.55556 15.6652 9.84845 15.3723L11.4394 13.7814L9.84843 12.1904C9.55554 11.8975 9.55554 11.4226 9.84843 11.1297C10.1413 10.8368 10.6162 10.8368 10.9091 11.1297L12.5001 12.7207L14.0911 11.1297C14.384 10.8368 14.8589 10.8368 15.1518 11.1297Z" fill="white"/>
<path fill-rule="evenodd" clip-rule="evenodd" d="M8.63612 2.38385C8.85566 2.73511 8.74887 3.19782 8.39762 3.41735L4.3976 5.91735C4.04634 6.13688 3.58363 6.0301 3.3641 5.67885C3.14457 5.32759 3.25135 4.86488 3.6026 4.64535L7.60263 2.14535C7.95388 1.92582 8.41659 2.0326 8.63612 2.38385ZM16.3641 2.38385C16.5836 2.0326 17.0463 1.92582 17.3976 2.14535L21.3976 4.64535C21.7489 4.86488 21.8556 5.3276 21.6361 5.67885C21.4166 6.0301 20.9539 6.13688 20.6026 5.91735L16.6026 3.41735C16.2513 3.19782 16.1446 2.7351 16.3641 2.38385Z" fill="white"/>
</svg>
