<svg width="21" height="21" viewBox="0 0 21 21" fill="none" xmlns="http://www.w3.org/2000/svg">
<path fill-rule="evenodd" clip-rule="evenodd" d="M11.5867 19.7627L12.1288 18.8468C12.5492 18.1364 12.7595 17.7813 13.0972 17.5848C13.4349 17.3884 13.86 17.3811 14.7104 17.3665C15.9658 17.3448 16.7531 17.2679 17.4134 16.9944C18.6386 16.4869 19.6119 15.5136 20.1194 14.2884C20.5 13.3696 20.5 12.2047 20.5 9.875V8.875C20.5 5.60157 20.5 3.96485 19.7632 2.76251C19.3509 2.08973 18.7853 1.52408 18.1125 1.1118C16.9101 0.375 15.2734 0.375 12 0.375L9 0.375C5.72657 0.375 4.08985 0.375 2.88751 1.1118C2.21473 1.52408 1.64908 2.08973 1.2368 2.76251C0.5 3.96485 0.5 5.60157 0.5 8.875L0.5 9.875C0.5 12.2047 0.5 13.3696 0.880602 14.2884C1.38807 15.5136 2.36144 16.4869 3.58658 16.9944C4.24689 17.2679 5.03422 17.3448 6.28958 17.3665C7.13992 17.3811 7.56509 17.3884 7.90279 17.5848C8.24049 17.7813 8.45073 18.1364 8.87121 18.8468L9.41331 19.7627C9.89647 20.579 11.1035 20.579 11.5867 19.7627ZM10.5 4.625C10.9142 4.625 11.25 4.96079 11.25 5.375L11.25 13.375C11.25 13.7892 10.9142 14.125 10.5 14.125C10.0858 14.125 9.75 13.7892 9.75 13.375L9.75 5.375C9.75 4.96079 10.0858 4.625 10.5 4.625ZM7.25 7.375C7.25 6.96079 6.91421 6.625 6.5 6.625C6.08579 6.625 5.75 6.96079 5.75 7.375L5.75 11.375C5.75 11.7892 6.08579 12.125 6.5 12.125C6.91421 12.125 7.25 11.7892 7.25 11.375L7.25 7.375ZM14.5 6.625C14.9142 6.625 15.25 6.96079 15.25 7.375V11.375C15.25 11.7892 14.9142 12.125 14.5 12.125C14.0858 12.125 13.75 11.7892 13.75 11.375V7.375C13.75 6.96079 14.0858 6.625 14.5 6.625Z" fill="white"/>
</svg>
