<svg width="46" height="52" viewBox="0 0 46 52" fill="none" xmlns="http://www.w3.org/2000/svg">
<g clip-path="url(#clip0_8379_47219)">
<path d="M37.0645 7H8.93945C6.75862 7 4.98438 8.77425 4.98438 10.9551V14.5586C4.98438 15.2867 5.57465 15.877 6.30273 15.877H39.7012C40.4293 15.877 41.0195 15.2867 41.0195 14.5586V10.9551C41.0195 8.77425 39.2453 7 37.0645 7Z" fill="#1BB3F9"/>
<path d="M37.0625 7H23V15.877H39.6992C40.4273 15.877 41.0176 15.2867 41.0176 14.5586V10.9551C41.0176 8.77425 39.2433 7 37.0625 7Z" fill="#008BE5"/>
<path d="M41.5449 13.2422H4.45508C2.27425 13.2422 0.5 15.0164 0.5 17.1973V40.0488C0.5 42.2297 2.27425 44.0039 4.45508 44.0039H16.9581L21.8596 51.4111C22.1038 51.78 22.5167 52.002 22.959 52.002C22.9597 52.002 22.9605 52.002 22.9612 52.002C23.4044 52.0012 23.8176 51.7778 24.0609 51.4075L28.9248 44.0039H41.5449C43.7258 44.0039 45.5 42.2297 45.5 40.0488V17.1973C45.5 15.0164 43.7258 13.2422 41.5449 13.2422Z" fill="#54C9EB"/>
<path d="M41.5449 13.2422H23V52.0006C23.4284 51.9873 23.8247 51.7669 24.0609 51.4075L28.9248 44.0039H41.5449C43.7258 44.0039 45.5 42.2297 45.5 40.0488V17.1973C45.5 15.0164 43.7258 13.2422 41.5449 13.2422Z" fill="#1BB3F9"/>
<path d="M35.3926 35.2148H10.6074C9.87934 35.2148 9.28906 34.6246 9.28906 33.8965C9.28906 33.1684 9.87934 32.5781 10.6074 32.5781H35.3926C36.1207 32.5781 36.7109 33.1684 36.7109 33.8965C36.7109 34.6246 36.1207 35.2148 35.3926 35.2148Z" fill="#FFF35D"/>
<path d="M29.1543 24.668H16.8496C16.1215 24.668 15.5312 24.0777 15.5312 23.3496C15.5312 22.6215 16.1215 22.0312 16.8496 22.0312H29.1543C29.8824 22.0312 30.4727 22.6215 30.4727 23.3496C30.4727 24.0777 29.8824 24.668 29.1543 24.668Z" fill="#FFF35D"/>
<path d="M35.3926 29.9414H10.6074C9.87934 29.9414 9.28906 29.3511 9.28906 28.623C9.28906 27.895 9.87934 27.3047 10.6074 27.3047H35.3926C36.1207 27.3047 36.7109 27.895 36.7109 28.623C36.7109 29.3511 36.1207 29.9414 35.3926 29.9414Z" fill="#FFF35D"/>
<path d="M35.3926 32.5781H23V35.2148H35.3926C36.1207 35.2148 36.7109 34.6246 36.7109 33.8965C36.7109 33.1684 36.1207 32.5781 35.3926 32.5781Z" fill="#FFC733"/>
<path d="M29.1523 22.0312H23V24.668H29.1523C29.8804 24.668 30.4707 24.0777 30.4707 23.3496C30.4707 22.6215 29.8804 22.0312 29.1523 22.0312Z" fill="#FFC733"/>
<path d="M35.3926 27.3047H23V29.9414H35.3926C36.1207 29.9414 36.7109 29.3511 36.7109 28.623C36.7109 27.895 36.1207 27.3047 35.3926 27.3047Z" fill="#FFC733"/>
</g>
<defs>
<clipPath id="clip0_8379_47219">
<rect width="45" height="45" fill="white" transform="translate(0.5 7)"/>
</clipPath>
</defs>
</svg>
