<svg width="52" height="53" viewBox="0 0 52 53" fill="none" xmlns="http://www.w3.org/2000/svg">
<g clip-path="url(#clip0_8863_55927)">
<path d="M12.09 50.2344H7.21853C4.44869 50.2344 2.19531 47.9809 2.19531 45.2112V7.25759C2.19522 4.48784 4.44869 2.23438 7.21853 2.23438H12.0899C13.0146 2.23438 13.7642 2.98409 13.7642 3.90875V48.56C13.7643 49.4847 13.0146 50.2344 12.09 50.2344Z" fill="#FFCE3E"/>
<path d="M48.1327 50.2344H10.4141V2.23438H48.1327C49.0574 2.23438 49.8071 2.98409 49.8071 3.90875V48.56C49.8072 49.4847 49.0574 50.2344 48.1327 50.2344Z" fill="#FEE856"/>
<path d="M48.1297 2.23438H30.4219V50.2344H48.1297C49.0544 50.2344 49.804 49.4847 49.804 48.56V3.90875C49.8041 2.98409 49.0544 2.23438 48.1297 2.23438Z" fill="#FFCE3E"/>
<path d="M42.3017 30.8659H18.5416C17.6168 30.8659 16.8672 30.1162 16.8672 29.1915V9.67437C16.8672 8.74962 17.6169 8 18.5416 8H42.3017C43.2264 8 43.976 8.74972 43.976 9.67437V29.1915C43.9761 30.1164 43.2264 30.8659 42.3017 30.8659Z" fill="#0778B8"/>
<path d="M42.3019 8H30.4219V30.866H42.3019C43.2266 30.866 43.9762 30.1163 43.9762 29.1916V9.67447C43.9763 8.74972 43.2266 8 42.3019 8Z" fill="#224F9C"/>
<path d="M42.3045 30.8633H34.3262C33.803 30.8633 33.3101 30.619 32.9934 30.2025L29.0917 25.0729C28.6361 24.4739 28.6361 23.6445 29.0917 23.0454L33.0809 17.8012C33.75 16.9215 35.0754 16.9194 35.7462 17.8012L43.6371 28.1751C44.4738 29.275 43.688 30.8633 42.3045 30.8633Z" fill="#62D2A2"/>
<path d="M43.6344 28.175L35.7436 17.8012C35.0729 16.9194 33.7474 16.9215 33.0783 17.8012L30.4219 21.2934V26.8249L32.9909 30.2025C33.3076 30.6187 33.8005 30.8632 34.3237 30.8632H42.302C43.6852 30.8631 44.471 29.2748 43.6344 28.175Z" fill="#1FAB89"/>
<path d="M42.3017 39.9972H18.5416C17.6168 39.9972 16.8672 39.2475 16.8672 38.3228C16.8672 37.3982 17.6169 36.6484 18.5416 36.6484H42.3017C43.2264 36.6484 43.976 37.3982 43.976 38.3228C43.976 39.2475 43.2264 39.9972 42.3017 39.9972Z" fill="#FFCE3E"/>
<path d="M34.3256 30.8627H18.5437C17.1618 30.8627 16.3734 29.2757 17.2111 28.1746L25.1019 17.8008C25.7704 16.9218 27.0967 16.9194 27.7672 17.8008L35.6582 28.1746C36.4949 29.2745 35.709 30.8627 34.3256 30.8627Z" fill="#9DF3C4"/>
<path d="M42.3019 36.6484H30.4219V39.9973H42.3019C43.2266 39.9973 43.9762 39.2476 43.9762 38.3229C43.9762 37.3983 43.2266 36.6484 42.3019 36.6484Z" fill="#F59D00"/>
<path d="M35.6563 28.1783L30.4219 21.2969V30.8664H34.3236C35.7069 30.8664 36.4928 29.2782 35.6563 28.1783Z" fill="#62D2A2"/>
</g>
<defs>
<clipPath id="clip0_8863_55927">
<rect width="48" height="48" fill="white" transform="translate(2 2.23438)"/>
</clipPath>
</defs>
</svg>
