<svg width="53" height="52" viewBox="0 0 53 52" fill="none" xmlns="http://www.w3.org/2000/svg">
<g clip-path="url(#clip0_8863_55957)">
<path d="M40.0876 28.094C40.0855 28.468 40.1163 28.8359 40.1736 29.2088C40.7433 32.9005 43.9565 35.6741 47.6922 35.6813C49.1041 35.6833 50.5161 35.6823 51.928 35.6833C51.9341 36.753 51.9351 37.8227 51.9485 38.8924C51.9505 39.1106 51.8573 39.2838 51.7599 39.4621C51.2025 40.4939 50.3173 41.1465 49.2701 41.6107C49.015 41.8802 48.6687 41.9427 48.3347 41.9478C46.3479 41.9785 44.3612 42.0154 42.3755 41.9334C42.3038 41.915 42.2393 41.8863 42.1788 41.8505C42.1511 41.8351 42.1255 41.8177 42.0999 41.7992C42.144 41.7992 42.188 41.7982 42.2321 41.7982C42.2024 41.7572 42.1778 41.7111 42.1419 41.6763C39.2669 38.8012 36.3908 35.9272 33.5157 33.0521C33.196 32.7324 32.8077 32.6126 32.363 32.6126C30.3046 32.6126 28.2461 32.6044 26.1877 32.5992L26.1857 32.6238C26.1857 32.6238 26.1785 32.6177 26.1754 32.6136C26.1467 32.5849 26.1191 32.548 26.0955 32.505C26.0125 31.5234 25.9285 30.5418 26.1467 29.5654C26.1539 29.5592 26.16 29.5531 26.1672 29.5469C26.1734 29.5418 26.1785 29.5367 26.1846 29.5326L26.1867 29.5305C26.1867 29.5305 26.1877 29.5295 26.1887 29.5295C26.4049 29.3574 26.6703 29.3973 26.9203 29.3973C28.5873 29.3912 30.2544 29.3943 31.9214 29.3943C32.1591 29.3932 32.3979 29.4014 32.6346 29.3615C33.318 29.2457 33.7678 28.7416 33.7893 28.0694C33.8108 27.3973 33.3477 26.8163 32.6766 26.677C32.4409 26.6288 32.2022 26.636 31.9645 26.636C30.28 26.635 28.5955 26.6391 26.9121 26.6329C26.6652 26.6329 26.4018 26.6709 26.1887 26.4997C26.1816 26.4936 26.1764 26.4885 26.1693 26.4823H26.1682C26.159 26.4741 26.1498 26.4649 26.1406 26.4557C26.0084 26.2405 26.0238 25.9987 26.0238 25.762C26.0207 24.2015 26.0197 22.64 26.0238 21.0785C26.0248 20.8275 26.0002 20.5683 26.1641 20.3459C26.1641 20.3449 26.1662 20.3449 26.1662 20.3439C26.1723 20.3388 26.1775 20.3347 26.1836 20.3306C26.1857 20.3285 26.1867 20.3275 26.1877 20.3275C26.1887 20.3254 26.1898 20.3254 26.1908 20.3244C26.4182 20.1543 26.6887 20.1871 26.948 20.1871C28.4869 20.1871 30.0269 20.1738 31.5659 20.1922C31.6089 20.1922 31.6509 20.1922 31.694 20.1933H31.6981C33.0813 20.181 34.4666 20.1789 35.8498 20.1933C35.8846 20.1933 35.9205 20.1933 35.9553 20.1943C35.9973 20.1943 36.0393 20.1953 36.0813 20.1953C37.9625 20.1789 39.8437 20.1922 41.7239 20.1881C42.0292 20.1881 42.3345 20.1953 42.6337 20.1215C42.6696 20.1226 42.7034 20.1236 42.7393 20.1256H42.7403C42.7485 20.1256 42.7567 20.1256 42.7649 20.1277C43.1071 20.1502 43.4452 20.2261 43.7946 20.2179C44.5743 20.2004 45.2034 19.8961 45.7158 19.3234C45.8141 19.639 45.9985 19.5119 46.184 19.4187C47.4432 18.7865 48.7045 18.1574 49.9638 17.5252C50.2558 17.3787 50.556 17.2711 50.8911 17.2916C51.6411 17.3377 51.8583 17.6666 51.9649 18.3961C52.1401 19.601 51.7015 20.3019 50.554 20.6779C49.9669 20.8695 49.433 21.224 48.8326 21.5273C49.3767 21.9669 49.9095 22.3603 50.3501 22.8573C50.8501 23.4208 51.2548 24.0427 51.598 24.7118C51.8849 25.2723 52.0202 25.8542 51.928 26.4813C48.5263 26.4813 45.1235 26.4803 41.7218 26.4833C40.7054 26.4844 40.0937 27.093 40.0876 28.094Z" fill="#FF7816"/>
<path d="M26.1858 32.5942C26.1858 32.5942 26.1776 32.6045 26.1735 32.6086C26.1684 32.6157 26.1632 32.6219 26.1581 32.628C24.0577 32.6219 21.9582 32.6147 19.8578 32.6127C19.5996 32.6127 19.3496 32.6793 19.1488 32.8504C18.8393 33.1147 18.5289 33.3801 18.2409 33.666C16.4448 35.4529 14.6517 37.2439 12.8617 39.038C11.9498 39.9519 11.0461 40.8751 10.1394 41.7942C10.1814 41.7942 10.2244 41.7952 10.2664 41.7952C10.2418 41.8126 10.2172 41.829 10.1906 41.8444C10.1322 41.8792 10.0687 41.9069 9.99796 41.9264C8.27866 42.0217 6.55937 41.9438 4.84007 41.9694C4.43023 41.9755 4.02346 41.9571 3.62181 41.8639C3.41894 41.8178 3.22734 41.7563 3.08287 41.5964C1.62792 40.955 0.571546 39.9489 0.157604 38.3658C-0.073958 37.4816 0.0141585 36.5789 0.0274784 35.6814C1.64534 35.6793 3.26217 35.6998 4.87901 35.668C6.08292 35.6445 7.23049 35.3432 8.27867 34.7326C10.626 33.3657 11.958 31.335 12.2716 28.6279C12.4365 27.1976 11.5748 26.4312 10.333 26.4558C7.15057 26.5193 3.9671 26.4783 0.782616 26.4742C0.586916 26.4742 0.371747 26.5439 0.198588 26.3799C0.579743 24.5787 1.52443 23.1309 2.94864 21.9782C3.1382 21.8235 3.40664 21.7477 3.49271 21.4772C4.34621 20.7815 5.37389 20.5141 6.42105 20.3102C7.46615 20.1073 8.52457 20.22 9.57889 20.1975C9.58914 20.1975 9.60041 20.1964 9.61066 20.1964C9.63525 20.1964 9.66086 20.1964 9.68545 20.1954C12.8218 20.1657 15.9581 20.1759 19.0944 20.1893H19.2256C20.6109 20.178 21.9941 20.1729 23.3794 20.1903C23.4142 20.1903 23.4501 20.1903 23.4859 20.1903C23.5228 20.1903 23.5587 20.1903 23.5956 20.1913C24.4347 20.2302 25.2821 20.0735 26.1151 20.2866C26.1264 20.2989 26.1376 20.3122 26.1489 20.3245C26.153 20.3296 26.1571 20.3347 26.1622 20.3399C26.1684 20.347 26.1745 20.3532 26.1807 20.3604C26.1807 22.3942 26.1807 24.427 26.1807 26.4599C26.1755 26.465 26.1714 26.4711 26.1663 26.4763H26.1653C26.1612 26.4824 26.1561 26.4875 26.1509 26.4937C26.1407 26.506 26.1294 26.5172 26.1192 26.5295C25.8825 26.6607 25.6222 26.6259 25.3702 26.6259C23.6847 26.63 22.0002 26.6279 20.3158 26.6279C19.8465 26.6279 19.3824 26.6832 19.0289 27.0173C18.661 27.3626 18.4848 27.8021 18.6211 28.3134C18.7645 28.8513 19.116 29.1935 19.657 29.3359C19.8906 29.3974 20.1293 29.3892 20.368 29.3892C22.0351 29.3903 23.7031 29.3882 25.3702 29.3923C25.6233 29.3923 25.8825 29.3575 26.1202 29.4886C26.1315 29.5009 26.1417 29.5142 26.153 29.5265C26.1571 29.5317 26.1612 29.5357 26.1643 29.5409C26.1704 29.547 26.1755 29.5532 26.1807 29.5593C26.1817 30.5706 26.1837 31.5819 26.1848 32.5932L26.1858 32.5942Z" fill="#F99E1C"/>
<path d="M42.231 41.7927C42.187 41.7927 42.1429 41.7937 42.0989 41.7937C40.4031 41.807 38.7064 41.8183 37.0107 41.8306C34.526 41.8245 32.0403 41.8173 29.5556 41.8091C28.4316 41.806 27.3086 41.7989 26.1856 41.7927C26.1846 38.7373 26.1846 35.6819 26.1836 32.6276V32.6183L26.1867 32.5938C28.2451 32.5989 30.3036 32.6071 32.362 32.6071C32.8067 32.6071 33.195 32.727 33.5147 33.0466C36.3897 35.9217 39.2658 38.7957 42.1409 41.6708C42.1767 41.7056 42.2013 41.7517 42.231 41.7927Z" fill="#FED403"/>
<path d="M42.2321 41.7969C42.2147 41.8163 42.1973 41.8348 42.1788 41.8491C42.019 41.9864 41.813 41.9721 41.6184 41.9731C40.2772 41.9813 38.9359 41.9793 37.5947 41.9752C37.3908 41.9752 37.1859 41.9659 37.0117 41.8348C38.7074 41.8225 40.4042 41.8112 42.0999 41.7979C42.144 41.7979 42.1881 41.7969 42.2321 41.7969Z" fill="#FBBF14"/>
<path d="M26.186 41.7977C22.7915 41.8028 19.398 41.809 16.0034 41.8161C15.7832 41.8161 15.5629 41.8284 15.3436 41.8356C13.6509 41.8233 11.9593 41.812 10.2677 41.7997C10.2257 41.7997 10.1826 41.7987 10.1406 41.7987C11.0474 40.8796 11.9511 39.9565 12.863 39.0425C14.653 37.2484 16.4461 35.4574 18.2422 33.6705C18.5301 33.3846 18.8406 33.1192 19.15 32.8549C19.3508 32.6838 19.6009 32.6172 19.8591 32.6172C21.9595 32.6192 24.0589 32.6264 26.1594 32.6326H26.184C26.185 35.6869 26.185 38.7423 26.186 41.7977Z" fill="#FFE471"/>
<path d="M15.3436 41.8327C15.1407 41.9967 14.8969 41.9721 14.6622 41.9731C13.3927 41.9772 12.1232 41.9793 10.8538 41.9731C10.6263 41.9711 10.3835 42.0069 10.1919 41.8471C10.1744 41.8317 10.157 41.8153 10.1406 41.7969C10.1826 41.7969 10.2257 41.7979 10.2677 41.7979C11.9593 41.8102 13.6509 41.8215 15.3436 41.8338V41.8327Z" fill="#FED403"/>
<path d="M9.55304 20.3347C8.59605 20.4116 7.63702 20.2886 6.67388 20.43C5.65747 20.5796 4.71483 20.889 3.82854 21.3911C3.71788 21.4536 3.60825 21.468 3.49247 21.4813C2.59286 21.0397 1.68096 20.6227 0.798769 20.1503C0.052853 19.7507 -0.194078 18.8531 0.180929 18.1226C0.563109 17.3787 1.43608 17.0795 2.23425 17.4628C3.52116 18.0816 4.79885 18.7189 6.06732 19.3737C6.43925 19.5663 6.58372 19.598 6.68003 19.098C7.19131 16.4258 7.70054 13.7516 8.29584 11.0979C9.11143 7.45333 12.1484 5.0373 15.8698 5.02091C19.3084 5.00554 22.748 5.02808 26.1866 5.0332C26.2788 5.11927 26.3208 5.23095 26.3228 5.35083C26.3321 6.22483 26.3987 7.10087 26.2849 7.97384C26.2624 8.03326 26.2265 8.08347 26.1784 8.12548C25.9263 8.26687 25.6486 8.22691 25.3792 8.22794C22.2633 8.23101 19.1485 8.22794 16.0327 8.22999C13.5839 8.23204 11.8574 9.63985 11.3697 12.0395C10.8574 14.559 10.3615 17.0806 9.85428 19.6011C9.80202 19.8614 9.80612 20.1534 9.55304 20.3358V20.3347Z" fill="#FF7816"/>
<path d="M12.273 28.6308C11.9595 31.3378 10.6275 33.3686 8.28012 34.7354C7.23195 35.3461 6.08438 35.6473 4.88046 35.6709C3.26363 35.7027 1.64679 35.6822 0.028934 35.6842C0.0268847 32.9659 0.0176632 30.2466 0.028934 27.5283C0.0309832 27.1461 0.139592 26.765 0.199019 26.3828C0.372178 26.5468 0.587347 26.4771 0.783047 26.4771C3.96754 26.4812 7.151 26.5222 10.3334 26.4586C11.5753 26.434 12.437 27.2005 12.272 28.6308H12.273Z" fill="#FFE471"/>
<path d="M51.9264 26.4767V35.6788C50.5145 35.6777 49.1026 35.6788 47.6907 35.6767C43.955 35.6695 40.7418 32.8959 40.1721 29.2042C40.1147 28.8313 40.084 28.4634 40.086 28.0895C40.0922 27.0884 40.7039 26.4798 41.7203 26.4788C45.122 26.4757 48.5247 26.4767 51.9264 26.4767Z" fill="#FED403"/>
<path d="M26.1807 8.06328C26.1828 7.05301 26.1848 6.04275 26.1869 5.03248C29.8662 5.02941 33.5466 4.95359 37.2229 5.04478C40.183 5.11855 43.014 7.38601 43.8696 10.4045C44.6964 13.3236 45.1514 16.337 45.7139 19.3196C45.7334 19.5625 45.636 19.7029 45.4147 19.8381C44.7251 20.2602 43.9936 20.4211 43.1933 20.3525C43.0069 20.3361 42.8716 20.29 42.7671 20.1434C42.5079 19.9672 42.512 19.6752 42.4587 19.416C41.9597 16.9651 41.4792 14.5101 40.9833 12.0582C40.4935 9.63913 38.766 8.22824 36.2905 8.22722C33.1768 8.22619 30.063 8.22926 26.9492 8.22312C26.6869 8.22312 26.3979 8.29484 26.1797 8.06123L26.1807 8.06328Z" fill="#F05023"/>
<path d="M43.3592 47.9476C39.8417 48.0163 37.0599 45.3369 37.0117 41.8348C38.7074 41.8225 40.4042 41.8112 42.0999 41.7979C42.144 41.7979 42.1881 41.7969 42.2321 41.7969C44.2321 41.802 46.2312 41.8174 48.2302 41.803C48.5775 41.801 48.9238 41.677 49.2702 41.6094C49.3716 44.9998 46.682 47.8831 43.3592 47.9476Z" fill="#475B62"/>
<path d="M15.343 41.8362C15.2877 45.3414 12.51 48.0125 8.9884 47.948C5.67276 47.8865 3.00877 45.0238 3.08357 41.6016C4.69118 41.9971 6.32748 41.7563 7.95047 41.8106C8.67896 41.8352 9.40951 41.8044 10.1401 41.7993C10.1821 41.7993 10.2251 41.8003 10.2671 41.8003C11.9587 41.8126 13.6504 41.8239 15.343 41.8362Z" fill="#5A6C76"/>
<path d="M26.1804 8.06602C29.4807 8.07217 32.783 8.13774 36.0822 8.06397C38.4399 8.01172 40.6766 9.34986 41.1991 12.2608C41.6725 14.8981 42.2412 17.5191 42.7678 20.1472C42.7709 20.389 42.5936 20.349 42.4481 20.348C40.3292 20.3439 38.2103 20.3378 36.0914 20.3327C35.8476 20.2343 35.6744 20.0458 35.4941 19.8654C33.8855 18.2558 32.2748 16.6471 30.6672 15.0354C30.4243 14.7926 30.1672 14.5795 29.8383 14.4596C29.2552 14.2475 28.6856 14.3725 28.3024 14.808C27.8915 15.2752 27.8321 15.9186 28.1497 16.4678C28.2788 16.6912 28.455 16.8746 28.6354 17.0549C29.5483 17.9679 30.4643 18.8777 31.3711 19.7958C31.5186 19.9454 31.7369 20.0642 31.703 20.3316C29.8628 20.3429 28.0216 20.3552 26.1814 20.3665L26.1906 20.3306C26.0001 20.14 26.0236 19.8921 26.0226 19.6574C26.0185 16.0303 26.0185 12.4032 26.0226 8.77608C26.0226 8.54144 25.999 8.29348 26.1906 8.10291L26.1804 8.06602Z" fill="#C6E1E6"/>
<path d="M31.7027 20.3272C30.591 19.2032 29.4752 18.0843 28.3706 16.9542C27.4352 15.9982 27.7251 14.6396 28.9301 14.2717C29.5121 14.0945 30.0459 14.2738 30.4373 14.659C32.34 16.53 34.2099 18.4347 36.0911 20.3272C34.6279 20.3272 33.1658 20.3272 31.7027 20.3272Z" fill="#8FBBC6"/>
<path d="M32.9184 29.4712C32.7165 29.5471 32.5177 29.5419 32.3149 29.543C30.2718 29.5491 28.2277 29.5542 26.1836 29.5604L26.1887 29.5276V26.4947L26.1836 26.4609C28.2615 26.4671 30.3394 26.4691 32.4183 26.4794C33.1827 26.4825 33.8241 27.0194 33.9399 27.7325C34.0659 28.5102 33.6581 29.1915 32.9184 29.4712Z" fill="#475B62"/>
<path d="M26.1923 8.10176C26.1923 12.1777 26.1923 16.2536 26.1923 20.3295C25.3368 20.3295 24.4802 20.3305 23.6246 20.3315C23.3787 20.2342 23.2066 20.0446 23.0252 19.8643C21.4607 18.2987 19.894 16.7341 18.3305 15.1675C18.0641 14.9011 17.7864 14.65 17.4401 14.4923C16.8735 14.2341 16.2526 14.3539 15.8458 14.7945C15.4411 15.232 15.3632 15.8724 15.6491 16.4114C15.7782 16.6552 15.9657 16.853 16.1583 17.0466C17.0743 17.9616 17.9913 18.8735 18.9012 19.7946C19.0487 19.9442 19.269 20.0631 19.2332 20.3315C16.0067 20.3325 12.7812 20.3346 9.55469 20.3356C10.1203 17.521 10.6807 14.7054 11.2514 11.8928C11.7197 9.58745 13.5384 8.08844 15.8827 8.08639C19.3192 8.08332 22.7558 8.09664 26.1913 8.10279L26.1923 8.10176Z" fill="#DFEAF0"/>
<path d="M19.2325 20.3305C18.1218 19.2076 17.0111 18.0836 15.9004 16.9606C15.3912 16.4462 15.1863 15.8489 15.465 15.1532C15.8062 14.3017 16.8246 13.9728 17.6341 14.439C17.7806 14.523 17.9322 14.6122 18.0501 14.731C19.9108 16.5948 21.7663 18.4637 23.6229 20.3316C22.1598 20.3316 20.6956 20.3316 19.2325 20.3316V20.3305Z" fill="#A8D3D8"/>
<path d="M26.1888 26.4986V29.5314C24.0976 29.5365 22.0064 29.5529 19.9162 29.5406C19.077 29.5365 18.4305 28.8582 18.4182 28.0426C18.4049 27.2055 19.0442 26.5006 19.9162 26.4924C22.0074 26.4729 24.0976 26.4945 26.1888 26.4986Z" fill="#5A6C76"/>
</g>
<rect x="25.5" y="22" width="10" height="8" fill="#FF7816"/>
<rect x="17.5" y="22" width="9" height="8" fill="#F99E1C"/>
<path d="M26.2689 29.7841C27.7103 29.7286 29.0676 29.2698 30.1707 28.1744C30.7978 27.5512 30.901 26.9107 30.4384 26.3774C29.9834 25.8516 29.2932 25.865 28.6184 26.4118C26.8921 27.8112 25.5367 27.7997 23.7932 26.3678C23.1814 25.8669 22.4779 25.8708 22.0286 26.3774C21.5717 26.8935 21.6195 27.49 22.1758 28.0673C23.2713 29.2029 24.6401 29.7153 26.2689 29.786V29.7841Z" fill="#3A484A"/>
<path d="M12.7608 28.4543C13.386 28.4294 13.8295 27.9725 13.8926 27.2442C13.9251 26.8656 13.8983 26.4833 13.8983 26.1029H13.9002C13.9002 25.7224 13.9232 25.3401 13.8964 24.9616C13.8391 24.1816 13.4013 23.7247 12.7322 23.7113C12.0783 23.6979 11.61 24.0822 11.5488 24.843C11.4819 25.6746 11.4838 26.5196 11.5545 27.3493C11.6195 28.0968 12.1089 28.4811 12.7608 28.4543Z" fill="#3A484B"/>
<path d="M38.6229 27.3341C38.6649 27.9956 39.1218 28.4391 39.7278 28.4525C40.3453 28.4658 40.8768 28.0433 40.9112 27.4067C40.9571 26.5216 40.959 25.6326 40.9112 24.7475C40.8768 24.1071 40.3511 23.6961 39.7278 23.7114C39.1103 23.7266 38.6668 24.1568 38.6229 24.8259C38.5961 25.2293 38.6171 25.6365 38.619 26.0418C38.619 26.4719 38.5961 26.904 38.6248 27.3341H38.6229Z" fill="#3A484A"/>
<defs>
<clipPath id="clip0_8863_55957">
<rect width="52" height="42.9476" fill="white" transform="translate(0 5)"/>
</clipPath>
</defs>
</svg>
