<svg width="25" height="25" viewBox="0 0 25 25" fill="none" xmlns="http://www.w3.org/2000/svg">
<g id="Bold / Users / User Id">
<path id="Vector" fill-rule="evenodd" clip-rule="evenodd" d="M10.5 4.78125L14.5 4.78125C18.2712 4.78125 20.1569 4.78125 21.3284 5.95282C22.5 7.1244 22.5 9.01001 22.5 12.7813C22.5 16.5525 22.5 18.4381 21.3284 19.6097C20.1569 20.7813 18.2712 20.7813 14.5 20.7813L10.5 20.7812C6.72876 20.7812 4.84315 20.7812 3.67157 19.6097C2.5 18.4381 2.5 16.5525 2.5 12.7812C2.5 9.01001 2.5 7.1244 3.67157 5.95282C4.84315 4.78125 6.72876 4.78125 10.5 4.78125ZM13.75 9.78125C13.75 9.36704 14.0858 9.03125 14.5 9.03125L19.5 9.03125C19.9142 9.03125 20.25 9.36704 20.25 9.78125C20.25 10.1955 19.9142 10.5313 19.5 10.5313L14.5 10.5313C14.0858 10.5313 13.75 10.1955 13.75 9.78125ZM14.75 12.7813C14.75 12.367 15.0858 12.0313 15.5 12.0313L19.5 12.0313C19.9142 12.0313 20.25 12.367 20.25 12.7813C20.25 13.1955 19.9142 13.5313 19.5 13.5313L15.5 13.5313C15.0858 13.5313 14.75 13.1955 14.75 12.7813ZM15.75 15.7813C15.75 15.367 16.0858 15.0313 16.5 15.0313L19.5 15.0313C19.9142 15.0313 20.25 15.367 20.25 15.7813C20.25 16.1955 19.9142 16.5313 19.5 16.5313L16.5 16.5312C16.0858 16.5312 15.75 16.1955 15.75 15.7813ZM11.5 9.78125C11.5 10.8858 10.6046 11.7813 9.5 11.7812C8.39543 11.7812 7.5 10.8858 7.5 9.78125C7.5 8.67668 8.39543 7.78125 9.5 7.78125C10.6046 7.78125 11.5 8.67668 11.5 9.78125ZM9.5 17.7812C13.5 17.7812 13.5 16.8858 13.5 15.7813C13.5 14.6767 11.7091 13.7813 9.5 13.7813C7.29086 13.7812 5.5 14.6767 5.5 15.7812C5.5 16.8858 5.5 17.7812 9.5 17.7812Z" fill="white"/>
</g>
</svg>
