<svg width="28" height="28" viewBox="0 0 28 28" fill="none" xmlns="http://www.w3.org/2000/svg">
<g id="Bold Duotone / School / Document">
<path id="Vector" fill-rule="evenodd" clip-rule="evenodd" d="M4.66797 5.47656V21.8099C4.66797 23.7429 6.23497 25.3099 8.16797 25.3099H19.8346C21.7676 25.3099 23.3346 23.7429 23.3346 21.8099V10.1432C23.3346 8.21023 21.7676 6.64323 19.8346 6.64323H5.83464C5.1903 6.64323 4.66797 6.12089 4.66797 5.47656ZM8.45964 13.6432C8.45964 13.16 8.85139 12.7682 9.33464 12.7682H18.668C19.1512 12.7682 19.543 13.16 19.543 13.6432C19.543 14.1265 19.1512 14.5182 18.668 14.5182H9.33464C8.85139 14.5182 8.45964 14.1265 8.45964 13.6432ZM8.45964 17.7266C8.45964 17.2433 8.85139 16.8516 9.33464 16.8516H15.7513C16.2346 16.8516 16.6263 17.2433 16.6263 17.7266C16.6263 18.2098 16.2346 18.6016 15.7513 18.6016H9.33464C8.85139 18.6016 8.45964 18.2098 8.45964 17.7266Z" fill="url(#paint0_linear_7362_73398)"/>
<path id="Subtract" opacity="0.5" d="M21.0013 4.66971V6.84515C20.6364 6.71618 20.2437 6.646 19.8346 6.646H5.83464C5.1903 6.646 4.66797 6.12366 4.66797 5.47933V5.39644C4.66797 4.77459 5.12523 4.24736 5.74083 4.15942L18.338 2.35983C19.7437 2.15902 21.0013 3.24976 21.0013 4.66971Z" fill="url(#paint1_linear_7362_73398)"/>
</g>
<defs>
<linearGradient id="paint0_linear_7362_73398" x1="7.97352" y1="6.30295" x2="20.2267" y2="23.8004" gradientUnits="userSpaceOnUse">
<stop stop-color="#F4CC46"/>
<stop offset="1" stop-color="#F88F33"/>
</linearGradient>
<linearGradient id="paint1_linear_7362_73398" x1="7.56033" y1="2.52382" x2="8.60459" y2="8.26283" gradientUnits="userSpaceOnUse">
<stop stop-color="#F4CC46"/>
<stop offset="1" stop-color="#F88F33"/>
</linearGradient>
</defs>
</svg>
