<svg xmlns="http://www.w3.org/2000/svg" width="17" height="16" viewBox="0 0 17 16" fill="none">
  <path fill-rule="evenodd" clip-rule="evenodd" d="M3.44511 2.11699C2.66406 2.89803 2.66406 4.15511 2.66406 6.66927V9.33594C2.66406 11.8501 2.66406 13.1072 3.44511 13.8882C4.22616 14.6693 5.48324 14.6693 7.9974 14.6693H9.33073C11.8449 14.6693 13.102 14.6693 13.883 13.8882C14.6641 13.1072 14.6641 11.8501 14.6641 9.33594V6.66927C14.6641 4.15511 14.6641 2.89803 13.883 2.11699C13.102 1.33594 11.8449 1.33594 9.33073 1.33594H7.9974C5.48324 1.33594 4.22616 1.33594 3.44511 2.11699ZM5.9974 6.16927C5.72125 6.16927 5.4974 6.39313 5.4974 6.66927C5.4974 6.94541 5.72125 7.16927 5.9974 7.16927H11.3307C11.6069 7.16927 11.8307 6.94541 11.8307 6.66927C11.8307 6.39313 11.6069 6.16927 11.3307 6.16927H5.9974ZM5.9974 8.83594C5.72125 8.83594 5.4974 9.0598 5.4974 9.33594C5.4974 9.61208 5.72125 9.83594 5.9974 9.83594H9.33073C9.60687 9.83594 9.83073 9.61208 9.83073 9.33594C9.83073 9.0598 9.60687 8.83594 9.33073 8.83594H5.9974Z" fill="#115EA3"/>
</svg>