<svg width="16" height="16" viewBox="0 0 16 16" fill="none" xmlns="http://www.w3.org/2000/svg">
<g id="Bold / List / Checklist Minimalistic">
<path id="Vector" fill-rule="evenodd" clip-rule="evenodd" d="M2.30834 2.31225C1.33203 3.28856 1.33203 4.85991 1.33203 8.0026C1.33203 11.1453 1.33203 12.7167 2.30834 13.693C3.28465 14.6693 4.856 14.6693 7.9987 14.6693C11.1414 14.6693 12.7127 14.6693 13.6891 13.693C14.6654 12.7167 14.6654 11.1453 14.6654 8.0026C14.6654 4.85991 14.6654 3.28856 13.6891 2.31225C12.7127 1.33594 11.1414 1.33594 7.9987 1.33594C4.856 1.33594 3.28465 1.33594 2.30834 2.31225ZM7.02743 5.0141C7.21788 4.81413 7.21016 4.49765 7.01019 4.3072C6.81023 4.11676 6.49374 4.12448 6.3033 4.32444L4.7606 5.94427L4.36077 5.52444C4.17032 5.32448 3.85384 5.31676 3.65387 5.5072C3.45391 5.69765 3.44619 6.01413 3.63663 6.2141L4.39853 7.0141C4.49291 7.11319 4.62377 7.16927 4.7606 7.16927C4.89744 7.16927 5.0283 7.11319 5.12267 7.0141L7.02743 5.0141ZM8.66537 5.50261C8.38922 5.50261 8.16537 5.72646 8.16537 6.00261C8.16537 6.27875 8.38922 6.50261 8.66537 6.50261H11.9987C12.2748 6.50261 12.4987 6.27875 12.4987 6.00261C12.4987 5.72646 12.2748 5.50261 11.9987 5.50261H8.66537ZM7.02743 9.68077C7.21788 9.4808 7.21016 9.16431 7.01019 8.97387C6.81023 8.78343 6.49374 8.79115 6.3033 8.99111L4.7606 10.6109L4.36077 10.1911C4.17032 9.99115 3.85384 9.98343 3.65387 10.1739C3.45391 10.3643 3.44619 10.6808 3.63663 10.8808L4.39853 11.6808C4.49291 11.7799 4.62377 11.8359 4.7606 11.8359C4.89744 11.8359 5.0283 11.7799 5.12267 11.6808L7.02743 9.68077ZM8.66537 10.1693C8.38922 10.1693 8.16537 10.3931 8.16537 10.6693C8.16537 10.9454 8.38922 11.1693 8.66537 11.1693H11.9987C12.2748 11.1693 12.4987 10.9454 12.4987 10.6693C12.4987 10.3931 12.2748 10.1693 11.9987 10.1693H8.66537Z" fill="url(#paint0_linear_11585_14642)"/>
</g>
<defs>
<linearGradient id="paint0_linear_11585_14642" x1="3.69314" y1="1.89149" x2="11.7487" y2="14.1137" gradientUnits="userSpaceOnUse">
<stop stop-color="#F4CC46"/>
<stop offset="1" stop-color="#F88F33"/>
</linearGradient>
</defs>
</svg>
