<svg width="13" height="12" viewBox="0 0 13 12" fill="none" xmlns="http://www.w3.org/2000/svg">
<g id="emoji-normal">
<g id="vuesax/bold/emoji-normal">
<g id="emoji-normal_2">
<path id="Vector" d="M8.25906 1H4.06906C2.24906 1 1.16406 2.085 1.16406 3.905V8.09C1.16406 9.915 2.24906 11 4.06906 11H8.25406C10.0741 11 11.1591 9.915 11.1591 8.095V3.905C11.1641 2.085 10.0791 1 8.25906 1ZM3.39906 3.86C3.54406 3.715 3.78406 3.715 3.92906 3.86C4.28406 4.215 4.86406 4.215 5.21906 3.86C5.36406 3.715 5.60406 3.715 5.74906 3.86C5.89406 4.005 5.89406 4.245 5.74906 4.39C5.42406 4.715 4.99906 4.875 4.57406 4.875C4.14906 4.875 3.72406 4.715 3.39906 4.39C3.25406 4.24 3.25406 4.005 3.39906 3.86ZM6.16406 9.39C4.81906 9.39 3.72406 8.295 3.72406 6.95C3.72406 6.6 4.00906 6.31 4.35906 6.31H7.95906C8.30906 6.31 8.59406 6.595 8.59406 6.95C8.60406 8.295 7.50906 9.39 6.16406 9.39ZM8.92906 4.39C8.60406 4.715 8.17906 4.875 7.75406 4.875C7.32906 4.875 6.90406 4.715 6.57906 4.39C6.43406 4.245 6.43406 4.005 6.57906 3.86C6.72406 3.715 6.96406 3.715 7.10906 3.86C7.46406 4.215 8.04406 4.215 8.39906 3.86C8.54406 3.715 8.78406 3.715 8.92906 3.86C9.07406 4.005 9.07406 4.24 8.92906 4.39Z" fill="white"/>
</g>
</g>
</g>
</svg>
