<svg width="17" height="17" viewBox="0 0 17 17" fill="none" xmlns="http://www.w3.org/2000/svg">
<path d="M15.1068 8.48698C15.1068 9.36246 14.9343 10.2294 14.5993 11.0382C14.2643 11.847 13.7732 12.582 13.1541 13.201C12.5351 13.8201 11.8002 14.3111 10.9913 14.6462C10.1825 14.9812 9.31558 15.1536 8.4401 15.1536C7.56462 15.1536 6.69772 14.9812 5.88888 14.6462C5.08004 14.3111 4.34512 13.8201 3.72606 13.201C3.107 12.582 2.61594 11.847 2.28091 11.0382C1.94588 10.2294 1.77344 9.36246 1.77344 8.48698C1.77344 7.6115 1.94588 6.74459 2.28091 5.93576C2.61594 5.12692 3.107 4.39199 3.72606 3.77293C4.34512 3.15388 5.08004 2.66281 5.88888 2.32778C6.69772 1.99275 7.56463 1.82031 8.44011 1.82031C9.31558 1.82031 10.1825 1.99275 10.9913 2.32778C11.8002 2.66281 12.5351 3.15388 13.1542 3.77293C13.7732 4.39199 14.2643 5.12692 14.5993 5.93576C14.9343 6.74459 15.1068 7.6115 15.1068 8.48698L15.1068 8.48698Z" stroke="#475467"/>
<path d="M11.1068 8.48698C11.1068 9.36246 11.0378 10.2294 10.9038 11.0382C10.7698 11.847 10.5733 12.582 10.3257 13.201C10.0781 13.8201 9.78413 14.3111 9.46059 14.6462C9.13706 14.9812 8.7903 15.1536 8.4401 15.1536C8.08991 15.1536 7.74315 14.9812 7.41961 14.6462C7.09608 14.3111 6.80211 13.8201 6.55449 13.201C6.30686 12.582 6.11044 11.847 5.97643 11.0382C5.84241 10.2294 5.77344 9.36246 5.77344 8.48698C5.77344 7.6115 5.84241 6.74459 5.97643 5.93576C6.11044 5.12692 6.30686 4.39199 6.55449 3.77293C6.80211 3.15388 7.09608 2.66281 7.41962 2.32778C7.74315 1.99275 8.08991 1.82031 8.4401 1.82031C8.7903 1.82031 9.13706 1.99275 9.46059 2.32778C9.78413 2.66281 10.0781 3.15388 10.3257 3.77293C10.5733 4.39199 10.7698 5.12692 10.9038 5.93576C11.0378 6.74459 11.1068 7.6115 11.1068 8.48698L11.1068 8.48698Z" stroke="#475467"/>
<path d="M1.77344 8.48438H15.1068" stroke="#475467" stroke-linecap="round"/>
</svg>
