\<svg width="28" height="27" viewBox="0 0 28 27" fill="none" xmlns="http://www.w3.org/2000/svg">
<path d="M9.89705 22.6988C10.8226 23.8753 12.2766 24.6335 13.9116 24.6335C15.5467 24.6335 17.0007 23.8753 17.9262 22.6988C15.2612 23.0598 12.562 23.0598 9.89705 22.6988Z" fill="#FCFCFD"/>
<path d="M21.3385 10.328V11.1028C21.3385 12.0326 21.6039 12.9417 22.1012 13.7153L23.3198 15.6113C24.433 17.343 23.5832 19.6969 21.6472 20.2445C16.5826 21.6771 11.2406 21.6771 6.17604 20.2445C4.24005 19.6969 3.39028 17.343 4.5034 15.6113L5.72205 13.7153C6.21935 12.9417 6.48472 12.0326 6.48472 11.1028V10.328C6.48472 6.07373 9.80986 2.625 13.9116 2.625C18.0134 2.625 21.3385 6.07373 21.3385 10.328Z" fill="#FCFCFD"/>
<path d="M19.9301 9.78337C22.0032 9.78337 23.6883 8.10641 23.6883 6.03231C23.6883 3.95821 22.0032 2.28125 19.9301 2.28125C17.8569 2.28125 16.1719 3.95821 16.1719 6.03231C16.1719 8.10641 17.8569 9.78337 19.9301 9.78337Z" fill="#F04438" stroke="#FDA29B" stroke-width="2"/>
</svg>
