<svg width="16" height="16" viewBox="0 0 16 16" fill="none" xmlns="http://www.w3.org/2000/svg">
<g id="Bold / Security / QR Code">
<g id="Vector">
<path fill-rule="evenodd" clip-rule="evenodd" d="M11.0153 1.33594H11.0608C11.65 1.33593 12.1252 1.33593 12.5077 1.3723C12.9022 1.4098 13.2458 1.48925 13.5549 1.67864C13.8678 1.87039 14.1309 2.13349 14.3227 2.44641C14.5121 2.75546 14.5915 3.09915 14.629 3.49362C14.6654 3.87613 14.6654 4.3513 14.6654 4.94049V4.98605C14.6654 5.37318 14.6654 5.69626 14.6404 5.95867C14.6143 6.233 14.5577 6.48865 14.4141 6.72315C14.2734 6.95262 14.0805 7.14556 13.851 7.28618C13.6165 7.42987 13.3609 7.48647 13.0865 7.51255C12.8241 7.53751 12.501 7.5375 12.1139 7.53749L11.3773 7.53749C10.8201 7.53751 10.3555 7.53752 9.98662 7.48793C9.59729 7.43559 9.24578 7.32044 8.96332 7.03798C8.68086 6.75552 8.56572 6.40401 8.51337 6.01469C8.46378 5.64583 8.4638 5.1812 8.46381 4.624L8.46381 3.88744C8.46381 3.5003 8.4638 3.17717 8.48875 2.91476C8.51483 2.64043 8.57143 2.38477 8.71513 2.15028C8.85575 1.92081 9.04868 1.72787 9.27816 1.58725C9.51265 1.44355 9.7683 1.38696 10.0426 1.36087C10.3051 1.33592 10.6282 1.33593 11.0153 1.33594ZM11.5646 5.21191C11.245 5.21191 11.0851 5.21191 10.9723 5.13184C10.9325 5.10359 10.8977 5.06882 10.8695 5.029C10.7894 4.91616 10.7894 4.75635 10.7894 4.43672C10.7894 4.11709 10.7894 3.95726 10.8695 3.84442C10.8977 3.8046 10.9325 3.76984 10.9723 3.74159C11.0851 3.66152 11.245 3.66152 11.5646 3.66152C11.8842 3.66152 12.044 3.66152 12.1569 3.74159C12.1967 3.76984 12.2315 3.8046 12.2597 3.84442C12.3398 3.95726 12.3398 4.11708 12.3398 4.43671C12.3398 4.75634 12.3398 4.91616 12.2597 5.029C12.2315 5.06882 12.1967 5.10359 12.1569 5.13184C12.044 5.21191 11.8842 5.21191 11.5646 5.21191Z" fill="white"/>
<path fill-rule="evenodd" clip-rule="evenodd" d="M6.71924 1.58725C6.48475 1.44355 6.22909 1.38696 5.95476 1.36087C5.69234 1.33592 5.36925 1.33593 4.9821 1.33594H4.93659C4.34741 1.33593 3.87222 1.33593 3.48972 1.3723C3.09524 1.4098 2.75156 1.48925 2.4425 1.67864C2.12958 1.87039 1.86649 2.13349 1.67473 2.44641C1.48534 2.75546 1.4059 3.09915 1.36839 3.49362C1.33202 3.87613 1.33203 4.35129 1.33203 4.94046V4.98598C1.33202 5.37313 1.33202 5.69625 1.35697 5.95867C1.38305 6.233 1.43965 6.48865 1.58334 6.72315C1.72397 6.95262 1.9169 7.14556 2.14638 7.28618C2.38087 7.42987 2.63652 7.48647 2.91085 7.51255C3.17325 7.53751 3.49632 7.5375 3.88344 7.53749L4.62009 7.53749C5.17728 7.53751 5.64193 7.53752 6.01078 7.48793C6.40011 7.43559 6.75161 7.32044 7.03407 7.03798C7.31654 6.75552 7.43168 6.40401 7.48403 6.01469C7.53362 5.64583 7.5336 5.18121 7.53358 4.62402L7.53358 3.88744C7.53359 3.50033 7.5336 3.17716 7.50865 2.91476C7.48256 2.64043 7.42597 2.38477 7.28227 2.15028C7.14165 1.92081 6.94871 1.72787 6.71924 1.58725ZM3.84052 5.13184C3.95336 5.21191 4.11317 5.21191 4.43281 5.21191C4.75244 5.21191 4.91226 5.21191 5.0251 5.13184C5.06492 5.10359 5.09968 5.06882 5.12793 5.029C5.208 4.91616 5.208 4.75634 5.208 4.43671C5.208 4.11708 5.208 3.95726 5.12793 3.84442C5.09968 3.8046 5.06492 3.76984 5.0251 3.74159C4.91226 3.66152 4.75244 3.66152 4.43281 3.66152C4.11317 3.66152 3.95336 3.66152 3.84052 3.74159C3.8007 3.76984 3.76593 3.8046 3.73768 3.84442C3.65761 3.95726 3.65761 4.11708 3.65761 4.43671C3.65761 4.75634 3.65761 4.91616 3.73768 5.029C3.76593 5.06882 3.8007 5.10359 3.84052 5.13184Z" fill="white"/>
<path fill-rule="evenodd" clip-rule="evenodd" d="M6.01078 8.51728C6.40011 8.56962 6.75161 8.68477 7.03407 8.96723C7.31654 9.24969 7.43168 9.60119 7.48403 9.99052C7.53362 10.3594 7.5336 10.824 7.53358 11.3812L7.53358 12.1178C7.53359 12.5049 7.5336 12.828 7.50865 13.0905C7.48256 13.3648 7.42597 13.6204 7.28227 13.8549C7.14165 14.0844 6.94871 14.2773 6.71924 14.418C6.48475 14.5617 6.22909 14.6183 5.95476 14.6443C5.69235 14.6693 5.36921 14.6693 4.98208 14.6693H4.93658C4.34739 14.6693 3.87223 14.6693 3.48972 14.6329C3.09524 14.5954 2.75156 14.516 2.4425 14.3266C2.12958 14.1348 1.86649 13.8717 1.67473 13.5588C1.48534 13.2497 1.4059 12.9061 1.36839 12.5116C1.33202 12.1291 1.33203 11.6539 1.33203 11.0647V11.0192C1.33202 10.6321 1.33202 10.309 1.35697 10.0465C1.38305 9.77221 1.43965 9.51656 1.58334 9.28206C1.72397 9.05259 1.9169 8.85965 2.14638 8.71903C2.38087 8.57534 2.63652 8.51874 2.91085 8.49266C3.17326 8.4677 3.49635 8.46771 3.88348 8.46772L4.62009 8.46772C5.17729 8.4677 5.64192 8.46769 6.01078 8.51728ZM4.43281 12.3437C4.11317 12.3437 3.95336 12.3437 3.84052 12.2636C3.8007 12.2354 3.76593 12.2006 3.73768 12.1608C3.65761 12.0479 3.65761 11.8881 3.65761 11.5685C3.65761 11.2489 3.65761 11.089 3.73768 10.9762C3.76593 10.9364 3.8007 10.9016 3.84052 10.8734C3.95336 10.7933 4.11317 10.7933 4.4328 10.7933C4.75243 10.7933 4.91226 10.7933 5.0251 10.8734C5.06492 10.9016 5.09968 10.9364 5.12793 10.9762C5.208 11.089 5.208 11.2489 5.208 11.5685C5.208 11.8881 5.208 12.0479 5.12793 12.1608C5.09968 12.2006 5.06492 12.2354 5.0251 12.2636C4.91226 12.3437 4.75244 12.3437 4.43281 12.3437Z" fill="white"/>
<path d="M8.46381 11.0796V11.1034H9.39405C9.39405 10.6582 9.39461 10.3593 9.41779 10.1315C9.44018 9.91142 9.47975 9.80973 9.52469 9.74247C9.58125 9.65783 9.65392 9.58515 9.73857 9.5286C9.80582 9.48366 9.90751 9.44408 10.1276 9.42169C10.3554 9.39851 10.6543 9.39795 11.0995 9.39795H12.3398V8.46772H11.0757C10.6604 8.46771 10.314 8.4677 10.0334 8.49624C9.73981 8.52611 9.46733 8.59104 9.22176 8.75514C9.03554 8.87956 8.87566 9.03945 8.75123 9.22566C8.58714 9.47124 8.5222 9.74372 8.49233 10.0373C8.4638 10.3179 8.4638 10.6644 8.46381 11.0796Z" fill="white"/>
<path d="M14.6654 12.3593V12.3437H13.7351C13.7351 12.639 13.7349 12.8372 13.7244 12.9907C13.7142 13.14 13.6959 13.2127 13.6761 13.2605C13.5974 13.4504 13.4465 13.6014 13.2566 13.68C13.2087 13.6998 13.1361 13.7181 12.9868 13.7283C12.8333 13.7388 12.6351 13.739 12.3398 13.739H11.0995V14.6693H12.3554C12.6311 14.6693 12.8612 14.6693 13.0501 14.6564C13.2467 14.643 13.4325 14.614 13.6126 14.5395C14.0305 14.3664 14.3625 14.0344 14.5355 13.6165C14.6101 13.4364 14.6391 13.2506 14.6525 13.054C14.6654 12.8651 14.6654 12.635 14.6654 12.3593Z" fill="white"/>
<path d="M9.39405 14.2042C9.39405 14.461 9.18581 14.6693 8.92893 14.6693C8.67205 14.6693 8.46381 14.461 8.46381 14.2042V12.3437H9.39405V14.2042Z" fill="white"/>
<path d="M14.2002 8.46772C13.9434 8.46772 13.7351 8.67596 13.7351 8.93284V11.1034H14.6654V8.93284C14.6654 8.67596 14.4571 8.46772 14.2002 8.46772Z" fill="white"/>
<path d="M10.7161 11.0808C10.6654 11.2033 10.6654 11.3586 10.6654 11.6693C10.6654 11.9799 10.6654 12.1352 10.7161 12.2577C10.7838 12.4211 10.9136 12.5509 11.0769 12.6185C11.1994 12.6693 11.3547 12.6693 11.6654 12.6693C11.976 12.6693 12.1313 12.6693 12.2538 12.6185C12.4172 12.5509 12.547 12.4211 12.6146 12.2577C12.6654 12.1352 12.6654 11.9799 12.6654 11.6693C12.6654 11.3586 12.6654 11.2033 12.6146 11.0808C12.547 10.9175 12.4172 10.7877 12.2538 10.72C12.1313 10.6693 11.976 10.6693 11.6654 10.6693C11.3547 10.6693 11.1994 10.6693 11.0769 10.72C10.9136 10.7877 10.7838 10.9175 10.7161 11.0808Z" fill="white"/>
</g>
</g>
</svg>
