<svg width="11" height="13" viewBox="0 0 11 13" fill="none" xmlns="http://www.w3.org/2000/svg">
<path fill-rule="evenodd" clip-rule="evenodd" d="M0.683594 2.5669V10.9928C0.683594 11.99 1.49197 12.7984 2.48915 12.7984H8.50767C9.50485 12.7984 10.3132 11.99 10.3132 10.9928V4.97431C10.3132 3.97713 9.50485 3.16876 8.50767 3.16876H1.28545C0.953052 3.16876 0.683594 2.8993 0.683594 2.5669ZM2.63961 6.77987C2.63961 6.53057 2.84171 6.32848 3.091 6.32848H7.90582C8.15511 6.32848 8.3572 6.53057 8.3572 6.77987C8.3572 7.02916 8.15511 7.23126 7.90582 7.23126H3.091C2.84171 7.23126 2.63961 7.02916 2.63961 6.77987ZM2.63961 8.88635C2.63961 8.63705 2.84171 8.43496 3.091 8.43496H6.40119C6.65048 8.43496 6.85257 8.63705 6.85257 8.88635C6.85257 9.13564 6.65048 9.33774 6.40119 9.33774H3.091C2.84171 9.33774 2.63961 9.13564 2.63961 8.88635Z" fill="white"/>
<path d="M0.929622 2.01747C1.13936 2.11153 1.28545 2.32216 1.28545 2.5669H8.50767C8.71549 2.5669 8.91716 2.59324 9.10952 2.64275V2.14924C9.10952 1.41673 8.46074 0.854043 7.73559 0.957636L1.23705 1.886C1.12121 1.90255 1.01624 1.94925 0.929622 2.01747Z" fill="white"/>
</svg>
